<?xml version="1.0" encoding="utf-8"?>
<!-- Generator: Adobe Illustrator 25.1.0, SVG Export Plug-In . SVG Version: 6.00 Build 0)  -->
<svg version="1.1" id="Layer_1" xmlns="http://www.w3.org/2000/svg" xmlns:xlink="http://www.w3.org/1999/xlink" x="0px" y="0px"
	 viewBox="0 0 100 100" style="enable-background:new 0 0 100 100;" xml:space="preserve">
<style type="text/css">
	.st0{fill:#1161AA;}
	.st1{display:none;}
	.st2{display:inline;fill:#1161AA;}
	.st3{display:inline;}
</style>
<g>
	<g>
		<path className="st0" d="M22.08,47.89l1.08,21.62l-2.69,0.83L9.12,51.91l2.39-0.74c0.26-0.08,0.49-0.05,0.71,0.09s0.41,0.34,0.58,0.61
			l5.8,9.96c0.26,0.43,0.53,0.91,0.82,1.43c0.28,0.52,0.57,1.07,0.86,1.64c-0.11-0.63-0.19-1.24-0.26-1.83s-0.12-1.13-0.15-1.64
			l-0.86-11.49c-0.02-0.28,0.03-0.54,0.13-0.8c0.1-0.26,0.28-0.43,0.52-0.5L22.08,47.89z"/>
		<path className="st0" d="M28.94,49.68l1.45,4.67l4.02-1.25l1.07,3.44l-4.02,1.25l1.48,4.77l5.25-1.63l1.11,3.57l-8.24,2.56
			l-6.21-20.03l8.24-2.56l1.11,3.57L28.94,49.68z"/>
		<path className="st0" d="M47.02,44.2l-3.6,1.12l5.07,16.35l-2.97,0.92l-5.07-16.35l-3.6,1.12l-1.14-3.68l10.18-3.16L47.02,44.2z"/>
		<path className="st0" d="M59.48,40.34l-3.6,1.12l5.07,16.35l-2.97,0.92L52.9,42.37l-3.6,1.12l-1.14-3.68l10.18-3.16L59.48,40.34z"/>
		<path className="st0" d="M65.69,38.29l1.45,4.67l4.02-1.25l1.07,3.44l-4.02,1.25l1.48,4.77l5.25-1.63l1.11,3.57l-8.24,2.56L61.6,35.64
			l8.24-2.56l1.11,3.57L65.69,38.29z"/>
		<path className="st0" d="M88.14,38.38c0.45,1.45,0.7,2.83,0.76,4.16c0.06,1.32-0.06,2.52-0.36,3.59s-0.79,1.99-1.45,2.74
			c-0.66,0.75-1.49,1.28-2.49,1.59L79.63,52l-6.21-20.03l4.97-1.54c1-0.31,1.98-0.34,2.95-0.09c0.97,0.25,1.89,0.73,2.74,1.44
			c0.86,0.71,1.63,1.63,2.33,2.75C87.12,35.66,87.7,36.94,88.14,38.38z M85.1,39.32c-0.31-0.99-0.67-1.86-1.08-2.6
			c-0.41-0.75-0.86-1.35-1.34-1.81c-0.48-0.46-0.99-0.77-1.53-0.93s-1.09-0.15-1.66,0.02l-1.99,0.62l3.99,12.88l1.99-0.62
			c0.57-0.18,1.03-0.48,1.38-0.92s0.6-0.98,0.73-1.63c0.14-0.65,0.16-1.4,0.08-2.25C85.61,41.25,85.41,40.32,85.1,39.32z"/>
	</g>
	<g>
		<g>
			<g>
				<path className="st0" d="M64.25,95.31c-24.98,7.86-51.7-6.08-59.55-31.06c-7.86-24.98,6.08-51.7,31.06-59.55
					c24.98-7.86,51.7,6.08,59.55,31.06C103.16,60.74,89.23,87.45,64.25,95.31z M36.47,6.97C12.75,14.43-0.49,39.8,6.97,63.53
					c7.46,23.72,32.83,36.96,56.55,29.5s36.96-32.83,29.5-56.55C85.57,12.75,60.2-0.49,36.47,6.97z"/>
			</g>
			<g>
				<path className="st0" d="M26.37,43.27c2.2-7.68,8.08-14.15,16.26-16.72c8.17-2.57,16.7-0.63,22.9,4.41l2.68-0.84
					c-6.87-6.27-16.8-8.83-26.3-5.85c-9.49,2.99-16.17,10.77-18.22,19.84L26.37,43.27z"/>
				<path className="st0" d="M73.86,55.89c-2,8.04-8.02,14.9-16.49,17.56c-8.47,2.66-17.32,0.49-23.57-4.97l-2.63,0.83
					c6.89,6.69,17.13,9.5,26.92,6.42c9.78-3.08,16.58-11.24,18.4-20.67L73.86,55.89z"/>
			</g>
			<g>
				<path className="st0" d="M63.04,91.49C40.17,98.68,15.7,85.92,8.51,63.04C1.32,40.17,14.08,15.7,36.96,8.51s47.34,5.57,54.53,28.44
					C98.68,59.83,85.92,84.3,63.04,91.49z M37.31,9.65c-22.24,7-34.65,30.79-27.66,53.04s30.79,34.66,53.03,27.66
					c22.25-6.99,34.66-30.79,27.66-53.03C83.35,15.07,59.56,2.66,37.31,9.65z"/>
			</g>
			<g>
				<path className="st0" d="M78.08,54.56c-1.69,10.27-8.96,19.26-19.54,22.58c-10.59,3.33-21.69,0.12-28.95-7.34l-1.28,0.4
					c7.55,8.08,19.35,11.61,30.59,8.08S77.79,65.1,79.36,54.15L78.08,54.56z"/>
				<path className="st0" d="M22.06,44.62c1.93-9.93,9.1-18.53,19.4-21.77c10.31-3.24,21.11-0.29,28.37,6.75l1.28-0.4
					c-7.57-7.66-19.05-10.93-30.01-7.49s-18.5,12.7-20.33,23.31L22.06,44.62z"/>
			</g>
		</g>
		<g className="st1">
			<path className="st2" d="M19.18,71.05c-2.21,0.7-3.69-0.12-4.42-2.45L10.5,55.06c-0.74-2.35-0.01-3.87,2.18-4.56l2.63-0.83
				c2.19-0.69,3.66,0.14,4.4,2.49l4.26,13.54c0.73,2.33-0.01,3.84-2.22,4.54L19.18,71.05z M19.06,68.36l1.4-0.44
				c0.73-0.23,0.96-0.74,0.71-1.54L17.03,53.2c-0.25-0.8-0.79-1.07-1.61-0.82l-1.29,0.41c-0.8,0.25-1.08,0.78-0.82,1.58l4.14,13.17
				C17.7,68.34,18.24,68.61,19.06,68.36z"/>
			<path className="st2" d="M21.33,47.79l5.38-1.69c2.1-0.66,3.52,0.18,4.26,2.53l1.59,5.07c0.56,1.79,0.38,3.1-0.56,3.92l4.61,7.96
				l-2.6,0.82l-4.41-7.74l-1.66,0.52l2.61,8.3l-2.75,0.86L21.33,47.79z M27.2,56.83l1.8-0.57c0.82-0.26,1.07-0.88,0.76-1.88
				l-1.39-4.44c-0.31-0.99-0.88-1.36-1.7-1.1l-1.8,0.57L27.2,56.83z"/>
			<path className="st2" d="M38.9,64.85L32.44,44.3l2.75-0.86l6.46,20.55L38.9,64.85z"/>
			<path className="st2" d="M46.38,54.23l-0.78-2.49l4.18-1.31l3.15,10.02l-5.38,1.69c-2.12,0.67-3.54-0.16-4.27-2.47L39.01,46.1
				c-0.74-2.35-0.05-3.85,2.07-4.52l1.89-0.59c2.33-0.73,3.87,0.09,4.62,2.48l0.7,2.23l-2.75,0.86l-0.58-1.83
				c-0.31-0.99-0.86-1.37-1.64-1.12l-0.69,0.22c-0.8,0.25-1.05,0.88-0.73,1.87l3.96,12.6c0.31,0.99,0.87,1.36,1.67,1.11l1.86-0.58
				l-1.58-5.04L46.38,54.23z"/>
			<path className="st2" d="M55.45,59.65L48.99,39.1l2.75-0.86l6.46,20.55L55.45,59.65z"/>
			<path className="st2" d="M63.42,45.47l-3.12-9.93l2.75-0.86l6.46,20.55l-2.75,0.86L65.47,52l-5.89-8.43l4.23,13.45l-2.75,0.86
				L54.6,37.33l2.75-0.86L63.42,45.47z"/>
			<path className="st2" d="M74.97,53.51l-2.75,0.86l-5.36-17.03c-0.74-2.35-0.01-3.87,2.19-4.56l2.06-0.65
				c2.19-0.69,3.66,0.14,4.4,2.49l5.36,17.03l-2.75,0.86l-2.37-7.53l-3.15,0.99L74.97,53.51z M74.97,42.5l-2.15-6.84
				c-0.25-0.8-0.78-1.08-1.58-0.83l-0.74,0.23c-0.8,0.25-1.08,0.78-0.82,1.58l2.15,6.84L74.97,42.5z"/>
			<path className="st2" d="M90.11,48.75l-6.53,2.05l-6.46-20.55l2.75-0.86l5.68,18.06l3.78-1.19L90.11,48.75z"/>
		</g>
		<g className="st1">
			<g className="st3">
				<path className="st0" d="M21.62,28.02l1.34-1.64l0.65,0.53l-1.34,1.64L21.62,28.02z"/>
				<path className="st0" d="M27.44,25.75c-0.48-0.09-0.96-0.42-1.44-0.98l-1.65-1.94c-0.48-0.56-0.72-1.08-0.72-1.57
					c0-0.48,0.27-0.96,0.82-1.43c0.55-0.47,1.06-0.66,1.54-0.57c0.48,0.08,0.96,0.4,1.43,0.96l1.65,1.95
					c0.47,0.56,0.71,1.08,0.72,1.57s-0.26,0.97-0.81,1.44C28.44,25.65,27.92,25.84,27.44,25.75z M28.56,23.93
					c-0.04-0.17-0.15-0.37-0.33-0.58l-2.09-2.46c-0.18-0.21-0.35-0.36-0.52-0.42c-0.16-0.07-0.33-0.02-0.51,0.13
					s-0.25,0.31-0.21,0.48s0.15,0.36,0.33,0.58l2.09,2.47c0.19,0.22,0.36,0.36,0.52,0.43s0.33,0.03,0.52-0.13
					C28.53,24.27,28.6,24.11,28.56,23.93z"/>
				<path className="st0" d="M27.45,17.58l1.5-0.94c0.63-0.39,1.17-0.57,1.62-0.54c0.46,0.03,0.86,0.33,1.21,0.89
					c0.24,0.38,0.37,0.71,0.41,1.01c0.04,0.3-0.04,0.59-0.23,0.87l2.57,2.33l-1.21,0.75l-2.3-2.22L30.59,20l1.64,2.63l-1.17,0.73
					L27.45,17.58z M30.52,19.1c0.28-0.17,0.43-0.36,0.46-0.57c0.03-0.21-0.05-0.45-0.23-0.75c-0.18-0.29-0.36-0.46-0.54-0.54
					c-0.18-0.07-0.41-0.02-0.67,0.14l-0.41,0.25l1.05,1.68L30.52,19.1z"/>
				<path className="st0" d="M32.2,14.8l1.25-0.6l2.97,6.15l-1.25,0.6L32.2,14.8z"/>
				<path className="st0" d="M37.35,19.36c-0.4-0.29-0.74-0.79-0.99-1.5l-0.77-2.15c-0.26-0.73-0.32-1.34-0.17-1.82s0.57-0.84,1.25-1.09
					c0.66-0.24,1.19-0.24,1.59-0.02c0.4,0.22,0.7,0.64,0.92,1.25l0.13,0.37l-1.27,0.45l-0.16-0.45c-0.11-0.3-0.22-0.5-0.33-0.62
					c-0.12-0.12-0.29-0.13-0.52-0.05c-0.24,0.09-0.36,0.22-0.38,0.4c-0.01,0.18,0.03,0.43,0.14,0.73l1.02,2.86
					c0.11,0.3,0.23,0.52,0.38,0.65c0.14,0.13,0.33,0.15,0.56,0.07s0.36-0.23,0.39-0.43s-0.01-0.46-0.12-0.77l-0.24-0.68l-0.63,0.22
					l-0.28-0.79l1.81-0.65l1.18,3.31L40,18.95l-0.29-0.54c-0.04,0.51-0.31,0.86-0.82,1.05C38.27,19.68,37.75,19.65,37.35,19.36z"/>
				<path className="st0" d="M40.06,11.83l1.34-0.33l1.61,6.64l-1.34,0.33L40.06,11.83z"/>
				<path className="st0" d="M42.95,11.15l0.96-0.13l1.98,3.32l-0.48-3.52l1.15-0.16l0.91,6.77l-0.93,0.13l-2.01-3.54l0.51,3.75
					l-1.18,0.16L42.95,11.15z"/>
				<path className="st0" d="M49.32,10.56h1.54l1.3,6.84h-1.28l-0.25-1.5h-1.08l-0.27,1.5h-1.31L49.32,10.56z M50.5,15.03l-0.41-2.75
					l-0.41,2.75H50.5z"/>
				<path className="st0" d="M53.54,10.7l1.37,0.17l-0.73,5.84l1.6,0.2l-0.12,0.94l-2.97-0.37L53.54,10.7z"/>
				<path className="st0" d="M59.08,15.26l2.03,0.6l-0.24,0.8l-2.03-0.6L59.08,15.26z"/>
			</g>
			<g className="st3">
				<path className="st0" d="M39.94,84.84l2.04,0.56l-0.22,0.81l-2.04-0.56L39.94,84.84z"/>
				<path className="st0" d="M45.19,88.87c-0.27-0.41-0.38-0.98-0.31-1.71l0.23-2.54c0.07-0.73,0.27-1.27,0.62-1.61
					c0.34-0.34,0.88-0.48,1.6-0.41c0.72,0.07,1.21,0.3,1.49,0.7c0.28,0.4,0.38,0.97,0.31,1.69l-0.24,2.55
					c-0.07,0.73-0.27,1.27-0.62,1.61c-0.35,0.35-0.88,0.49-1.59,0.42C45.97,89.51,45.47,89.28,45.19,88.87z M47.28,88.4
					c0.1-0.15,0.16-0.37,0.18-0.65l0.3-3.22c0.03-0.28,0-0.5-0.06-0.66c-0.07-0.16-0.22-0.25-0.45-0.28
					c-0.24-0.02-0.4,0.04-0.5,0.19s-0.16,0.36-0.18,0.64l-0.3,3.22c-0.03,0.29-0.01,0.51,0.06,0.68c0.06,0.16,0.22,0.26,0.46,0.28
					C47.01,88.61,47.18,88.55,47.28,88.4z"/>
				<path className="st0" d="M49.83,82.88l1.77-0.09c0.74-0.04,1.3,0.07,1.68,0.32s0.59,0.71,0.62,1.37c0.02,0.44-0.02,0.8-0.13,1.08
					s-0.32,0.5-0.63,0.65l1.1,3.28l-1.42,0.07L51.9,86.5l-0.5,0.02l0.15,3.09l-1.38,0.07L49.83,82.88z M51.77,85.7
					c0.33-0.02,0.55-0.11,0.68-0.27c0.12-0.17,0.18-0.42,0.16-0.76c-0.02-0.34-0.09-0.58-0.21-0.73c-0.13-0.15-0.34-0.22-0.65-0.21
					l-0.48,0.02l0.09,1.97L51.77,85.7z"/>
				<path className="st0" d="M54.41,82.55l1.37-0.21l1.04,6.75l-1.37,0.21L54.41,82.55z"/>
				<path className="st0" d="M58.39,88.29c-0.38-0.32-0.66-0.85-0.85-1.59l-0.58-2.21c-0.2-0.75-0.2-1.36-0.01-1.82
					c0.19-0.46,0.64-0.79,1.35-0.97c0.68-0.18,1.21-0.14,1.58,0.12c0.37,0.26,0.64,0.7,0.81,1.32l0.1,0.38l-1.31,0.34l-0.12-0.47
					c-0.08-0.3-0.17-0.52-0.28-0.65c-0.1-0.13-0.28-0.16-0.52-0.1c-0.24,0.06-0.38,0.19-0.41,0.37s0,0.43,0.08,0.74L59,86.7
					c0.08,0.31,0.19,0.54,0.32,0.68s0.31,0.18,0.56,0.12c0.23-0.06,0.38-0.19,0.42-0.4c0.05-0.2,0.03-0.46-0.05-0.78l-0.18-0.7
					l-0.64,0.17l-0.21-0.82l1.86-0.49l0.89,3.39l-0.88,0.23l-0.24-0.56c-0.08,0.51-0.38,0.83-0.91,0.97
					C59.28,88.7,58.77,88.62,58.39,88.29z"/>
				<path className="st0" d="M60.82,81.03l1.3-0.48l2.39,6.4l-1.3,0.48L60.82,81.03z"/>
				<path className="st0" d="M62.81,80.31l0.87-0.43l2.93,2.51l-1.57-3.19l1.04-0.51l3.02,6.13l-0.84,0.41l-3.03-2.72l1.67,3.39
					l-1.07,0.53L62.81,80.31z"/>
				<path className="st0" d="M67.43,77.83l1.28-0.86l4.9,4.95l-1.07,0.71l-1.05-1.11l-0.9,0.6l0.62,1.39l-1.09,0.73L67.43,77.83z
					 M70.91,80.89l-1.87-2.06l1.19,2.51L70.91,80.89z"/>
				<path className="st0" d="M70.03,76.02l1.05-0.9l3.83,4.48l1.23-1.05l0.61,0.72l-2.28,1.95L70.03,76.02z"/>
				<path className="st0" d="M76.57,74.73l1.38-1.61l0.64,0.54l-1.38,1.61L76.57,74.73z"/>
			</g>
		</g>
		<g>
			<polygon className="st0" points="43.61,30.16 45.27,31.93 47.65,31.51 46.48,33.64 47.61,35.78 45.23,35.31 43.55,37.06 43.25,34.65 
				41.07,33.58 43.27,32.56 			"/>
			<polygon className="st0" points="50.85,29.54 52.03,30.8 53.72,30.51 52.89,32.01 53.69,33.53 52,33.2 50.81,34.44 50.6,32.73 
				49.05,31.97 50.61,31.25 			"/>
			<polygon className="st0" points="37.32,33.8 38.5,35.06 40.19,34.76 39.36,36.26 40.16,37.79 38.47,37.46 37.28,38.69 37.07,36.98 
				35.52,36.23 37.08,35.5 			"/>
		</g>
		<g>
			<polygon className="st0" points="55.64,68.41 53.99,66.64 51.6,67.05 52.77,64.93 51.64,62.79 54.02,63.25 55.71,61.51 56,63.92 
				58.18,64.98 55.98,66.01 			"/>
			<polygon className="st0" points="48.4,69.03 47.23,67.77 45.53,68.06 46.37,66.56 45.56,65.04 47.25,65.37 48.45,64.13 48.65,65.84 
				50.2,66.59 48.64,67.32 			"/>
			<polygon className="st0" points="61.93,64.77 60.76,63.51 59.06,63.81 59.9,62.3 59.09,60.78 60.78,61.11 61.98,59.88 62.18,61.58 
				63.73,62.34 62.17,63.07 			"/>
		</g>
		<g id="Splash_6_" className="st1">
			<g id="whitelable-splash_6_" transform="translate(-677.000000, -4346.000000)" className="st3">
				<g id="logo_x2F_filled_6_" transform="translate(663.000000, 4346.000000)">
					<g id="high5-logo-gray_6_" transform="translate(14.210526, 0.424242)">
						<path id="high_6_" className="st0" d="M51.51,90.38c0.11-0.03,0.18-0.15,0.15-0.26l-0.39-1.56l1.82-0.45l0.39,1.56
							c0.03,0.11,0.14,0.19,0.25,0.16l0.44-0.11c0.11-0.03,0.17-0.14,0.14-0.26l-0.98-3.97c-0.03-0.11-0.14-0.19-0.25-0.16
							l-0.44,0.11c-0.11,0.03-0.17,0.14-0.14,0.26l0.39,1.55l-1.82,0.45l-0.39-1.55c-0.03-0.11-0.14-0.19-0.25-0.16L50,86.1
							c-0.11,0.03-0.18,0.15-0.15,0.26l0.98,3.97c0.03,0.11,0.14,0.19,0.25,0.16L51.51,90.38z M55.91,89.29
							c0.11-0.03,0.18-0.15,0.15-0.26l-0.98-3.97c-0.03-0.11-0.14-0.19-0.25-0.16l-0.43,0.11c-0.11,0.03-0.18,0.15-0.15,0.26
							l0.98,3.97c0.03,0.11,0.14,0.19,0.25,0.16L55.91,89.29z M58.84,88.6c1.2-0.3,1.91-1.46,1.58-2.77
							c-0.01-0.04-0.02-0.08-0.04-0.12l-0.01-0.02c-0.03-0.11-0.14-0.17-0.25-0.15L58.23,86c-0.11,0.03-0.18,0.15-0.15,0.26
							l0.1,0.42c0.03,0.11,0.14,0.19,0.25,0.16l1.2-0.3c-0.03,0.61-0.42,1.06-1.01,1.2c-0.79,0.2-1.45-0.25-1.65-1.06
							s0.17-1.52,0.96-1.71c0.49-0.12,0.9-0.01,1.25,0.32c0.05,0.05,0.12,0.07,0.19,0.05l0.48-0.12c0.12-0.03,0.18-0.14,0.15-0.25
							c-0.05-0.19-0.38-0.45-0.58-0.58c-0.51-0.34-1.09-0.43-1.71-0.27c-1.23,0.3-1.9,1.5-1.58,2.77
							C56.46,88.16,57.61,88.9,58.84,88.6z M62.12,87.75c0.11-0.03,0.18-0.15,0.15-0.26l-0.39-1.56l1.82-0.45l0.39,1.56
							c0.03,0.11,0.14,0.19,0.25,0.16l0.44-0.11c0.11-0.03,0.17-0.14,0.14-0.26l-0.98-3.97c-0.03-0.11-0.14-0.19-0.25-0.16
							l-0.44,0.11c-0.11,0.03-0.17,0.14-0.14,0.26l0.39,1.55l-1.82,0.45l-0.39-1.55c-0.03-0.11-0.14-0.19-0.25-0.16l-0.43,0.11
							c-0.11,0.03-0.18,0.15-0.15,0.26l0.98,3.97c0.03,0.11,0.14,0.19,0.25,0.16L62.12,87.75z"/>
						<path id="Shape_6_" className="st0" d="M67.18,79.72c0.09,0.03,0.13,0.01,0.11-0.05c-0.04-0.13-0.04-0.35,0.02-0.67
							s0.13-0.66,0.24-1c0.1-0.35,0.19-0.61,0.27-0.79c0.01-0.03,0.01-0.06,0.01-0.09c-0.02-0.08-0.08-0.15-0.2-0.22
							c-0.12-0.07-0.24-0.13-0.37-0.16c-0.13-0.03-0.22-0.04-0.27-0.01c-0.06,0.03-0.12,0.2-0.2,0.5c-0.07,0.3-0.13,0.62-0.16,0.97
							c-0.04,0.34-0.03,0.6,0.01,0.77c0.06,0.24,0.14,0.42,0.25,0.54C66.99,79.64,67.09,79.71,67.18,79.72z M68.47,79.1
							c0.11,0.05,0.08,0.01,0.08-0.04c0-0.13-0.06-0.46,0.06-1.03c0.06-0.33,0.13-0.66,0.24-1c0.1-0.35,0.29-0.76,0.28-0.88
							c0-0.12-0.08-0.15-0.2-0.22c-0.12-0.07-0.24-0.13-0.37-0.16s-0.22-0.04-0.27-0.01c-0.06,0.03-0.37,1.11-0.4,1.46
							C67.61,78.53,68.27,79,68.47,79.1z M69.94,79.72c0.03-0.11,0.02-0.24-0.01-0.38c-0.03-0.11-0.06-0.17-0.1-0.21l0,0
							c-0.01-0.02-0.02-0.02-0.04-0.03l0,0c-0.02,0-0.05-0.02-0.08-0.02c0.01-0.05,0.01-0.1,0.03-0.15c0.06-0.33,0.13-0.66,0.24-1
							c0.1-0.35,0.19-0.61,0.27-0.79c0.01-0.03,0.01-0.06,0.01-0.09c-0.02-0.08-0.08-0.15-0.2-0.22c-0.12-0.07-0.24-0.13-0.37-0.16
							c-0.1-0.02-0.17-0.03-0.23-0.02c-0.02,0-0.03,0.01-0.04,0.02c-0.06,0.03-0.12,0.2-0.2,0.5c-0.07,0.3-0.13,0.62-0.16,0.97
							c0,0.04-0.01,0.07-0.01,0.11c0,0.01,0,0.02,0,0.03c0,0.07-0.01,0.12-0.01,0.19c0,0.01,0,0.02,0,0.03c0,0.03,0,0.06,0,0.08
							c0,0.02,0,0.04,0,0.06c0,0.04,0,0.08,0.01,0.11c0,0.02,0,0.04,0,0.06s0,0.03,0,0.05v0.01c0,0.02,0.01,0.04,0.02,0.06
							c0.02,0.09,0.05,0.18,0.08,0.25c-0.04,0.01-0.09,0.02-0.12,0.03c-0.24,0.08-0.51,0.18-0.79,0.33c-0.36,0.18-0.7,0.38-1,0.6
							s-0.52,0.41-0.65,0.59c-0.17,0.21-0.23,0.42-0.18,0.62c0.02,0.06,0.04,0.1,0.06,0.14c0.03,0.04,0.05,0.05,0.08,0.06
							c0.03-0.01,0.03-0.03,0.03-0.06c0-0.08,0.08-0.21,0.23-0.36c-0.15,0.43-0.29,0.93-0.44,1.5c-0.04,0.14-0.07,0.27-0.09,0.38
							c-0.04-0.26-0.07-0.53-0.08-0.81c-0.03-0.44-0.03-0.77-0.02-1.01c0-0.05-0.01-0.07-0.02-0.1c-0.06-0.08-0.15-0.14-0.32-0.17
							c-0.16-0.04-0.31-0.05-0.47-0.04c-0.15,0.01-0.26,0.04-0.3,0.1c-0.05,0.06-0.05,0.28-0.01,0.65s0.11,0.76,0.2,1.16
							c0.1,0.4,0.21,0.69,0.32,0.86c0.16,0.24,0.32,0.42,0.49,0.51c0.31,0.16,0.48,0.13,0.62-0.03c0,0,0.5-0.6,0.84-0.88
							c0.34-0.29,0.65-0.47,0.95-0.55c0.13-0.03,0.26-0.04,0.37-0.01c-0.13,0.39-0.37,0.82-0.71,1.27
							c-0.35,0.45-0.71,0.85-1.09,1.19c-0.39,0.33-0.69,0.53-0.94,0.59c-0.04,0.01-0.09,0.01-0.13,0.01c-0.06,0-0.08,0.03-0.07,0.09
							c0.02,0.08,0.09,0.19,0.21,0.33s0.25,0.24,0.4,0.33c0.15,0.09,0.29,0.12,0.4,0.09c0.22-0.06,0.53-0.27,0.9-0.65
							c0.37-0.38,0.72-0.81,1.02-1.3c0.3-0.49,0.47-0.94,0.52-1.33c0.03-0.19,0.02-0.38-0.04-0.59c-0.04-0.17-0.11-0.33-0.19-0.47
							s-0.15-0.22-0.18-0.23c-0.06-0.06-0.12-0.09-0.18-0.11c-0.14-0.02-0.3-0.01-0.45,0.03c-0.26,0.06-0.52,0.2-0.79,0.39
							c-0.27,0.19-0.52,0.4-0.76,0.65c0.09-0.42,0.19-0.81,0.3-1.18c0.12-0.38,0.22-0.65,0.33-0.84c0.01-0.02,0.01-0.05,0.01-0.08
							c-0.02-0.06-0.06-0.11-0.13-0.14c0.28-0.18,0.58-0.35,0.91-0.51c0.34-0.16,0.64-0.27,0.91-0.34c0.3-0.07,0.52-0.08,0.67-0.03
							C69.87,79.88,69.92,79.84,69.94,79.72z M70.92,78.4c-0.11-0.07-0.22-0.12-0.35-0.14s-0.2-0.04-0.25,0s-0.11,0.18-0.19,0.45
							c-0.07,0.27-0.13,0.56-0.17,0.87s-0.03,0.54,0.01,0.7c0.05,0.21,0.13,0.37,0.23,0.49c0.1,0.11,0.19,0.17,0.28,0.2
							c0.09,0.02,0.12,0.01,0.1-0.04c-0.04-0.11-0.03-0.32,0.02-0.61c0.06-0.29,0.13-0.59,0.23-0.91c0.1-0.32,0.18-0.56,0.26-0.72
							c0.01-0.03,0.01-0.06,0.01-0.08C71.09,78.53,71.03,78.46,70.92,78.4z"/>
					</g>
				</g>
			</g>
		</g>
		<g id="Splash_5_">
			<g id="whitelable-splash_5_" transform="translate(-677.000000, -4346.000000)">
				<g id="logo_x2F_filled_5_" transform="translate(663.000000, 4346.000000)">
					<g id="high5-logo-gray_5_" transform="translate(14.210526, 0.424242)">
						<path id="high_5_" className="st0" d="M31.93,23.07c0.1-0.03,0.16-0.15,0.13-0.26l-0.47-1.46l1.71-0.55l0.47,1.46
							c0.03,0.11,0.14,0.17,0.25,0.14l0.41-0.13c0.1-0.03,0.15-0.15,0.12-0.25l-1.2-3.71c-0.03-0.11-0.14-0.17-0.25-0.14l-0.41,0.13
							c-0.1,0.03-0.15,0.15-0.12,0.25L33.04,20l-1.71,0.55l-0.47-1.45c-0.03-0.11-0.15-0.17-0.25-0.14l-0.4,0.13
							c-0.1,0.03-0.16,0.15-0.13,0.26l1.2,3.71c0.03,0.11,0.15,0.17,0.25,0.14L31.93,23.07z M36.06,21.74
							c0.1-0.03,0.16-0.15,0.13-0.26l-1.2-3.71c-0.03-0.11-0.15-0.17-0.25-0.14l-0.4,0.13c-0.1,0.03-0.16,0.15-0.13,0.26l1.2,3.71
							c0.03,0.11,0.15,0.17,0.25,0.14L36.06,21.74z M38.79,20.9c1.12-0.36,1.72-1.52,1.33-2.74c-0.01-0.04-0.03-0.08-0.04-0.12
							l-0.01-0.02c-0.04-0.1-0.15-0.16-0.25-0.12l-1.78,0.57c-0.1,0.03-0.16,0.15-0.13,0.26l0.13,0.39
							c0.03,0.11,0.15,0.17,0.25,0.14l1.12-0.36c0.01,0.58-0.33,1.03-0.89,1.21c-0.74,0.24-1.39-0.14-1.64-0.9
							c-0.24-0.76,0.07-1.45,0.8-1.69c0.46-0.15,0.86-0.07,1.21,0.22c0.05,0.05,0.12,0.06,0.18,0.04l0.45-0.15
							c0.11-0.03,0.16-0.14,0.13-0.25c-0.06-0.17-0.39-0.4-0.59-0.51c-0.51-0.29-1.06-0.34-1.65-0.15
							c-1.15,0.37-1.71,1.56-1.33,2.74C36.5,20.64,37.65,21.27,38.79,20.9z M41.86,19.87c0.1-0.03,0.16-0.15,0.13-0.26l-0.47-1.46
							l1.71-0.55l0.47,1.46c0.03,0.11,0.14,0.17,0.25,0.14l0.41-0.13c0.1-0.03,0.15-0.15,0.12-0.25l-1.2-3.71
							c-0.03-0.11-0.14-0.17-0.25-0.14l-0.41,0.13c-0.1,0.03-0.15,0.15-0.12,0.25l0.47,1.45l-1.71,0.55l-0.47-1.45
							c-0.03-0.11-0.15-0.17-0.25-0.14l-0.4,0.13c-0.1,0.03-0.16,0.15-0.13,0.26l1.2,3.71c0.03,0.11,0.15,0.17,0.25,0.14
							L41.86,19.87z"/>
						<path id="Shape_5_" className="st0" d="M46.15,11.9c0.09,0.02,0.12,0,0.1-0.05c-0.05-0.12-0.06-0.33-0.03-0.64
							s0.08-0.63,0.16-0.97c0.07-0.34,0.14-0.6,0.21-0.77c0.01-0.03,0.01-0.06,0-0.08c-0.02-0.07-0.09-0.14-0.21-0.2
							c-0.12-0.06-0.24-0.11-0.36-0.13s-0.21-0.02-0.26,0.01c-0.05,0.03-0.1,0.2-0.15,0.49c-0.05,0.29-0.08,0.6-0.09,0.93
							s0.01,0.58,0.06,0.74c0.07,0.22,0.16,0.39,0.28,0.5C45.96,11.83,46.06,11.89,46.15,11.9z M47.33,11.22
							c0.11,0.04,0.08,0,0.08-0.04c-0.01-0.12-0.09-0.43-0.01-0.99c0.03-0.31,0.08-0.63,0.16-0.97c0.07-0.34,0.22-0.74,0.21-0.86
							c-0.01-0.12-0.09-0.14-0.21-0.2c-0.12-0.06-0.24-0.11-0.36-0.13s-0.21-0.02-0.26,0.01c-0.05,0.03-0.28,1.08-0.28,1.42
							C46.48,10.73,47.13,11.14,47.33,11.22z M48.78,11.71c0.02-0.11,0.01-0.23-0.03-0.36c-0.03-0.1-0.07-0.16-0.11-0.2l0,0
							c-0.01-0.01-0.02-0.02-0.04-0.02l0,0c-0.02,0-0.05-0.01-0.08-0.01c0-0.05,0.01-0.09,0.02-0.14c0.03-0.31,0.08-0.63,0.16-0.97
							c0.07-0.34,0.14-0.6,0.21-0.77c0.01-0.03,0.01-0.06,0-0.08c-0.02-0.07-0.09-0.14-0.21-0.2s-0.24-0.11-0.36-0.13
							c-0.09-0.02-0.17-0.02-0.22,0c-0.02,0.01-0.03,0.01-0.04,0.02c-0.05,0.03-0.1,0.2-0.15,0.49c-0.05,0.29-0.08,0.6-0.09,0.93
							c0,0.04-0.01,0.07,0,0.1c0,0.01,0,0.02,0,0.03c0,0.06,0,0.12,0.01,0.18c0,0.01,0,0.02,0,0.03c0,0.03,0,0.06,0.01,0.08
							c0.01,0.02,0,0.04,0.01,0.05c0,0.04,0.01,0.07,0.02,0.11c0.01,0.02,0,0.04,0.01,0.05c0.01,0.02,0,0.03,0.01,0.04v0.01
							c0.01,0.02,0.01,0.04,0.02,0.06c0.03,0.08,0.06,0.16,0.09,0.24c-0.04,0.01-0.08,0.03-0.11,0.04
							c-0.22,0.09-0.47,0.21-0.73,0.36c-0.33,0.2-0.64,0.41-0.91,0.63c-0.28,0.23-0.47,0.43-0.58,0.6c-0.15,0.21-0.19,0.42-0.13,0.6
							c0.02,0.06,0.04,0.1,0.07,0.13c0.03,0.04,0.05,0.05,0.08,0.05c0.02-0.01,0.03-0.03,0.02-0.06c-0.01-0.08,0.06-0.2,0.2-0.36
							c-0.11,0.42-0.22,0.91-0.32,1.45c-0.03,0.14-0.05,0.26-0.06,0.37c-0.05-0.24-0.1-0.5-0.13-0.77
							c-0.06-0.41-0.08-0.73-0.09-0.96c-0.01-0.04-0.01-0.07-0.03-0.09c-0.06-0.07-0.16-0.12-0.31-0.14s-0.3-0.02-0.45,0
							s-0.24,0.06-0.28,0.12c-0.04,0.06-0.03,0.27,0.03,0.62s0.15,0.71,0.27,1.09c0.12,0.37,0.24,0.64,0.37,0.8
							c0.17,0.22,0.34,0.38,0.5,0.45c0.3,0.13,0.47,0.09,0.58-0.07c0,0,0.44-0.6,0.74-0.89c0.3-0.3,0.59-0.49,0.87-0.58
							c0.12-0.04,0.24-0.05,0.36-0.03c-0.1,0.38-0.29,0.8-0.59,1.26c-0.3,0.46-0.62,0.85-0.96,1.2c-0.35,0.34-0.63,0.55-0.85,0.62
							c-0.04,0.01-0.08,0.02-0.13,0.02c-0.06,0-0.08,0.03-0.06,0.09c0.02,0.07,0.1,0.18,0.22,0.3s0.26,0.21,0.4,0.28
							c0.15,0.07,0.28,0.09,0.39,0.06c0.21-0.07,0.49-0.29,0.82-0.68c0.33-0.38,0.63-0.82,0.88-1.31s0.39-0.93,0.41-1.3
							c0.01-0.18-0.01-0.36-0.07-0.56c-0.05-0.16-0.13-0.31-0.21-0.44c-0.09-0.13-0.15-0.2-0.19-0.2c-0.06-0.05-0.12-0.08-0.18-0.09
							c-0.14-0.01-0.28,0.01-0.43,0.06c-0.24,0.08-0.48,0.22-0.73,0.42s-0.47,0.42-0.68,0.67c0.06-0.4,0.13-0.79,0.21-1.14
							c0.09-0.37,0.17-0.63,0.26-0.82c0.01-0.02,0.01-0.05,0-0.07c-0.02-0.06-0.07-0.1-0.14-0.12c0.25-0.19,0.53-0.37,0.83-0.54
							c0.31-0.17,0.59-0.3,0.84-0.38c0.28-0.09,0.49-0.11,0.64-0.08C48.72,11.87,48.77,11.82,48.78,11.71z M49.63,10.39
							c-0.11-0.06-0.22-0.1-0.34-0.11c-0.12-0.02-0.19-0.02-0.24,0.01c-0.04,0.03-0.09,0.18-0.15,0.44
							c-0.05,0.26-0.08,0.54-0.1,0.84c-0.02,0.3,0,0.51,0.05,0.66c0.06,0.2,0.15,0.35,0.25,0.45c0.1,0.1,0.19,0.15,0.28,0.17
							c0.08,0.01,0.12,0,0.09-0.05c-0.04-0.11-0.05-0.3-0.02-0.58c0.04-0.28,0.08-0.57,0.16-0.88c0.07-0.31,0.14-0.54,0.2-0.7
							c0.01-0.03,0.01-0.06,0-0.07C49.8,10.5,49.73,10.44,49.63,10.39z"/>
					</g>
				</g>
			</g>
		</g>
	</g>
	<g id="Splash_4_">
		<g id="whitelable-splash_4_" transform="translate(-677.000000, -4346.000000)">
			<g id="logo_x2F_filled_4_" transform="translate(663.000000, 4346.000000)">
				<g id="high5-logo-gray_4_" transform="translate(14.210526, 0.424242)">
					<path id="high_4_" className="st0" d="M52.18,89.23c0.1-0.03,0.17-0.14,0.14-0.25l-0.37-1.49l1.74-0.43l0.37,1.49
						c0.03,0.11,0.13,0.18,0.24,0.15l0.42-0.1c0.1-0.03,0.16-0.14,0.14-0.25l-0.94-3.79c-0.03-0.11-0.13-0.18-0.24-0.15l-0.42,0.1
						c-0.1,0.03-0.16,0.14-0.14,0.25l0.37,1.48l-1.74,0.43l-0.37-1.48c-0.03-0.11-0.14-0.18-0.24-0.15l-0.41,0.1
						c-0.1,0.03-0.17,0.14-0.14,0.25l0.94,3.79c0.03,0.11,0.14,0.18,0.24,0.15L52.18,89.23z M56.38,88.19
						c0.1-0.03,0.17-0.14,0.14-0.25l-0.94-3.79c-0.03-0.11-0.14-0.18-0.24-0.15l-0.41,0.1c-0.1,0.03-0.17,0.14-0.14,0.25l0.94,3.79
						c0.03,0.11,0.14,0.18,0.24,0.15L56.38,88.19z M59.17,87.54c1.14-0.28,1.82-1.4,1.51-2.65c-0.01-0.04-0.02-0.08-0.04-0.12
						l-0.01-0.02c-0.03-0.11-0.13-0.17-0.24-0.14l-1.81,0.45c-0.1,0.03-0.17,0.14-0.14,0.25l0.1,0.4c0.03,0.11,0.14,0.18,0.24,0.15
						l1.15-0.28c-0.03,0.58-0.4,1.01-0.97,1.15c-0.75,0.19-1.38-0.24-1.57-1.01c-0.19-0.77,0.17-1.45,0.92-1.63
						c0.47-0.12,0.86-0.01,1.19,0.3c0.05,0.05,0.12,0.07,0.18,0.05l0.46-0.11c0.11-0.03,0.17-0.13,0.14-0.24
						c-0.04-0.18-0.36-0.43-0.55-0.55c-0.49-0.32-1.04-0.41-1.63-0.26c-1.17,0.29-1.81,1.44-1.51,2.65
						C56.9,87.12,58,87.83,59.17,87.54z M62.3,86.73c0.1-0.03,0.17-0.14,0.14-0.25l-0.37-1.49l1.74-0.43l0.37,1.49
						c0.03,0.11,0.13,0.18,0.24,0.15l0.42-0.1c0.1-0.03,0.16-0.14,0.14-0.25l-0.94-3.79c-0.03-0.11-0.13-0.18-0.24-0.15l-0.42,0.1
						c-0.1,0.03-0.16,0.14-0.14,0.25l0.37,1.48l-1.74,0.43l-0.37-1.48c-0.03-0.11-0.14-0.18-0.24-0.15l-0.41,0.1
						c-0.1,0.03-0.17,0.14-0.14,0.25l0.94,3.79c0.03,0.11,0.14,0.18,0.24,0.15L62.3,86.73z"/>
					<path id="Shape_4_" className="st0" d="M67.13,79.07c0.08,0.02,0.12,0.01,0.1-0.04c-0.04-0.13-0.04-0.33,0.02-0.64
						c0.05-0.31,0.13-0.63,0.23-0.96c0.09-0.33,0.18-0.59,0.26-0.75c0.01-0.03,0.01-0.06,0.01-0.08c-0.02-0.08-0.08-0.14-0.19-0.21
						s-0.23-0.12-0.35-0.16c-0.12-0.03-0.21-0.04-0.26-0.01s-0.11,0.19-0.19,0.48c-0.07,0.29-0.13,0.59-0.16,0.92
						c-0.03,0.32-0.03,0.58,0.01,0.74c0.06,0.23,0.13,0.4,0.24,0.52C66.95,78.98,67.05,79.05,67.13,79.07z M68.36,78.47
						c0.11,0.05,0.08,0.01,0.08-0.04c0-0.13-0.06-0.44,0.05-0.99c0.05-0.31,0.13-0.63,0.23-0.96c0.09-0.33,0.28-0.73,0.26-0.84
						c0-0.12-0.08-0.14-0.19-0.21s-0.23-0.12-0.35-0.16c-0.12-0.03-0.21-0.04-0.26-0.01s-0.35,1.06-0.38,1.39
						C67.54,77.93,68.17,78.38,68.36,78.47z M69.76,79.06c0.03-0.11,0.02-0.23-0.01-0.36c-0.03-0.1-0.06-0.17-0.09-0.2l0,0
						c-0.01-0.01-0.02-0.02-0.04-0.03l0,0c-0.02,0-0.05-0.02-0.07-0.02c0.01-0.05,0.01-0.09,0.03-0.14
						c0.05-0.31,0.13-0.63,0.23-0.96c0.09-0.33,0.18-0.59,0.26-0.75c0.01-0.03,0.01-0.06,0.01-0.08c-0.02-0.08-0.08-0.14-0.19-0.21
						s-0.23-0.12-0.35-0.16c-0.09-0.02-0.17-0.03-0.21-0.02c-0.02,0-0.03,0.01-0.04,0.02c-0.05,0.03-0.11,0.19-0.19,0.48
						c-0.07,0.29-0.13,0.59-0.16,0.92c0,0.04-0.01,0.07-0.01,0.1c0,0.01,0,0.02,0,0.03c0,0.06-0.01,0.12-0.01,0.18
						c0,0.01,0,0.02,0,0.03c0,0.03,0,0.06,0,0.08c0,0.02,0,0.04,0,0.05c0,0.04,0,0.07,0.01,0.11c0,0.02,0,0.04,0,0.05
						c0,0.02,0,0.03,0,0.04v0.01c0,0.02,0.01,0.04,0.01,0.06c0.02,0.08,0.05,0.17,0.08,0.24c-0.04,0.01-0.08,0.02-0.12,0.03
						c-0.23,0.07-0.48,0.17-0.75,0.31c-0.34,0.17-0.66,0.36-0.95,0.57c-0.29,0.21-0.5,0.39-0.62,0.56c-0.16,0.2-0.21,0.4-0.17,0.59
						c0.01,0.06,0.03,0.1,0.06,0.14s0.05,0.05,0.07,0.05c0.02-0.01,0.03-0.03,0.03-0.06c0-0.08,0.07-0.2,0.22-0.34
						c-0.14,0.41-0.28,0.89-0.42,1.43c-0.04,0.14-0.07,0.26-0.09,0.36c-0.03-0.24-0.06-0.51-0.08-0.77
						c-0.03-0.42-0.03-0.73-0.02-0.96c0-0.04-0.01-0.07-0.02-0.09c-0.05-0.08-0.15-0.13-0.3-0.16c-0.15-0.04-0.3-0.04-0.45-0.03
						c-0.15,0.01-0.24,0.04-0.28,0.1c-0.05,0.06-0.05,0.26-0.01,0.62s0.1,0.72,0.2,1.11c0.09,0.38,0.2,0.65,0.31,0.82
						c0.15,0.23,0.31,0.4,0.47,0.49c0.29,0.15,0.46,0.12,0.59-0.03c0,0,0.48-0.57,0.8-0.84c0.32-0.28,0.62-0.45,0.9-0.52
						c0.12-0.03,0.25-0.03,0.36-0.01c-0.13,0.37-0.35,0.78-0.68,1.21s-0.68,0.81-1.04,1.13c-0.37,0.32-0.66,0.51-0.89,0.56
						c-0.04,0.01-0.08,0.01-0.13,0.01c-0.06,0-0.08,0.03-0.07,0.09c0.02,0.08,0.09,0.19,0.2,0.31s0.24,0.23,0.38,0.31
						s0.27,0.11,0.38,0.09c0.21-0.05,0.5-0.26,0.86-0.62s0.68-0.77,0.97-1.24s0.45-0.9,0.5-1.27c0.03-0.18,0.01-0.36-0.03-0.56
						c-0.04-0.16-0.1-0.32-0.18-0.45s-0.14-0.21-0.18-0.22c-0.06-0.06-0.11-0.09-0.17-0.1c-0.14-0.02-0.28-0.01-0.43,0.03
						c-0.25,0.06-0.5,0.19-0.76,0.37s-0.5,0.39-0.72,0.62c0.08-0.4,0.18-0.78,0.29-1.13c0.11-0.36,0.21-0.62,0.32-0.8
						c0.01-0.02,0.01-0.05,0.01-0.07c-0.01-0.06-0.06-0.1-0.13-0.13c0.26-0.17,0.56-0.34,0.87-0.49c0.32-0.15,0.61-0.26,0.87-0.32
						c0.29-0.07,0.5-0.08,0.64-0.03C69.69,79.22,69.75,79.18,69.76,79.06z M70.7,77.8c-0.1-0.06-0.21-0.11-0.33-0.13
						s-0.19-0.03-0.24,0c-0.05,0.03-0.11,0.17-0.18,0.43s-0.12,0.53-0.16,0.83s-0.03,0.51,0.01,0.67c0.05,0.2,0.12,0.36,0.22,0.47
						c0.1,0.1,0.18,0.16,0.27,0.19c0.08,0.02,0.12,0.01,0.09-0.04c-0.04-0.11-0.03-0.31,0.02-0.58c0.05-0.27,0.12-0.56,0.22-0.87
						c0.09-0.3,0.18-0.53,0.25-0.68c0.01-0.03,0.01-0.06,0.01-0.07C70.86,77.93,70.8,77.86,70.7,77.8z"/>
				</g>
			</g>
		</g>
	</g>
</g>
</svg>
