<svg id="Layer_1" data-name="Layer 1" xmlns="http://www.w3.org/2000/svg" viewBox="0 0 424.61 511.45"><defs><style>.cls-1{fill:#001b3a;}.cls-2{fill:#ff5f57;}.cls-3{fill:#fff;}</style></defs><path className="cls-1" d="M424.82,212.5C424.82,95.25,329.77.19,212.52.19S.21,95.25.21,212.5A211.71,211.71,0,0,0,66.94,367L30.37,445.44l91.8-11.54,50.17,77.74,40.49-86.84c1.35,0,2.7,0,4-.05l40.52,86.89,50.16-77.74,91.81,11.54-38-81.55A211.62,211.62,0,0,0,424.82,212.5Zm-404.61,0c0-106.21,86.1-192.31,192.31-192.31s192.3,86.1,192.3,192.31a191.64,191.64,0,0,1-52.5,132l-51-109.43,1.92-4.12-4.91-2.29-29.8-63.91-53.63,25-53.63-25L131.43,228.7l-4.9,2.29,1.92,4.12L75.89,347.82A191.68,191.68,0,0,1,20.21,212.5Z" transform="translate(-0.21 -0.19)"/><path id="Path-Copy-2" className="cls-2" d="M404.82,212.5c0,106.21-86.09,192.31-192.3,192.31S20.21,318.71,20.21,212.5,106.31,20.19,212.52,20.19,404.82,106.29,404.82,212.5Z" transform="translate(-0.21 -0.19)"/><path id="Shape" className="cls-3" d="M200.68,169.31c2.08,1.15,3.23.92,3-.47-.23-3.46,1.15-8.76,4.6-16.37a205.93,205.93,0,0,1,12.21-23.07c4.61-7.84,8.53-13.84,11.75-17.53a3.73,3.73,0,0,0,.7-2.08c0-2.07-1.16-4.15-3.69-6.69A35.77,35.77,0,0,0,221,96.88c-3-1.62-5.3-2.31-6.69-1.85-1.61.46-4.14,4.15-8.06,11.07a170.86,170.86,0,0,0-10.13,22.61c-3,8.07-4.61,14.53-4.61,18.91,0,6.23.92,11.08,3,14.77S198.61,168.38,200.68,169.31Zm36.17-7.39c2.54,1.85,2.07.7,2.3-.46A83.81,83.81,0,0,1,247,136.55a203.53,203.53,0,0,1,12.21-23.07c4.61-7.84,12-16.84,12.44-19.83.69-3-1.15-4.16-3.69-6.69a35.33,35.33,0,0,0-8.29-6.23c-3-1.62-5.3-2.31-6.68-1.85-1.61.46-16.13,24.92-19.12,33.22C218.88,142.78,232.47,158.23,236.85,161.92Zm33.18,24a19.45,19.45,0,0,0,2.07-9.22,11.42,11.42,0,0,0-1.15-5.77A1.8,1.8,0,0,0,270,170a15.83,15.83,0,0,0-1.85-.93,23.21,23.21,0,0,1,1.61-3.45A203.57,203.57,0,0,1,282,142.55c4.6-7.84,8.52-13.84,11.74-17.53a3.74,3.74,0,0,0,.69-2.08c0-2.07-1.15-4.15-3.68-6.69a35.82,35.82,0,0,0-8.29-6.23c-2.31-1.15-4.15-1.84-5.53-1.84a1.75,1.75,0,0,0-1.16.23c-1.61.46-4.14,4.15-8.06,11.07a172.17,172.17,0,0,0-10.14,22.61c-.23.92-.69,1.61-.92,2.53,0,.24-.23.47-.23.7-.46,1.61-.92,3-1.38,4.61,0,.23-.23.46-.23.69a6.78,6.78,0,0,0-.46,2.08c0,.46-.23.92-.23,1.38a11.62,11.62,0,0,0-.46,2.77c0,.46-.23.92-.23,1.38s-.23.7-.23,1.16v1.84a61,61,0,0,0,.46,6.69h-3.23a144,144,0,0,0-21.88,3.23,210.19,210.19,0,0,0-28.8,8.54q-13.47,5.19-20,10.38c-5.53,4.15-8.3,9-8.3,14.07a9.81,9.81,0,0,0,.7,3.92c.46,1.15.92,1.61,1.61,1.84.69,0,.92-.46,1.15-1.38.46-2.08,3.23-4.61,8.06-7.38-6.45,9.69-13.13,21-20.27,33.91-1.84,3.23-3.46,6.22-4.61,8.76.69-6.46,1.62-13.38,3-20.3a180.54,180.54,0,0,1,5.76-24.68,4.68,4.68,0,0,0,0-2.54c-.92-2.3-3-4.38-6.91-6a41.84,41.84,0,0,0-11.52-3.69c-3.92-.7-6.68-.47-8.07.69-1.61,1.15-3,6.46-4.37,15.68a199.21,199.21,0,0,0-2.08,29.53c0,10.38.92,18,2.77,23.07,2.53,6.92,5.53,12.22,9.21,15.45,6.68,5.77,11.29,6,15.67,3,0,0,16.36-11.53,26.49-16.38,10.37-5.07,19.35-7.61,27.19-7.61a21,21,0,0,1,9.44,2.08c-5.76,8.76-14.28,17.76-25.8,26.75a215.8,215.8,0,0,1-34.79,22.38C152.3,307,143.32,310,136.87,310a17.85,17.85,0,0,1-3.46-.46c-1.61-.46-2.3.23-2.3,1.85,0,2.07,1.15,5.3,3.22,9.22A39.09,39.09,0,0,0,142.4,331c3.22,3,6.45,4.62,9.44,4.62,6,0,15-3.46,26.73-10.38a183.23,183.23,0,0,0,33.63-25.61c10.6-10.15,17.74-20.06,21.43-29.29a37.18,37.18,0,0,0,2.76-14.53,45.67,45.67,0,0,0-1.84-12.69c-1.15-3.92-2.31-6.23-3.23-6.69a8.55,8.55,0,0,0-3.91-3.69,30.94,30.94,0,0,0-11.52-2.08c-6.91,0-14.29,1.62-22.35,4.62a126.12,126.12,0,0,0-23,11.3c4.84-9.69,9.91-18.68,15-27,5.3-8.53,9.67-14.53,13.59-18.45a2.64,2.64,0,0,0,.69-1.85,5.16,5.16,0,0,0-2.53-4.15,203.79,203.79,0,0,1,26-6.92,131.43,131.43,0,0,1,24.88-2.77c8.06,0,13.59,1.16,17.05,3.23C267.26,189.37,268.87,188.68,270,185.91ZM303,159.62a26.71,26.71,0,0,0-7.83-5.54c-3-1.38-4.84-2.07-6.22-1.61s-3.92,3.69-7.61,9.92a184.2,184.2,0,0,0-9.67,20.29c-3,7.39-4.15,12.92-4.15,17.07,0,5.54.92,9.92,2.77,13.38,1.84,3.23,3.68,5.31,5.75,6.46,2.08.92,3,.92,2.77-.46-.23-3,1.15-8.07,4.38-14.76a189.34,189.34,0,0,1,11.52-20.76,126.38,126.38,0,0,1,11.05-15.92,3.67,3.67,0,0,0,.69-1.84Q306.42,162.73,303,159.62Z" transform="translate(-0.21 -0.19)"/></svg>