<svg width="350" height="348" viewBox="0 0 350 348" fill="none" xmlns="http://www.w3.org/2000/svg">
<path d="M336.985 173.985C336.985 263.447 264.462 335.97 175 335.97C85.5383 335.97 13.0151 263.447 13.0151 173.985C13.0151 84.5232 85.5383 12 175 12C264.462 12 336.985 84.5232 336.985 173.985Z" fill="#FF5F57"/>
<path d="M165.031 137.601C166.777 138.573 167.747 138.378 167.553 137.213C167.359 134.298 168.524 129.829 171.434 123.418C174.345 117.006 177.644 110.594 181.719 103.988C185.6 97.3816 188.899 92.3299 191.616 89.2211C192.004 88.6382 192.198 88.0553 192.198 87.4725C192.198 85.7238 191.228 83.9751 189.093 81.8378C186.958 79.7005 184.63 77.9519 182.107 76.5918C179.584 75.2317 177.644 74.6488 176.48 75.0374C175.121 75.426 172.987 78.5348 169.688 84.3637C166.583 90.1926 163.672 96.4102 161.15 103.405C158.627 110.205 157.269 115.646 157.269 119.337C157.269 124.583 158.045 128.664 159.791 131.772C161.538 134.881 163.284 136.824 165.031 137.601ZM195.497 131.384C197.631 132.938 197.243 131.967 197.437 130.995C198.019 128.275 198.602 121.28 204.035 110.011C206.946 103.599 210.245 97.1873 214.32 90.5812C218.201 83.9751 224.41 76.3975 224.798 73.8716C225.381 71.3457 223.828 70.3742 221.694 68.237C219.559 66.0997 217.23 64.351 214.708 62.9909C212.185 61.6308 210.245 61.0479 209.08 61.4365C207.722 61.8251 195.497 82.4207 192.974 89.4154C180.361 115.257 191.81 128.275 195.497 131.384ZM223.44 151.591C224.604 149.453 225.186 146.733 225.186 143.819C225.186 141.487 224.798 139.933 224.216 138.961C224.022 138.573 223.828 138.378 223.44 138.184C223.052 137.99 222.47 137.601 221.888 137.407C222.276 136.436 222.664 135.464 223.246 134.493C226.157 128.081 229.456 121.669 233.531 115.063C237.412 108.457 240.711 103.405 243.427 100.296C243.815 99.7132 244.009 99.1303 244.009 98.5474C244.009 96.7987 243.039 95.0501 240.905 92.9128C238.77 90.7755 236.441 89.0268 233.919 87.6668C231.978 86.6953 230.426 86.1124 229.262 86.1124C228.873 86.1124 228.485 86.1124 228.291 86.3067C226.933 86.6953 224.798 89.804 221.5 95.633C218.395 101.462 215.484 107.679 212.961 114.674C212.767 115.451 212.379 116.034 212.185 116.811C212.185 117.006 211.991 117.2 211.991 117.394C211.603 118.754 211.215 119.92 210.827 121.28C210.827 121.475 210.633 121.669 210.633 121.863C210.439 122.446 210.245 123.029 210.245 123.612C210.245 124 210.05 124.389 210.05 124.778C209.856 125.555 209.662 126.332 209.662 127.109C209.662 127.498 209.468 127.886 209.468 128.275C209.468 128.664 209.274 128.858 209.274 129.246V129.441C209.274 129.829 209.274 130.412 209.274 130.801C209.274 132.744 209.468 134.687 209.662 136.436C208.692 136.436 207.722 136.436 206.946 136.436C201.512 136.824 195.303 137.601 188.511 139.156C179.973 141.099 171.822 143.43 164.254 146.345C156.686 149.259 151.059 152.174 147.372 155.088C142.715 158.585 140.386 162.666 140.386 166.94C140.386 168.3 140.58 169.272 140.968 170.243C141.356 171.215 141.745 171.603 142.327 171.798C142.909 171.798 143.103 171.409 143.297 170.632C143.685 168.883 146.014 166.746 150.089 164.414C144.655 172.575 139.028 182.096 133.012 192.976C131.46 195.696 130.101 198.222 129.131 200.359C129.713 194.919 130.49 189.09 131.654 183.261C133.206 174.129 134.953 167.329 136.505 162.471C136.699 161.5 136.699 160.917 136.505 160.334C135.729 158.391 133.982 156.642 130.684 155.282C127.579 153.728 124.28 152.757 120.981 152.174C117.682 151.591 115.354 151.785 114.189 152.757C112.831 153.728 111.667 158.197 110.502 165.969C109.338 173.741 108.756 182.096 108.756 190.839C108.756 199.582 109.532 205.994 111.084 210.269C113.219 216.098 115.742 220.566 118.847 223.287C124.474 228.144 128.355 228.338 132.042 225.813C132.042 225.813 145.82 216.098 154.358 212.017C163.09 207.743 170.658 205.606 177.256 205.606C180.167 205.606 182.883 206.188 185.212 207.354C180.361 214.738 173.181 222.315 163.478 229.893C153.776 237.47 144.073 243.688 134.177 248.74C124.28 253.597 116.712 256.123 111.279 256.123C110.308 256.123 109.338 255.929 108.368 255.734C107.009 255.346 106.427 255.929 106.427 257.289C106.427 259.037 107.397 261.758 109.144 265.061C110.89 268.364 113.219 271.278 115.936 273.804C118.652 276.33 121.369 277.69 123.892 277.69C128.937 277.69 136.505 274.776 146.402 268.947C156.298 263.118 165.807 255.929 174.733 247.38C183.66 238.83 189.675 230.476 192.78 222.704C194.332 219.012 195.109 214.932 195.109 210.463C195.109 206.771 194.526 203.08 193.556 199.777C192.586 196.474 191.616 194.531 190.839 194.142C189.869 192.588 188.899 191.616 187.541 191.033C184.63 189.867 181.331 189.285 177.838 189.285C172.017 189.285 165.807 190.645 159.015 193.17C152.223 195.696 145.82 198.805 139.61 202.691C143.685 194.531 147.954 186.953 152.223 179.958C156.686 172.769 160.373 167.717 163.672 164.414C164.06 164.026 164.254 163.443 164.254 162.86C164.254 161.5 163.478 160.334 162.12 159.363C168.912 157.031 176.286 155.088 184.048 153.534C192.004 151.979 198.99 151.202 205.005 151.202C211.797 151.202 216.454 152.174 219.365 153.922C221.111 154.505 222.47 153.922 223.44 151.591ZM251.189 129.441C249.249 127.498 247.114 125.943 244.592 124.778C242.069 123.612 240.517 123.029 239.352 123.418C238.188 123.806 236.053 126.526 232.949 131.772C230.038 137.018 227.321 142.653 224.798 148.871C222.276 155.088 221.305 159.751 221.305 163.249C221.305 167.912 222.082 171.603 223.634 174.518C225.186 177.238 226.739 178.987 228.485 179.958C230.232 180.735 231.008 180.735 230.814 179.57C230.62 177.044 231.784 172.769 234.501 167.135C237.218 161.5 240.322 155.671 244.204 149.648C247.89 143.625 250.995 139.156 253.518 136.241C253.906 135.658 254.1 135.075 254.1 134.687C254.1 132.938 253.13 131.189 251.189 129.441Z" fill="white"/>
</svg>
