<?xml version="1.0" encoding="UTF-8"?>
<svg width="324px" height="324px" viewBox="0 0 324 324" version="1.1" xmlns="http://www.w3.org/2000/svg" xmlns:xlink="http://www.w3.org/1999/xlink">
    <!-- Generator: Sketch 64 (93537) - https://sketch.com -->
    <title>high5-mark-circle</title>
    <desc>Created with Sketch.</desc>
    <g id="Page-1" stroke="none" stroke-width="1" fill="none" fill-rule="evenodd">
        <g id="high5-mark-circle" fill-rule="nonzero">
            <path d="M323.985,161.985 C323.985,251.447 251.462,323.97 162,323.97 C72.5383,323.97 0.0151,251.447 0.0151,161.985 C0.0151,72.5232 72.5383,0 162,0 C251.462,0 323.985,72.5232 323.985,161.985 Z" id="Path" fill="#001B38"></path>
            <path d="M152.031,125.601 C153.777,126.573 154.747,126.378 154.553,125.213 C154.359,122.298 155.524,117.829 158.434,111.418 C161.345,105.006 164.644,98.594 168.719,91.988 C172.6,85.3816 175.899,80.3299 178.616,77.2211 C179.004,76.6382 179.198,76.0553 179.198,75.4725 C179.198,73.7238 178.228,71.9751 176.093,69.8378 C173.958,67.7005 171.63,65.9519 169.107,64.5918 C166.584,63.2317 164.644,62.6488 163.48,63.0374 C162.121,63.426 159.987,66.5348 156.688,72.3637 C153.583,78.1926 150.672,84.4102 148.15,91.405 C145.627,98.205 144.269,103.646 144.269,107.337 C144.269,112.583 145.045,116.664 146.791,119.772 C148.538,122.881 150.284,124.824 152.031,125.601 Z M182.497,119.384 C184.631,120.938 184.243,119.967 184.437,118.995 C185.019,116.275 185.602,109.28 191.035,98.011 C193.946,91.599 197.245,85.1873 201.32,78.5812 C205.201,71.9751 211.41,64.3975 211.798,61.8716 C212.381,59.3457 210.828,58.3742 208.694,56.237 C206.559,54.0997 204.23,52.351 201.708,50.9909 C199.185,49.6308 197.245,49.0479 196.08,49.4365 C194.722,49.8251 182.497,70.4207 179.974,77.4154 C167.361,103.257 178.81,116.275 182.497,119.384 Z M210.44,139.591 C211.604,137.453 212.186,134.733 212.186,131.819 C212.186,129.487 211.798,127.933 211.216,126.961 C211.022,126.573 210.828,126.378 210.44,126.184 C210.052,125.99 209.47,125.601 208.888,125.407 C209.276,124.436 209.664,123.464 210.246,122.493 C213.157,116.081 216.456,109.669 220.531,103.063 C224.412,96.457 227.711,91.405 230.427,88.296 C230.815,87.7132 231.009,87.1303 231.009,86.5474 C231.009,84.7987 230.039,83.0501 227.905,80.9128 C225.77,78.7755 223.441,77.0268 220.919,75.6668 C218.978,74.6953 217.426,74.1124 216.262,74.1124 C215.873,74.1124 215.485,74.1124 215.291,74.3067 C213.933,74.6953 211.798,77.804 208.5,83.633 C205.395,89.462 202.484,95.679 199.961,102.674 C199.767,103.451 199.379,104.034 199.185,104.811 C199.185,105.006 198.991,105.2 198.991,105.394 C198.603,106.754 198.215,107.92 197.827,109.28 C197.827,109.475 197.633,109.669 197.633,109.863 C197.439,110.446 197.245,111.029 197.245,111.612 C197.245,112 197.05,112.389 197.05,112.778 C196.856,113.555 196.662,114.332 196.662,115.109 C196.662,115.498 196.468,115.886 196.468,116.275 C196.468,116.664 196.274,116.858 196.274,117.246 L196.274,117.441 C196.274,117.829 196.274,118.412 196.274,118.801 C196.274,120.744 196.468,122.687 196.662,124.436 C195.692,124.436 194.722,124.436 193.946,124.436 C188.512,124.824 182.303,125.601 175.511,127.156 C166.973,129.099 158.822,131.43 151.254,134.345 C143.686,137.259 138.059,140.174 134.372,143.088 C129.715,146.585 127.386,150.666 127.386,154.94 C127.386,156.3 127.58,157.272 127.968,158.243 C128.356,159.215 128.745,159.603 129.327,159.798 C129.909,159.798 130.103,159.409 130.297,158.632 C130.685,156.883 133.014,154.746 137.089,152.414 C131.655,160.575 126.028,170.096 120.012,180.976 C118.46,183.696 117.101,186.222 116.131,188.359 C116.713,182.919 117.49,177.09 118.654,171.261 C120.206,162.129 121.953,155.329 123.505,150.471 C123.699,149.5 123.699,148.917 123.505,148.334 C122.729,146.391 120.982,144.642 117.684,143.282 C114.579,141.728 111.28,140.757 107.981,140.174 C104.682,139.591 102.354,139.785 101.189,140.757 C99.831,141.728 98.667,146.197 97.502,153.969 C96.338,161.741 95.756,170.096 95.756,178.839 C95.756,187.582 96.532,193.994 98.084,198.269 C100.219,204.098 102.742,208.566 105.847,211.287 C111.474,216.144 115.355,216.338 119.042,213.813 C119.042,213.813 132.82,204.098 141.358,200.017 C150.09,195.743 157.658,193.606 164.256,193.606 C167.167,193.606 169.883,194.188 172.212,195.354 C167.361,202.738 160.181,210.315 150.478,217.893 C140.776,225.47 131.073,231.688 121.177,236.74 C111.28,241.597 103.712,244.123 98.279,244.123 C97.308,244.123 96.338,243.929 95.368,243.734 C94.009,243.346 93.427,243.929 93.427,245.289 C93.427,247.037 94.397,249.758 96.144,253.061 C97.89,256.364 100.219,259.278 102.936,261.804 C105.652,264.33 108.369,265.69 110.892,265.69 C115.937,265.69 123.505,262.776 133.402,256.947 C143.298,251.118 152.807,243.929 161.733,235.38 C170.66,226.83 176.675,218.476 179.78,210.704 C181.332,207.012 182.109,202.932 182.109,198.463 C182.109,194.771 181.526,191.08 180.556,187.777 C179.586,184.474 178.616,182.531 177.839,182.142 C176.869,180.588 175.899,179.616 174.541,179.033 C171.63,177.867 168.331,177.285 164.838,177.285 C159.017,177.285 152.807,178.645 146.015,181.17 C139.223,183.696 132.82,186.805 126.61,190.691 C130.685,182.531 134.954,174.953 139.223,167.958 C143.686,160.769 147.373,155.717 150.672,152.414 C151.06,152.026 151.254,151.443 151.254,150.86 C151.254,149.5 150.478,148.334 149.12,147.363 C155.912,145.031 163.286,143.088 171.048,141.534 C179.004,139.979 185.99,139.202 192.005,139.202 C198.797,139.202 203.454,140.174 206.365,141.922 C208.111,142.505 209.47,141.922 210.44,139.591 Z M238.189,117.441 C236.249,115.498 234.114,113.943 231.592,112.778 C229.069,111.612 227.517,111.029 226.352,111.418 C225.188,111.806 223.053,114.526 219.949,119.772 C217.038,125.018 214.321,130.653 211.798,136.871 C209.276,143.088 208.305,147.751 208.305,151.249 C208.305,155.912 209.082,159.603 210.634,162.518 C212.186,165.238 213.739,166.987 215.485,167.958 C217.232,168.735 218.008,168.735 217.814,167.57 C217.62,165.044 218.784,160.769 221.501,155.135 C224.218,149.5 227.322,143.671 231.204,137.648 C234.89,131.625 237.995,127.156 240.518,124.241 C240.906,123.658 241.1,123.075 241.1,122.687 C241.1,120.938 240.13,119.189 238.189,117.441 Z" id="Shape" fill="#FFFFFF"></path>
        </g>
    </g>
</svg>