<svg id="Capa_1" enable-background="new 0 0 512 512" height="512" viewBox="0 0 512 512" width="512" xmlns="http://www.w3.org/2000/svg"><g><g><path d="m348.877 113.373v25.218c0 4.618 2.757 8.743 7.022 10.51 4.327 1.792 9.18.752 12.399-2.466l31.662-31.663h79.941c16.261 0 29.489-13.229 29.489-29.489v-55.994c0-16.26-13.228-29.489-29.489-29.489h-121.443c-16.261 0-29.489 13.229-29.489 29.489v55.993c-.001 12.645 8.184 23.853 19.908 27.891zm-4.915-83.884c0-7.993 6.503-14.496 14.496-14.496h121.444c7.993 0 14.496 6.503 14.496 14.496v55.993c0 7.993-6.503 14.496-14.496 14.496h-81.718c-2.856 0-5.542 1.112-7.568 3.133l-26.745 26.746v-19.742c0-5.027-3.544-9.423-8.428-10.453-6.652-1.403-11.48-7.367-11.48-14.179v-55.994z"/><path d="m491.982 440.018h-14.258v-235.802c0-15.54-12.642-28.182-28.182-28.182h-140.264c-4.141 0-7.497 3.356-7.497 7.497s3.356 7.497 7.497 7.497h140.263c7.272 0 13.189 5.916 13.189 13.189v235.802h-24.989v-202.773c0-11.705-9.523-21.228-21.228-21.228h-153.142c2.2-5.723 3.719-11.789 4.415-18.112 7.964-1.755 13.941-8.869 13.941-17.354 0-6.857 0-58.636 0-64.807 0-14.814-11.988-26.881-26.773-27.007-.479-14.475-12.404-26.102-26.993-26.102h-67.236c-28.894 0-52.401 23.507-52.401 52.401v65.515c0 8.485 5.977 15.599 13.942 17.354.696 6.324 2.215 12.389 4.415 18.112h-31.194c-11.705 0-21.228 9.523-21.228 21.228v61.239c-9.822 3.687-18.355 9.797-24.989 17.511v-111.78c0-7.272 5.916-13.189 13.189-13.189h18.694c4.141 0 7.497-3.356 7.497-7.497s-3.356-7.497-7.497-7.497h-18.694c-15.54 0-28.182 12.642-28.182 28.182v151.9 83.902h-14.259c-10.977 0-19.907 8.931-19.907 19.907 0 28.716 23.36 52.076 52.074 52.076h407.63c28.714 0 52.074-23.36 52.074-52.074 0-10.977-8.931-19.908-19.907-19.908zm-75.469-209.007c3.438 0 6.235 2.797 6.235 6.235v202.773h-66.945v-27.468c0-4.141-3.356-7.497-7.497-7.497s-7.497 3.356-7.497 7.497v27.468h-35.992v-23.789c0-4.141-3.356-7.497-7.497-7.497s-7.497 3.356-7.497 7.497v23.789h-60.98l-16.163-91.141 6.202-11.113c1.197.262 2.412.409 3.63.409 4.281 0 8.559-1.615 11.897-4.822l27.83-27.101c1.994-1.941 3.382-4.303 4.174-6.827l40.959 12.024c19.688 5.78 33.438 24.148 33.438 44.666v21.39c0 4.141 3.356 7.497 7.497 7.497s7.497-3.356 7.497-7.497v-21.39c0-27.127-18.179-51.41-44.208-59.053l-49.473-14.524c-1.362-1.301-2.939-2.37-4.671-3.141l-10.24-4.562c-3.017-1.345-6.249-1.892-9.422-1.687v-23.967c6.896-4.98 12.899-11.128 17.712-18.168h161.011zm-277.474 61.988 10.044-4.51c1.65-.74 3.574-.528 5.023.555l29.588 22.108-14.533 12.139c-.824.691-2.023.651-2.8-.085l-27.764-27.806v-.001c-.747-.746-.474-1.989.442-2.4zm83.756-35.466v22.894l-27.095 20.981-28.442-21.252v-22.622c17.56 7.234 37.481 7.438 55.537-.001zm28.554 35.559c.922.408 1.198 1.668.43 2.417l-27.793 27.064c-.787.757-2.004.792-2.833.083-.001 0-.001 0-.001 0l-13.499-11.543 28.379-21.974c1.451-1.126 3.397-1.359 5.076-.611zm-61.794 46.969-5.589-9.599 11.757-9.821 10.524 8.999-5.815 10.421zm1.975 14.993h7.018l15.068 84.964h-37.146zm131.258 99.958c-3.027 7.882-10.656 13.501-19.59 13.501h-94.397c-8.934 0-16.563-5.619-19.59-13.501zm-199.47-339.975c0-20.627 16.781-37.408 37.408-37.408h67.236c6.625 0 12.014 5.389 12.014 12.014 0 7.767 6.32 14.087 14.087 14.087h.657c6.625 0 12.014 5.389 12.014 12.014v35.109h-5.985c-3.352 0-6.079-2.727-6.079-6.079v-7.43c0-14.891-14.537-25.398-28.679-20.726-19.961 6.597-41.946 6.599-61.907.005-.023-.008-.054-.018-.084-.027-14.104-4.615-28.617 5.856-28.617 20.746v7.433c0 3.352-2.727 6.079-6.08 6.079h-5.985zm0 65.515v-14.705h5.985c11.62 0 21.074-9.453 21.074-21.073v-7.433c0-4.666 4.561-7.954 8.978-6.49.022.008.051.017.079.025 22.981 7.579 48.289 7.572 71.262-.022 4.416-1.463 8.98 1.818 8.98 6.49v7.43c0 11.62 9.453 21.073 21.073 21.073h5.985v14.705c0 1.531-1.245 2.775-2.774 2.775-5.716 0-10.479 4.485-10.842 10.213-1.927 30.561-27.443 54.501-58.091 54.501s-56.164-23.94-58.092-54.5c-.36-5.728-5.122-10.214-10.841-10.214-1.531 0-2.776-1.245-2.776-2.775zm-27.831 50.459h39.065c4.813 7.04 10.816 13.188 17.711 18.168v23.921c-3.148-.181-6.346.376-9.322 1.712l-10.044 4.509c-1.719.772-3.285 1.838-4.639 3.134l-39.006 11.449v-56.657c.001-3.439 2.797-6.236 6.235-6.236zm-46.217 125.105c0-20.52 13.751-38.887 33.441-44.667l1.22-.358c.028-.008.055-.016.083-.024l39.927-11.719c.778 2.433 2.123 4.72 4.046 6.647v-.001l27.816 27.858c.025.025.05.05.075.074 3.319 3.231 7.618 4.865 11.931 4.865 1.154 0 2.307-.132 3.444-.366l6.132 10.531-16.141 91.063h-61.014v-23.789c0-4.141-3.356-7.497-7.497-7.497s-7.497 3.356-7.497 7.497v23.789h-35.966zm410.545 140.891h-407.63c-20.446 0-37.081-16.634-37.081-37.081 0-2.71 2.204-4.914 4.914-4.914h153.583c3.459 16.259 17.925 28.494 35.2 28.494h94.397c17.275 0 31.741-12.235 35.2-28.494h153.583c2.71 0 4.914 2.204 4.914 4.914.001 20.446-16.634 37.081-37.08 37.081z"/></g></g></svg>