<svg width="151" height="69" viewBox="0 0 151 69" fill="none" xmlns="http://www.w3.org/2000/svg">
<path fill-rule="evenodd" clip-rule="evenodd" d="M55.2306 67.2381C63.5371 67.2381 70.0865 61.0116 70.0865 52.2706C70.0865 51.9912 70.0865 51.7118 70.0466 51.4324V51.2727C70.0067 50.5144 69.4076 49.9556 68.6488 49.9556H55.4702C54.7114 49.9556 54.0725 50.5942 54.0725 51.3526V54.1465C54.0725 54.9049 54.7114 55.5435 55.4702 55.5435H63.8167C62.6186 59.3352 59.3839 61.5305 55.2306 61.5305C49.7594 61.5305 46.1653 57.6988 46.1653 52.2706C46.1653 46.8823 49.7594 43.0107 55.2306 43.0107C58.6251 43.0107 61.141 44.3278 62.8982 46.9621C63.1378 47.3612 63.5771 47.6007 64.0563 47.6007H67.4109C68.2096 47.6007 68.8086 47.002 68.8086 46.2437C68.8086 45.0064 67.0514 42.8111 65.9732 41.6936C63.1777 38.7799 59.5436 37.3031 55.2306 37.3031C46.7244 37.3031 40.3746 43.809 40.3746 52.2706C40.3746 60.7721 46.7244 67.2381 55.2306 67.2381ZM5.79062 65.6016C5.79062 66.36 5.15166 66.9986 4.39289 66.9986H1.39774C0.638965 66.9986 0 66.36 0 65.6016V39.0992C0 38.3409 0.638965 37.7023 1.39774 37.7023H4.39289C5.15166 37.7023 5.79062 38.3409 5.79062 39.0992V49.4767H18.4501V39.0992C18.4501 38.3409 19.0492 37.7023 19.8079 37.7023H22.843C23.6018 37.7023 24.2008 38.3409 24.2008 39.0992V65.6016C24.2008 66.36 23.6018 66.9986 22.843 66.9986H19.8079C19.0492 66.9986 18.4501 66.36 18.4501 65.6016V55.1843H5.79062V65.6016ZM36.3811 65.6016C36.3811 66.36 35.7421 66.9986 34.9834 66.9986H31.9882C31.2294 66.9986 30.5905 66.36 30.5905 65.6016V39.0992C30.5905 38.3409 31.2294 37.7023 31.9882 37.7023H34.9834C35.7421 37.7023 36.3811 38.3409 36.3811 39.0992V65.6016ZM79.4714 65.6016C79.4714 66.36 78.8324 66.9986 78.0736 66.9986H75.0785C74.3197 66.9986 73.6807 66.36 73.6807 65.6016V39.0992C73.6807 38.3409 74.3197 37.7023 75.0785 37.7023H78.0736C78.8324 37.7023 79.4714 38.3409 79.4714 39.0992V49.4767H92.1309V39.0992C92.1309 38.3409 92.7299 37.7023 93.4887 37.7023H96.5237C97.2825 37.7023 97.8815 38.3409 97.8815 39.0992V65.6016C97.8815 66.36 97.2825 66.9986 96.5237 66.9986H93.4887C92.7299 66.9986 92.1309 66.36 92.1309 65.6016V55.1843H79.4714V65.6016Z" fill="#001B38"/>
<path fill-rule="evenodd" clip-rule="evenodd" d="M132.67 22.0633C132.648 22.2957 132.635 22.4339 132.079 22.0302C130.917 21.0527 127.552 17.0818 131.528 8.95656C132.324 6.75725 133.241 4.80232 134.22 2.96956C135.26 1.13681 135.933 0.159343 136.361 0.0371591C136.728 -0.0850244 137.34 0.0982508 138.135 0.525893C138.931 0.953535 139.665 1.50336 140.338 2.17537C141.011 2.84738 141.317 3.39721 141.317 3.94703C141.317 4.13031 141.255 4.31358 141.133 4.55795C140.277 5.53542 139.237 7.1238 138.013 9.20092C136.728 11.278 135.688 13.2941 134.771 15.3101C133.318 18.3142 132.966 20.3522 132.78 21.4242L132.78 21.4242L132.78 21.4243C132.747 21.6166 132.719 21.7779 132.691 21.908C132.68 21.9612 132.675 22.0143 132.67 22.0633ZM123.27 23.8629C123.331 24.2295 123.025 24.2906 122.474 23.9851C121.924 23.7408 121.373 23.1298 120.822 22.1524C120.272 21.1749 120.027 19.892 120.027 18.2425C120.027 17.0818 120.455 15.3712 121.251 13.233C122.046 11.0337 122.964 9.07874 123.942 7.24599C124.982 5.41323 125.655 4.43577 126.084 4.31358C126.451 4.1914 127.062 4.37467 127.858 4.80232C128.653 5.22996 129.387 5.77978 130.06 6.45179C130.733 7.1238 131.039 7.67363 131.039 8.22345C131.039 8.40673 130.978 8.59 130.855 8.77328C129.999 9.75075 128.959 11.3391 127.735 13.4163C126.451 15.4934 125.411 17.5094 124.493 19.5254C123.575 21.5415 123.208 22.9466 123.27 23.8629ZM140.888 28.3837C141.255 27.7117 141.439 26.8564 141.439 25.94C141.439 25.2069 141.316 24.7182 141.133 24.4128C141.072 24.2906 141.011 24.2295 140.888 24.1684C140.851 24.1499 140.808 24.1258 140.762 24.0995C140.655 24.0389 140.527 23.9666 140.399 23.924L140.399 23.9239C140.521 23.6185 140.644 23.3131 140.827 23.0076C141.745 20.9916 142.785 18.9756 144.069 16.8985C145.293 14.8213 146.333 13.233 147.189 12.2555C147.312 12.0722 147.373 11.8889 147.373 11.7057C147.373 11.1558 147.067 10.606 146.394 9.93401C145.721 9.262 144.987 8.71217 144.192 8.28453C143.58 7.97907 143.091 7.7958 142.723 7.7958C142.601 7.7958 142.479 7.7958 142.418 7.85689C141.989 7.97907 141.316 8.95654 140.276 10.7893C139.298 12.622 138.38 14.577 137.585 16.7763C137.554 16.8985 137.508 17.0054 137.462 17.1123L137.462 17.1124C137.416 17.2192 137.371 17.3261 137.34 17.4483C137.34 17.4788 137.325 17.5094 137.309 17.5399C137.294 17.5705 137.279 17.601 137.279 17.6316C137.218 17.8454 137.156 18.0439 137.095 18.2424L137.095 18.2425C137.034 18.441 136.973 18.6396 136.912 18.8534C136.912 18.8839 136.896 18.9145 136.881 18.945C136.866 18.9756 136.851 19.0061 136.851 19.0367C136.789 19.22 136.728 19.4032 136.728 19.5865C136.728 19.6476 136.713 19.7087 136.698 19.7698C136.682 19.8309 136.667 19.892 136.667 19.9531C136.606 20.1974 136.545 20.4418 136.545 20.6862C136.545 20.7472 136.529 20.8083 136.514 20.8694C136.499 20.9305 136.484 20.9916 136.484 21.0527C136.484 21.1138 136.468 21.1596 136.453 21.2054C136.438 21.2513 136.422 21.2971 136.422 21.3582V21.4193V21.8469C136.422 22.4578 136.484 23.0687 136.545 23.6186H135.688C133.975 23.7407 132.018 23.9851 129.877 24.4738C127.185 25.0848 124.615 25.8179 122.23 26.7342C119.844 27.6506 118.07 28.567 116.907 29.4834C115.439 30.583 114.705 31.8659 114.705 33.21C114.705 33.6376 114.766 33.9431 114.888 34.2485C115.011 34.554 115.133 34.6762 115.317 34.7373C115.5 34.7373 115.561 34.6151 115.623 34.3707C115.745 33.8209 116.479 33.1489 117.764 32.4158C116.051 34.9816 114.277 37.9751 112.38 41.3963C111.891 42.2515 111.463 43.0457 111.157 43.7177C111.34 42.0072 111.585 40.1744 111.952 38.3417C112.441 35.4704 112.992 33.3321 113.481 31.8049C113.543 31.4994 113.543 31.3161 113.481 31.1328C113.237 30.5219 112.686 29.9721 111.646 29.5445C110.667 29.0557 109.627 28.7503 108.587 28.567C107.547 28.3837 106.813 28.4448 106.446 28.7503C106.018 29.0557 105.651 30.4608 105.284 32.9045C104.917 35.3482 104.733 37.9751 104.733 40.7242C104.733 43.4734 104.978 45.4894 105.467 46.8334C106.14 48.6662 106.936 50.0713 107.914 50.9266C109.689 52.4539 110.912 52.515 112.074 51.7208C112.074 51.7208 116.418 48.6662 119.11 47.3833C121.863 46.0392 124.248 45.3672 126.328 45.3672C127.246 45.3672 128.102 45.5505 128.837 45.917C127.307 48.2385 125.044 50.6211 121.985 53.0037C118.926 55.3863 115.867 57.3412 112.747 58.9296C109.627 60.4569 107.241 61.2511 105.529 61.2511C105.223 61.2511 104.917 61.19 104.611 61.1289C104.183 61.0067 103.999 61.19 103.999 61.6176C103.999 62.1674 104.305 63.0227 104.856 64.0613C105.406 65.0999 106.14 66.0162 106.997 66.8104C107.853 67.6046 108.71 68.0323 109.505 68.0323C111.096 68.0323 113.481 67.1159 116.601 65.2831C119.721 63.4504 122.719 61.19 125.533 58.5019C128.347 55.8139 130.244 53.187 131.222 50.7433C131.712 49.5826 131.957 48.2996 131.957 46.8945C131.957 45.7338 131.773 44.573 131.467 43.5345C131.161 42.4959 130.855 41.885 130.611 41.7628C130.305 41.2741 129.999 40.9686 129.571 40.7853C128.653 40.4188 127.613 40.2355 126.512 40.2355C124.677 40.2355 122.719 40.6632 120.578 41.4573C118.437 42.2515 116.418 43.229 114.46 44.4508C115.745 41.885 117.091 39.5024 118.437 37.3031C119.844 35.0427 121.006 33.4543 122.046 32.4158C122.168 32.2936 122.23 32.1103 122.23 31.927C122.23 31.4994 121.985 31.1328 121.557 30.8274C123.698 30.0943 126.022 29.4834 128.469 28.9946C130.978 28.5059 133.18 28.2615 135.076 28.2615C137.218 28.2615 138.686 28.567 139.604 29.1168C140.154 29.3001 140.582 29.1168 140.888 28.3837ZM147.556 19.9531C148.352 20.3196 149.025 20.8084 149.636 21.4193C150.248 21.9691 150.554 22.5189 150.554 23.0687C150.554 23.1909 150.493 23.3742 150.37 23.5575C149.575 24.4739 148.596 25.879 147.434 27.7728C146.21 29.6667 145.232 31.4994 144.375 33.2711C143.519 35.0427 143.152 36.3867 143.213 37.1809C143.274 37.5475 143.029 37.5475 142.479 37.3031C141.928 36.9977 141.439 36.4478 140.949 35.5926C140.46 34.6762 140.215 33.5154 140.215 32.0492C140.215 30.9496 140.521 29.4834 141.316 27.5284C142.112 25.5735 142.968 23.8018 143.886 22.1524C144.865 20.5029 145.538 19.6476 145.905 19.5254C146.272 19.4032 146.761 19.5865 147.556 19.9531Z" fill="white"/>
</svg>
