<?xml version="1.0" encoding="UTF-8"?>
<svg width="247px" height="112px" viewBox="0 0 247 112" version="1.1" xmlns="http://www.w3.org/2000/svg" xmlns:xlink="http://www.w3.org/1999/xlink">
    <!-- Generator: Sketch 63.1 (92452) - https://sketch.com -->
    <title>high5-std</title>
    <desc>Created with Sketch.</desc>
    <g id="Page-1" stroke="none" stroke-width="1" fill="none" fill-rule="evenodd">
        <g id="Desktop-HD" transform="translate(-1311.000000, -103.000000)" fill-rule="nonzero">
            <g id="high5-std" transform="translate(1311.000000, 103.000000)">
                <path d="M7.18074255,109.608 C8.42105263,109.608 9.46552428,108.562667 9.46552428,107.321333 L9.46552428,90.2693333 L30.1591187,90.2693333 L30.1591187,107.321333 C30.1591187,108.562667 31.1383109,109.608 32.378621,109.608 L37.3398613,109.608 C38.5801714,109.608 39.5593635,108.562667 39.5593635,107.321333 L39.5593635,63.94 C39.5593635,62.6986667 38.5801714,61.6533333 37.3398613,61.6533333 L32.378621,61.6533333 C31.1383109,61.6533333 30.1591187,62.6986667 30.1591187,63.94 L30.1591187,80.9266667 L9.46552428,80.9266667 L9.46552428,63.94 C9.46552428,62.6986667 8.42105263,61.6533333 7.18074255,61.6533333 L2.28478172,61.6533333 C1.04447164,61.6533333 0,62.6986667 0,63.94 L0,107.321333 C0,108.562667 1.04447164,109.608 2.28478172,109.608 L7.18074255,109.608 Z M57.1848225,109.608 C58.4251326,109.608 59.4696042,108.562667 59.4696042,107.321333 L59.4696042,63.94 C59.4696042,62.6986667 58.4251326,61.6533333 57.1848225,61.6533333 L52.2888617,61.6533333 C51.0485516,61.6533333 50.00408,62.6986667 50.00408,63.94 L50.00408,107.321333 C50.00408,108.562667 51.0485516,109.608 52.2888617,109.608 L57.1848225,109.608 Z M90.2815177,110 C103.859649,110 114.565483,99.808 114.565483,85.5 C114.565483,85.0426667 114.565483,84.5853333 114.500204,84.128 L114.500204,83.8666667 C114.434925,82.6253333 113.455732,81.7106667 112.215422,81.7106667 L90.6731946,81.7106667 C89.4328845,81.7106667 88.3884129,82.756 88.3884129,83.9973333 L88.3884129,88.5706667 C88.3884129,89.812 89.4328845,90.8573333 90.6731946,90.8573333 L104.316605,90.8573333 C102.358221,97.064 97.0705834,100.657333 90.2815177,100.657333 C81.3382293,100.657333 75.4630763,94.3853333 75.4630763,85.5 C75.4630763,76.68 81.3382293,70.3426667 90.2815177,70.3426667 C95.8302734,70.3426667 99.9428805,72.4986667 102.815177,76.8106667 C103.206854,77.464 103.924929,77.856 104.708282,77.856 L110.191758,77.856 C111.497348,77.856 112.47654,76.876 112.47654,75.6346667 C112.47654,73.6093333 109.604243,70.016 107.841697,68.1866667 C103.272134,63.4173333 97.3317013,61 90.2815177,61 C76.376989,61 65.997552,71.6493333 65.997552,85.5 C65.997552,99.416 76.376989,110 90.2815177,110 Z M127.621379,109.608 C128.861689,109.608 129.906161,108.562667 129.906161,107.321333 L129.906161,90.2693333 L150.599755,90.2693333 L150.599755,107.321333 C150.599755,108.562667 151.578947,109.608 152.819257,109.608 L157.780498,109.608 C159.020808,109.608 160,108.562667 160,107.321333 L160,63.94 C160,62.6986667 159.020808,61.6533333 157.780498,61.6533333 L152.819257,61.6533333 C151.578947,61.6533333 150.599755,62.6986667 150.599755,63.94 L150.599755,80.9266667 L129.906161,80.9266667 L129.906161,63.94 C129.906161,62.6986667 128.861689,61.6533333 127.621379,61.6533333 L122.725418,61.6533333 C121.485108,61.6533333 120.440636,62.6986667 120.440636,63.94 L120.440636,107.321333 C120.440636,108.562667 121.485108,109.608 122.725418,109.608 L127.621379,109.608 Z" id="high" fill="#001B38"></path>
                <path d="M200.2,39.260825 C201.1,39.760825 201.6,39.660825 201.5,39.060825 C201.4,37.560825 202,35.260825 203.5,31.960825 C205,28.660825 206.7,25.360825 208.8,21.960825 C210.8,18.560825 212.5,15.960825 213.9,14.360825 C214.1,14.060825 214.2,13.760825 214.2,13.460825 C214.2,12.560825 213.7,11.660825 212.6,10.560825 C211.5,9.46082501 210.3,8.56082501 209,7.86082501 C207.7,7.16082501 206.7,6.86082501 206.1,7.06082501 C205.4,7.26082501 204.3,8.86082501 202.6,11.860825 C201,14.860825 199.5,18.060825 198.2,21.660825 C196.9,25.160825 196.2,27.960825 196.2,29.860825 C196.2,32.560825 196.6,34.660825 197.5,36.260825 C198.4,37.860825 199.3,38.860825 200.2,39.260825 Z M215.9,36.060825 C217,36.860825 216.8,36.360825 216.9,35.860825 C217.2,34.460825 217.5,30.860825 220.3,25.060825 C221.8,21.760825 223.5,18.460825 225.6,15.060825 C227.6,11.660825 230.8,7.76082501 231,6.46082501 C231.3,5.16082501 230.5,4.66082501 229.4,3.56082501 C228.3,2.46082501 227.1,1.56082501 225.8,0.860825007 C224.5,0.160825007 223.5,-0.139174993 222.9,0.0608250072 C222.2,0.260825007 215.9,10.860825 214.6,14.460825 C208.1,27.760825 214,34.460825 215.9,36.060825 Z M230.3,46.460825 C230.9,45.360825 231.2,43.960825 231.2,42.460825 C231.2,41.260825 231,40.460825 230.7,39.960825 L230.7,39.960825 C230.6,39.760825 230.5,39.660825 230.3,39.560825 L230.3,39.560825 C230.1,39.460825 229.8,39.260825 229.5,39.160825 C229.7,38.660825 229.9,38.160825 230.2,37.660825 C231.7,34.360825 233.4,31.060825 235.5,27.660825 C237.5,24.260825 239.2,21.660825 240.6,20.060825 C240.8,19.760825 240.9,19.460825 240.9,19.160825 C240.9,18.260825 240.4,17.360825 239.3,16.260825 C238.2,15.160825 237,14.260825 235.7,13.560825 C234.7,13.060825 233.9,12.760825 233.3,12.760825 C233.1,12.760825 232.9,12.760825 232.8,12.860825 C232.1,13.060825 231,14.660825 229.3,17.660825 C227.7,20.660825 226.2,23.860825 224.9,27.460825 C224.8,27.860825 224.6,28.160825 224.5,28.560825 C224.5,28.660825 224.4,28.760825 224.4,28.860825 C224.2,29.560825 224,30.160825 223.8,30.860825 C223.8,30.960825 223.7,31.060825 223.7,31.160825 C223.6,31.460825 223.5,31.760825 223.5,32.060825 C223.5,32.260825 223.4,32.460825 223.4,32.660825 C223.3,33.060825 223.2,33.460825 223.2,33.860825 C223.2,34.060825 223.1,34.260825 223.1,34.460825 C223.1,34.660825 223,34.760825 223,34.960825 L223,35.060825 C223,35.260825 223,35.560825 223,35.760825 C223,36.760825 223.1,37.760825 223.2,38.660825 C222.7,38.660825 222.2,38.660825 221.8,38.660825 C219,38.860825 215.8,39.260825 212.3,40.060825 C207.9,41.060825 203.7,42.260825 199.8,43.760825 C195.9,45.260825 193,46.760825 191.1,48.260825 C188.7,50.060825 187.5,52.160825 187.5,54.360825 C187.5,55.060825 187.6,55.560825 187.8,56.060825 C188,56.560825 188.2,56.760825 188.5,56.860825 C188.8,56.860825 188.9,56.660825 189,56.260825 C189.2,55.360825 190.4,54.260825 192.5,53.060825 C189.7,57.260825 186.8,62.160825 183.7,67.760825 C182.9,69.160825 182.2,70.460825 181.7,71.560825 C182,68.760825 182.4,65.760825 183,62.760825 C183.8,58.060825 184.7,54.560825 185.5,52.060825 C185.6,51.560825 185.6,51.260825 185.5,50.960825 C185.1,49.960825 184.2,49.060825 182.5,48.360825 C180.9,47.560825 179.2,47.060825 177.5,46.760825 C175.8,46.460825 174.6,46.560825 174,47.060825 C173.3,47.560825 172.7,49.860825 172.1,53.860825 C171.5,57.860825 171.2,62.160825 171.2,66.660825 C171.2,71.160825 171.6,74.460825 172.4,76.660825 C173.5,79.660825 174.8,81.960825 176.4,83.360825 C179.3,85.860825 181.3,85.960825 183.2,84.660825 C183.2,84.660825 190.3,79.660825 194.7,77.560825 C199.2,75.360825 203.1,74.260825 206.5,74.260825 C208,74.260825 209.4,74.560825 210.6,75.160825 C208.1,78.960825 204.4,82.860825 199.4,86.760825 C194.4,90.660825 189.4,93.860825 184.3,96.460825 C179.2,98.960825 175.3,100.260825 172.5,100.260825 C172,100.260825 171.5,100.160825 171,100.060825 C170.3,99.860825 170,100.160825 170,100.860825 C170,101.760825 170.5,103.160825 171.4,104.860825 C172.3,106.560825 173.5,108.060825 174.9,109.360825 C176.3,110.660825 177.7,111.360825 179,111.360825 C181.6,111.360825 185.5,109.860825 190.6,106.860825 C195.7,103.860825 200.6,100.160825 205.2,95.760825 C209.8,91.360825 212.9,87.060825 214.5,83.060825 C215.3,81.160825 215.7,79.060825 215.7,76.760825 C215.7,74.860825 215.4,72.960825 214.9,71.260825 C214.4,69.560825 213.9,68.560825 213.5,68.360825 C213,67.560825 212.5,67.060825 211.8,66.760825 C210.3,66.160825 208.6,65.860825 206.8,65.860825 C203.8,65.860825 200.6,66.560825 197.1,67.860825 C193.6,69.160825 190.3,70.760825 187.1,72.760825 C189.2,68.560825 191.4,64.660825 193.6,61.060825 C195.9,57.360825 197.8,54.760825 199.5,53.060825 C199.7,52.860825 199.8,52.560825 199.8,52.260825 C199.8,51.560825 199.4,50.960825 198.7,50.460825 C202.2,49.260825 206,48.260825 210,47.460825 C214.1,46.660825 217.7,46.260825 220.8,46.260825 C224.3,46.260825 226.7,46.760825 228.2,47.660825 C229.1,47.960825 229.8,47.660825 230.3,46.460825 Z M244.6,35.060825 C243.6,34.060825 242.5,33.260825 241.2,32.660825 C239.9,32.060825 239.1,31.760825 238.5,31.960825 C237.9,32.160825 236.8,33.560825 235.2,36.260825 C233.7,38.960825 232.3,41.860825 231,45.060825 C229.7,48.260825 229.2,50.660825 229.2,52.460825 C229.2,54.860825 229.6,56.760825 230.4,58.260825 C231.2,59.660825 232,60.560825 232.9,61.060825 C233.8,61.460825 234.2,61.460825 234.1,60.860825 C234,59.560825 234.6,57.360825 236,54.460825 C237.4,51.560825 239,48.560825 241,45.460825 C242.9,42.360825 244.5,40.060825 245.8,38.560825 C246,38.260825 246.1,37.960825 246.1,37.760825 C246.1,36.860825 245.6,35.960825 244.6,35.060825 Z" id="Shape" fill="#FF5F57"></path>
            </g>
        </g>
    </g>
</svg>