<?xml version="1.0" encoding="utf-8"?>
<!-- Generator: Adobe Illustrator 24.0.1, SVG Export Plug-In . SVG Version: 6.00 Build 0)  -->
<svg version="1.1" id="Layer_1" xmlns="http://www.w3.org/2000/svg" xmlns:xlink="http://www.w3.org/1999/xlink" x="0px" y="0px"
	 viewBox="0 0 448 448" style="enable-background:new 0 0 448 448;" xml:space="preserve">
<style type="text/css">
	.st0{fill:#FD7169;}
</style>
<path className="st0" d="M264,375.4c0-3.7,0.3-7.4,0.8-11.1c0.1-1,0.3-2,0.5-3c0.4-2.7,1-5.3,1.7-7.9c0.2-0.9,0.3-1.9,0.6-2.8
	c8.4-28.4,30.6-50.6,58.9-59c0.9-0.3,1.9-0.4,2.8-0.6c2.6-0.7,5.2-1.3,7.9-1.7c1-0.2,2-0.3,3-0.5c3.6-0.5,7.3-0.8,11-0.8h0.2
	l0.6-0.1c3.7,0,7.4,0.3,11,0.8c0.8,0.1,1.5,0.2,2.3,0.4c3.1,0.5,6.1,1.1,9,1.9c0.5,0.1,1.1,0.2,1.6,0.3V8c0-4.4-3.6-8-8-8H128v72
	c0,13.3-10.7,24-24,24h-80v296c0,4.4,3.6,8,8,8h235.3c-0.1-0.5-0.2-1.1-0.3-1.6c-0.8-3-1.4-6.1-1.9-9.1c-0.1-0.7-0.2-1.5-0.3-2.2
	c-0.5-3.7-0.7-7.4-0.8-11C264,375.8,264,375.6,264,375.4L264,375.4z M160,144h160c4.4,0,8,3.6,8,8c0,4.4-3.6,8-8,8H160
	c-4.4,0-8-3.6-8-8C152,147.6,155.6,144,160,144z M160,192h160c4.4,0,8,3.6,8,8c0,4.4-3.6,8-8,8H160c-4.4,0-8-3.6-8-8
	C152,195.6,155.6,192,160,192z M160,240h160c4.4,0,8,3.6,8,8c0,4.4-3.6,8-8,8H160c-4.4,0-8-3.6-8-8C152,243.5,155.6,240,160,240z
	 M127.6,267.7l-33.9,33.9c-3.1,3.1-8.2,3.1-11.3,0l-17-17c-3-3.1-3-8.1,0.1-11.2c3.1-3.1,8.1-3.1,11.2-0.1l11.3,11.3l28.3-28.3
	c3.1-3,8.1-3,11.2,0.1S130.7,264.5,127.6,267.7z M127.6,219.7l-33.9,33.9c-3.1,3.1-8.2,3.1-11.3,0l-17-17c-3-3.1-3-8.1,0.1-11.2
	c3.1-3.1,8.1-3.1,11.2-0.1l11.3,11.3l28.3-28.3c3.1-3,8.1-3,11.2,0.1C130.6,211.6,130.7,216.6,127.6,219.7z M127.6,171.7l-33.9,33.9
	c-3.1,3.1-8.2,3.1-11.3,0l-17-17c-2.1-2-2.9-5-2.2-7.8c0.7-2.8,2.9-5,5.7-5.7c2.8-0.7,5.8,0.1,7.8,2.2l11.3,11.3l28.3-28.3
	c3.1-3,8.1-3,11.2,0.1C130.6,163.6,130.7,168.6,127.6,171.7z M127.6,123.7l-33.9,33.9c-3.1,3.1-8.2,3.1-11.3,0l-17-17
	c-2.1-2-2.9-5-2.2-7.8c0.7-2.8,2.9-5,5.7-5.7c2.8-0.7,5.8,0.1,7.8,2.2l11.3,11.3l28.3-28.3c3.1-3,8.1-3,11.2,0.1
	C130.6,115.6,130.7,120.6,127.6,123.7z M160,304c-4.4,0-8-3.6-8-8c0-4.4,3.6-8,8-8h120c4.4,0,8,3.6,8,8c0,4.4-3.6,8-8,8H160z"/>
<path className="st0" d="M380.8,310c-2.1-0.9-4.2-1.7-6.4-2.4c-0.9-0.3-1.8-0.5-2.7-0.8c-1.2-0.4-2.5-0.7-3.8-1
	c-1.3-0.3-2.3-0.5-3.5-0.7c-1-0.2-2.1-0.3-3.1-0.5c-1.2-0.2-2.5-0.3-3.7-0.4c-1-0.1-2.1-0.1-3.1-0.2c-1.2,0-2.5-0.1-3.7-0.1
	c-1.1,0-2.2,0.1-3.3,0.2c-1.1,0.1-2.3,0.1-3.5,0.2c-33.4,3.8-59.8,30.2-63.6,63.6c-0.1,1.1-0.2,2.1-0.2,3.2
	c-0.1,1.2-0.2,2.4-0.2,3.6s0,2.4,0.1,3.5c0.1,1.1,0.1,2.2,0.2,3.3c0.1,1.1,0.2,2.4,0.4,3.6c0.1,1.1,0.3,2.1,0.5,3.2
	c0.2,1.1,0.4,2.3,0.7,3.5c0.3,1.1,0.6,2.4,1,3.7c0.3,0.9,0.5,1.9,0.8,2.8c0.7,2.1,1.5,4.3,2.4,6.3c12.9,29.6,43.8,47,75.8,42.6
	c32-4.4,57.1-29.5,61.5-61.5C427.8,353.9,410.4,322.9,380.8,310z M400,383.9h-40v40c0,4.4-3.6,8-8,8c-4.4,0-8-3.6-8-8v-40h-40
	c-4.4,0-8-3.6-8-8c0-4.4,3.6-8,8-8h40v-40c0-4.4,3.6-8,8-8c4.4,0,8,3.6,8,8v40h40c4.4,0,8,3.6,8,8C408,380.4,404.4,383.9,400,383.9z
	"/>
<path className="st0" d="M112,72V10.3L36.5,80H104C108.5,80,112,76.4,112,72z"/>
</svg>
