<?xml version="1.0" encoding="utf-8"?>
<!-- Generator: Adobe Illustrator 24.0.1, SVG Export Plug-In . SVG Version: 6.00 Build 0)  -->
<svg version="1.1" id="Capa_1" xmlns="http://www.w3.org/2000/svg" xmlns:xlink="http://www.w3.org/1999/xlink" x="0px" y="0px"
	 viewBox="0 0 512 512" style="enable-background:new 0 0 512 512;" xml:space="preserve">
<style type="text/css">
	.st0{fill:#FF911E;}
</style>
<g>
	<g>
		<path className="st0" d="M149.2,16.6V112H53.8v33.1h112c9.1,0,16.6-7.4,16.6-16.6v-112L149.2,16.6L149.2,16.6z"/>
	</g>
</g>
<g>
	<g>
		<path className="st0" d="M355.6,0H165.8c-4.4,0-8.6,1.7-11.7,4.8l-112,112c-3.1,3.1-4.8,7.3-4.8,11.7v275.9c0,9.1,7.4,16.6,16.6,16.6
			h158.3c9.1,0,16.6-7.4,16.6-16.6s-7.4-16.6-16.6-16.6H70.3V135.4L172.6,33.1H339v214.6c0,9.1,7.4,16.6,16.6,16.6
			s16.6-7.4,16.6-16.6V16.6C372.1,7.4,364.7,0,355.6,0z"/>
	</g>
</g>
<g>
	<g>
		<path className="st0" d="M273.9,183.2H135.4c-9.1,0-16.6,7.4-16.6,16.6s7.4,16.6,16.6,16.6h138.5c9.1,0,16.6-7.4,16.6-16.6
			C290.5,190.6,283.1,183.2,273.9,183.2z"/>
	</g>
</g>
<g>
	<g>
		<path className="st0" d="M273.9,249.4H135.4c-9.1,0-16.6,7.4-16.6,16.6s7.4,16.6,16.6,16.6h138.5c9.1,0,16.6-7.4,16.6-16.6
			S283.1,249.4,273.9,249.4z"/>
	</g>
</g>
<g>
	<g>
		<path className="st0" d="M347.9,291.9c-51.7,0-93.8,42.1-93.8,93.8s42.1,93.8,93.8,93.8s93.8-42.1,93.8-93.8S399.6,291.9,347.9,291.9z
			 M347.9,446.3c-33.5,0-60.7-27.2-60.7-60.7s27.2-60.7,60.7-60.7s60.7,27.2,60.7,60.7C408.5,419.1,381.3,446.3,347.9,446.3z"/>
	</g>
</g>
<g>
	<g>
		<path className="st0" d="M469.9,483.7l-55.2-54.6c-6.5-6.4-17-6.4-23.4,0.1c-6.4,6.5-6.4,17,0.1,23.4l55.2,54.6
			c3.2,3.2,7.4,4.8,11.6,4.8c4.3,0,8.5-1.6,11.8-4.9C476.4,500.6,476.4,490.1,469.9,483.7z"/>
	</g>
</g>
</svg>
