<?xml version="1.0" encoding="utf-8"?>
<!-- Generator: Adobe Illustrator 24.0.1, SVG Export Plug-In . SVG Version: 6.00 Build 0)  -->
<svg version="1.1" id="Capa_1" xmlns="http://www.w3.org/2000/svg" xmlns:xlink="http://www.w3.org/1999/xlink" x="0px" y="0px"
	 viewBox="0 0 214.5 214.5" style="enable-background:new 0 0 214.5 214.5;" xml:space="preserve">
<style type="text/css">
	.st0{fill:#886DDD;}
</style>
<g>
	<path className="st0" d="M107.1,80.1c22.1,0,40-18,40-40c0-22.1-18-40-40-40c-22.1,0-40,18-40,40C67.1,62.1,85.1,80.1,107.1,80.1z
		 M107.1,15c13.8,0,25,11.2,25,25c0,13.8-11.2,25-25,25c-13.8,0-25-11.2-25-25C82.1,26.2,93.3,15,107.1,15z"/>
	<path className="st0" d="M123.8,81.3h-1.7H92.4h-1.7c-21.5,0-39,17.5-39,39v86.1c0,4.1,3.4,7.5,7.5,7.5s7.5-3.4,7.5-7.5v-86.1
		c0-11.2,7.7-20.7,18.2-23.3v16.1c0,4,3.1,7.3,7.1,7.5L82.3,192c-0.4,2.6,0.7,5.2,2.8,6.9l17.6,14c1.4,1.1,3,1.6,4.7,1.6
		c1.7,0,3.3-0.5,4.7-1.6l17.6-14c2.1-1.6,3.1-4.3,2.8-6.9l-9.7-71.4c3.9-0.2,7.1-3.5,7.1-7.5V97.1c10.4,2.6,18.2,12.1,18.2,23.3
		v86.1c0,4.1,3.4,7.5,7.5,7.5s7.5-3.4,7.5-7.5v-86.1C162.8,98.8,145.3,81.3,123.8,81.3z M114.6,96.3v9.3h-0.7h-13.3h-0.7v-9.3H114.6
		z M107.3,197.4l-9.6-7.6l9.4-69.2h0.2l9.4,69.2L107.3,197.4z"/>
</g>
</svg>
