<?xml version="1.0" encoding="utf-8"?>
<!-- Generator: Adobe Illustrator 24.1.0, SVG Export Plug-In . SVG Version: 6.00 Build 0)  -->
<svg version="1.1" id="Capa_1" xmlns="http://www.w3.org/2000/svg" xmlns:xlink="http://www.w3.org/1999/xlink" x="0px" y="0px"
	 viewBox="0 0 512 512" style="enable-background:new 0 0 512 512;" xml:space="preserve">
<style type="text/css">
	.st0{fill:#EAFAEC;}
	.st1{fill:#32C838;}
</style>
<circle className="st0" cx="256" cy="255.5" r="256"/>
<g>
	<g>
		<path className="st1" d="M380.2,338.9c-2,0-3.7,1.7-3.7,3.7v25c0,0.3-0.3,0.6-0.6,0.6h-14.2v-54.8c0-2-1.7-3.7-3.7-3.7
			s-3.7,1.7-3.7,3.7v54.8h-27.5l7.4-8.2c1.1-1.2,1.7-3,1.4-4.8c0,0,0,0,0-0.1l-8.4-49.5l1.5-2.3l0.4,0.3c1.3,1,3.1,1.3,4.8,0.9
			c1.6-0.4,3-1.5,3.8-3l0,0l8.5-17.1l19.4,7.5c0.7,0.3,10.8,4.9,10.8,16.9v16.2c0,2,1.7,3.7,3.7,3.7c2,0,3.7-1.7,3.7-3.7V309
			c0-17.3-14.8-23.6-15.4-23.8c0,0,0,0,0,0l-33.1-12.8v-6.8c5.2-4.1,8.8-10.1,9.9-17c2.6-0.3,5-1.3,6.9-3c2.8-2.4,4.5-6,4.5-9.8
			c0-3-1-5.9-2.9-8.1v-10.1c0-19.8-16.1-35.9-35.9-35.9c-8.9,0-17,3.2-23.3,8.6c-0.1-2.8-1.1-5.6-2.9-7.8v-10.1
			c0-19.8-16.1-35.9-35.9-35.9s-35.9,16.1-35.9,35.9v10.4c-1.8,2.1-2.8,4.7-2.9,7.5c-4-3.4-8.8-6-14.1-7.4c-2-0.5-4,0.6-4.6,2.6
			c-0.5,2,0.6,4,2.6,4.6c12.4,3.3,21.1,14.6,21.1,27.4v5.6c-0.1,0-0.7-0.1-0.7-0.1c0-1-0.3-1.7-0.9-2.5c-0.9-1.4-2.7-3.1-8.2-9
			c-2-2.1-5.1-2.5-7.6-0.9c-9.5,6.2-21,9.3-31.7,8.7c-3.5-0.2-5.6,1.3-6.6,3.8c-0.1,0-1,0.2-1,0.2v-5.7c0-12.4,8.3-23.6,20.2-27.2
			c2-0.6,3.1-2.7,2.5-4.6c-0.6-2-2.7-3.1-4.6-2.5c-7.2,2.2-13.7,6.7-18.3,12.7c-4.7,6.2-7.2,13.7-7.2,21.6v10.4
			c-1.9,2.2-2.9,5-2.9,7.9c0,6.4,4.7,12,11.4,12.8c1.1,6.7,4.7,13.1,10.4,17.4v6.4L143.5,285c0,0,0,0,0,0
			c-0.6,0.2-15.5,6.5-15.5,23.8v58.8c0,4.5,3.6,8.1,8.1,8.1h115.5c1.6,0,3.1-0.5,4.4-1.3c1.2,0.8,2.7,1.3,4.4,1.3h115.5
			c4.5,0,8.1-3.6,8.1-8.1v-25C384,340.6,382.3,338.9,380.2,338.9z M165.9,240.6c-2.2-0.8-3.6-2.8-3.6-5.1c0-2.2,1.6-4,3.6-4.9V240.6
			z M339.2,281.7l-7.3,14.7c0,0-8.2-5.8-8.3-5.9c3.5-4.3,1.8-2.3,9.2-11.3L339.2,281.7z M318.1,285.4l-9.7-11.9v-3.6
			c3.1,1.1,6.5,1.6,9.7,1.6l0,0l0,0c3.3,0,6.6-0.6,9.6-1.7v3.8L318.1,285.4z M322.5,299.1l-1.4,2.1h-6l-1.4-2.1l4.4-3.1L322.5,299.1
			z M256,240.2l-9.7-11.9v-3.6c3.1,1.1,6.5,1.6,9.7,1.6l0,0l0,0c3.3,0,6.6-0.6,9.6-1.7v3.8L256,240.2z M260.4,253.9L259,256h-6
			l-1.4-2.1l4.4-3.1L260.4,253.9z M226.5,202.8c0.6,0.1,1.2,0.3,1.9,0.3c1.1,6.7,4.7,13.1,10.4,17.4v6.4l-7.6,2.9
			c-0.4-0.9-1-1.8-1.6-2.6v-10.1C229.5,212.1,228.4,207.2,226.5,202.8z M275.9,198.8c0,11-8.9,19.9-19.9,19.9
			c-12.3,0-20.5-9.5-20.5-19.9v-17.5c11.8,0.4,24.1-3,34.2-9.3c3.4,3.6,5.4,5.7,6.2,6.7C275.9,188,275.9,191.7,275.9,198.8z
			 M283,203.1c0.6-0.1,1.2-0.2,1.8-0.3c-1.9,4.4-3,9.3-3,14.4v10.4c-0.6,0.7-1,1.4-1.5,2.2l-7.2-2.8v-6.8
			C278.3,216,282,210,283,203.1z M241.4,234l9.2,11.3l-6.3,4.4l0,0l-2,1.4l-7.3-14.7L241.4,234z M264.6,241.4l6-7.4l6.4,2.5
			l-7.3,14.7l-2-1.4l0,0l-6.3-4.4L264.6,241.4z M266.5,258.2l0.4,0.3c1.4,1,3.1,1.3,4.8,0.9s3-1.5,3.8-3l0,0l6.3-12.7
			c2.1,2.7,5.3,4.3,8.5,4.7c1.1,7.1,5,13.3,10.4,17.4v6.4L269,284.6l-4-24L266.5,258.2z M303.5,279.2l9.2,11.3c-4,2.8-8,5.7-8.3,5.9
			l-7.3-14.7L303.5,279.2z M338,244c0,10.7-8.7,19.9-19.9,19.9c-12.7,0-20.5-10-20.5-19.9v-17.5c11.7,0.4,24-3,34.2-9.3
			c3.4,3.6,5.4,5.7,6.2,6.7C338,233.2,338,236.8,338,244z M349.1,235.5c0,2.3-1.4,4.3-3.6,5.1v-10.2
			C347.8,231.2,349.1,233.3,349.1,235.5z M289.4,217.2c0-15.6,12.7-28.4,28.4-28.4c15.6,0,28.4,12.7,28.4,28.4v5.6
			c-0.1,0-0.6-0.1-0.7-0.1c0-1-0.3-1.7-0.9-2.5c-1-1.4-2.7-3.1-8.2-9c-1.9-2.1-5.1-2.5-7.6-0.9c-9.2,6-20.9,9.4-32,8.7
			c-3.1-0.2-5.4,1.3-6.3,3.8c-0.1,0-1,0.2-1,0.2L289.4,217.2L289.4,217.2z M290.1,230.6v10c-2.2-0.8-3.6-2.8-3.6-5.1
			C286.5,233.3,288.1,231.5,290.1,230.6z M287,190.3c0,1.6-0.7,3-1.9,4.1c-0.5,0.4-1.1,0.8-1.7,1v-10.2
			C285.6,186.1,287,188.1,287,190.3z M255.7,143.6c15.6,0,28.4,12.7,28.4,28.4v5.6c-0.1,0-0.6-0.1-0.7-0.1c0-1.1-0.4-1.8-1-2.7
			c-1-1.3-2.8-3.2-8-8.8c-1.9-2.1-5.1-2.5-7.6-0.9c-9.7,6.4-21.6,9.5-32.3,8.7c-2.6-0.2-5.1,1.4-6,3.8c-0.1,0-1,0.2-1,0.2v-5.6l0,0
			C227.3,156.4,240.1,143.6,255.7,143.6z M228,185.5v10c-2.2-0.8-3.6-2.8-3.6-5.1C224.4,188.1,226,186.3,228,185.5z M221.3,230.4
			c2.1,0.7,3.4,2.6,3.6,4.7c0.1,2.4-1.3,4.6-3.6,5.4V230.4z M221,248.4c3.5-0.4,6.8-2.3,8.9-5.1l6.5,13.1l0,0c0.7,1.5,2.1,2.6,3.8,3
			c1.6,0.4,3.4,0.1,4.8-0.9l0.4-0.3l1.5,2.3l-4,24l-31.9-12.3v-6.8l0,0C216.4,261.1,219.9,255,221,248.4z M193.9,285.4l-9.7-11.9
			v-3.6c3.1,1.1,6.5,1.6,9.7,1.6l0,0c3.3,0,6.7-0.6,9.6-1.7v3.8L193.9,285.4z M198.3,299.1l-1.4,2.1h-6l-1.4-2.1l4.4-3.1
			L198.3,299.1z M208.5,279.2l6.4,2.5l-7.3,14.7l-2-1.4l0,0l-6.3-4.4L208.5,279.2z M173.4,244v-17.5c11.9,0.5,24.2-3.1,34.2-9.3
			c3.3,3.6,5.4,5.7,6.2,6.7c0,9.3,0,12.9,0,20.1c0,10.9-8.9,19.9-19.9,19.9C181.7,263.9,173.4,254.5,173.4,244z M179.3,279.2
			l9.2,11.3l-6.3,4.4l0,0l-2,1.4l-7.3-14.7L179.3,279.2z M157.9,368.3v-54.8c0-2-1.7-3.7-3.7-3.7s-3.7,1.7-3.7,3.7v54.8h-14.2
			c-0.3,0-0.6-0.3-0.6-0.6v-58.8c0-12,10.1-16.6,10.8-16.9l19.4-7.5l8.5,17.1l0,0c0.7,1.5,2.1,2.6,3.8,3c1.6,0.4,3.4,0.1,4.8-0.9
			l0.4-0.3l1.5,2.3l-8.4,49.5c0,0,0,0,0,0.1c-0.2,1.7,0.3,3.5,1.4,4.8l7.4,8.2L157.9,368.3L157.9,368.3z M184.1,355.7l7.9-47h3.7
			l7.9,47l-9.8,10.8L184.1,355.7z M252.3,367.7c0,0.3-0.3,0.6-0.6,0.6h-14.2v-54.8c0-2-1.7-3.7-3.7-3.7c-2,0-3.7,1.7-3.7,3.7v54.8
			h-27.5l7.4-8.2c1.1-1.2,1.7-3,1.4-4.8c0,0,0,0,0-0.1l-8.4-49.5l1.5-2.3l0.4,0.3c1,0.7,2.2,1.1,3.4,1.1c2.2,0,4.2-1.2,5.2-3.2l0,0
			l8.5-17.1l19.4,7.5c5.7,2.4,10.8,8.8,10.8,16.9L252.3,367.7L252.3,367.7z M256,295.3c-1.5-2.5-3.6-4.8-6.1-6.8l4.2-25h3.7l4.2,25
			C259.5,290.5,257.5,292.9,256,295.3z M282.1,368.3L282.1,368.3v-54.8c0-2-1.7-3.7-3.7-3.7c-2,0-3.7,1.7-3.7,3.7v54.8h-14.2
			c-0.3,0-0.6-0.3-0.6-0.6v-58.8c0-4.4,1.4-8.5,4.4-12c2-2.3,4.6-4.1,6.4-4.9l19.4-7.5l8.5,17.1l0,0c0.7,1.5,2.1,2.6,3.8,3
			c1.6,0.4,3.4,0.1,4.8-0.9l0.4-0.3l1.5,2.3l-8.4,49.5c0,0,0,0,0,0.1c-0.2,1.7,0.3,3.5,1.4,4.8l7.4,8.2L282.1,368.3L282.1,368.3z
			 M308.3,355.7l7.9-47h3.7l7.9,47l-9.8,10.8L308.3,355.7z"/>
	</g>
</g>
</svg>
