<?xml version="1.0" encoding="utf-8"?>
<!-- Generator: Adobe Illustrator 24.0.1, SVG Export Plug-In . SVG Version: 6.00 Build 0)  -->
<svg version="1.1" id="Capa_1" xmlns="http://www.w3.org/2000/svg" xmlns:xlink="http://www.w3.org/1999/xlink" x="0px" y="0px"
	 viewBox="0 0 385 385" style="enable-background:new 0 0 385 385;" xml:space="preserve">
<style type="text/css">
	.st0{fill:#4295FF;}
</style>
<g>
	<g id="Chevron_Up_Circle">
		<path className="st0" d="M192.5,385C298.8,385,385,298.8,385,192.5C385,86.2,298.8,0,192.5,0C86.2,0,0,86.2,0,192.5
			C0,298.8,86.2,385,192.5,385z M192.5,24.1c92.9,0,168.8,75.5,168.8,168.4s-75.9,168.4-168.8,168.4S24.1,285.4,24.1,192.5
			S99.6,24.1,192.5,24.1z"/>
		<path className="st0" d="M184.1,249.1c4.6,4.6,12.6,4.6,17.2,0l84.2-83c4.7-4.7,4.7-12.3,0-17c-4.8-4.7-12.4-4.7-17.2,0l-75.6,74.5
			l-75.6-74.5c-4.7-4.7-12.4-4.7-17.2,0c-4.7,4.7-4.7,12.3,0,17L184.1,249.1z"/>
	</g>
</g>
</svg>
