<?xml version="1.0" encoding="utf-8"?>
<!-- Generator: Adobe Illustrator 24.0.1, SVG Export Plug-In . SVG Version: 6.00 Build 0)  -->
<svg version="1.1" id="Capa_1" xmlns="http://www.w3.org/2000/svg" xmlns:xlink="http://www.w3.org/1999/xlink" x="0px" y="0px"
	 viewBox="0 0 512 512" style="enable-background:new 0 0 512 512;" xml:space="preserve">
<style type="text/css">
	.st0{fill:#BEC2D6;}
</style>
<g>
	<g>
		<path className="st0" d="M312.5,370c-10.8,7.9-21.1,8.4-27.3,7.7c-15.7-1.8-29.7-13.6-37.6-31.6c-5.3-12.1-8.1-28.4-4.9-45.5
			c-24.9,13.3-56.9,43.6-56.9,111.2c0,38.7,31.5,70.3,70.3,70.3s70.3-31.5,70.3-70.3C326.3,396.6,321.3,382,312.5,370z"/>
	</g>
</g>
<g>
	<g>
		<path className="st0" d="M465.1,290.7l-2.3-40.3l-24.6,32c-2,2.5-6.1,7.1-11.5,11.2c2.1-7,4-14.9,5.2-23.7
			c4.3-30.4,1.6-77.1-35.6-126.7l-15.6-20.8l-10.2,23.9c-11.8,27.6-30.9,41.5-48.6,35.3c-13.7-4.8-24.7-20.4-30.4-42.9
			c-5.3-21-8.4-57.9,7.1-114.6L305.2,0l-24.3,5.5c-82.1,18.5-137.5,76.8-160,168.6c-9.5,38.6-11.3,75.2-11,99.9
			c-19.4-15.7-29.1-29.5-29.3-29.8L62,217.1l-8.4,31.8c-4.6,17.5-7,35.6-7,53.7c0,114.6,92.6,208,206.9,209.4
			c-54.1-1.4-97.7-45.8-97.7-100.2c0-70.2,30.1-107.6,55.4-126.6c27.6-20.7,55.4-24.4,56.6-24.6l34.7-4.4l-20.8,28.2
			c-13.1,17.7-12,37.3-6.6,49.6c3.9,8.9,9.6,13.4,13.5,13.8c4.9,0.6,9.8-5.1,12.3-8.5l9.8-13.3l12.3,11.1
			c21.2,19,33.3,46.2,33.3,74.6c0,54.4-43.6,98.9-97.7,100.2c114.3-1.4,206.9-94.8,206.9-209.4C465.4,298.8,465.3,294.8,465.1,290.7
			z"/>
	</g>
</g>
</svg>
