<?xml version="1.0" encoding="utf-8"?>
<!-- Generator: Adobe Illustrator 24.0.1, SVG Export Plug-In . SVG Version: 6.00 Build 0)  -->
<svg version="1.1" id="Layer_1" xmlns="http://www.w3.org/2000/svg" xmlns:xlink="http://www.w3.org/1999/xlink" x="0px" y="0px"
	 viewBox="0 0 800 800" style="enable-background:new 0 0 800 800;" xml:space="preserve">
<style type="text/css">
	.st0{fill:#866ADC;}
</style>
<path className="st0" d="M772.3,456.3v-118l-73.9-24.6c-6.8-24.5-16.6-48-29.1-70.1l34.8-69.7l-83.4-83.5l-69.7,34.8
	C529,112.7,505.4,103,481,96.2l-24.6-73.8h-118l-24.6,73.8c-24.5,6.8-48,16.6-70.1,29.1l-69.7-34.8l-83.4,83.5l34.8,69.7
	c-12.5,22.1-22.3,45.6-29.1,70.1l-73.9,24.6v118L96.2,481c6.8,24.5,16.6,48,29.1,70.1l-34.8,69.7l83.4,83.5l69.7-34.8
	c22.1,12.5,45.7,22.3,70.1,29.1l24.6,73.8h118l24.6-73.8c24.5-6.8,48-16.6,70.1-29.1l69.7,34.8l83.4-83.5l-34.8-69.7
	c12.5-22.1,22.3-45.7,29.1-70.1L772.3,456.3z M676.1,468.2c-6.8,26.8-17.4,52.4-31.6,76.1l-3.5,5.9l32.9,65.7l-58,58L550.1,641
	l-5.9,3.5c-23.7,14.2-49.3,24.8-76.1,31.6l-6.6,1.7l-23.2,69.6h-82l-23.2-69.6l-6.6-1.7c-26.8-6.8-52.4-17.4-76.1-31.6l-5.9-3.5
	l-65.7,32.8l-58-58l32.9-65.7l-3.5-5.9c-14.1-23.7-24.8-49.3-31.6-76.1l-1.7-6.6l-69.6-23.2v-82l69.6-23.2l1.7-6.6
	c6.8-26.7,17.4-52.4,31.6-76.1l3.5-5.9l-32.9-65.7l58-58l65.7,32.8l5.9-3.5c23.7-14.1,49.3-24.8,76.1-31.6l6.6-1.7l23.2-69.6h82
	l23.2,69.6l6.6,1.7c26.8,6.8,52.4,17.4,76.1,31.6l5.9,3.5l65.7-32.8l58,58l-32.9,65.7l3.5,5.9c14.2,23.7,24.8,49.3,31.6,76.1
	l1.7,6.6l69.6,23.2v82l-69.6,23.2L676.1,468.2z"/>
<path className="st0" d="M634.8,397.3c0.2-122.7-93.1-225.4-215.2-237.1c-122.2-11.7-233.2,71.6-256.2,192.1s49.4,238.8,167.3,273.1
	c117.9,34.2,242.4-26.8,287.5-141l37.1,7l-33-94.1H634.8z M557.3,472.9l35.9,6.8c-42.3,100.7-154,153-258.4,121
	c-104.4-32.1-167.6-138-146-245.1c21.5-107.1,120.7-180.4,229.4-169.6c108.7,10.8,191.5,102.2,191.6,211.4h12.5L557.3,472.9z"/>
<path className="st0" d="M397.3,272.3c-34.9-0.1-68.2,14.6-91.8,40.3l-35.2-14l14.5,98.6h-12.5c0,69,56,125,125,125c69,0,125-56,125-125
	C522.3,328.3,466.4,272.3,397.3,272.3z M397.3,497.3c-55.2-0.1-99.9-44.8-100-100h-12.5l78.2-61.9l-32.1-12.7
	c18.2-16.4,41.9-25.4,66.4-25.4c55.2,0,100,44.8,100,100C497.3,452.6,452.6,497.3,397.3,497.3z"/>
</svg>
