<?xml version="1.0" encoding="utf-8"?>
<!-- Generator: Adobe Illustrator 24.2.0, SVG Export Plug-In . SVG Version: 6.00 Build 0)  -->
<svg version="1.1" id="Layer_1" xmlns="http://www.w3.org/2000/svg" xmlns:xlink="http://www.w3.org/1999/xlink" x="0px" y="0px"
	 viewBox="0 0 247 112" style="enable-background:new 0 0 247 112;" xml:space="preserve">
<style type="text/css">
	.st0{fill:#FFFFFF;}
	.st1{fill:#FF5F57;}
</style>
<desc>Created with Sketch.</desc>
<g id="Page-1">
	<g id="Desktop-HD" transform="translate(-1311.000000, -103.000000)">
		<g id="high5-std" transform="translate(1311.000000, 103.000000)">
			<path id="high" className="st0" d="M7.2,109.6c1.2,0,2.3-1,2.3-2.3V90.3h20.7v17.1c0,1.2,1,2.3,2.2,2.3h5c1.2,0,2.2-1,2.2-2.3V63.9
				c0-1.2-1-2.3-2.2-2.3h-5c-1.2,0-2.2,1-2.2,2.3v17H9.5v-17c0-1.2-1-2.3-2.3-2.3H2.3c-1.2,0-2.3,1-2.3,2.3v43.4
				c0,1.2,1,2.3,2.3,2.3H7.2z M57.2,109.6c1.2,0,2.3-1,2.3-2.3V63.9c0-1.2-1-2.3-2.3-2.3h-4.9c-1.2,0-2.3,1-2.3,2.3v43.4
				c0,1.2,1,2.3,2.3,2.3H57.2z M90.3,110c13.6,0,24.3-10.2,24.3-24.5c0-0.5,0-0.9-0.1-1.4v-0.3c-0.1-1.2-1-2.2-2.3-2.2H90.7
				c-1.2,0-2.3,1-2.3,2.3v4.6c0,1.2,1,2.3,2.3,2.3h13.6c-2,6.2-7.2,9.8-14,9.8c-8.9,0-14.8-6.3-14.8-15.2c0-8.8,5.9-15.2,14.8-15.2
				c5.5,0,9.7,2.2,12.5,6.5c0.4,0.7,1.1,1,1.9,1h5.5c1.3,0,2.3-1,2.3-2.2c0-2-2.9-5.6-4.6-7.4c-4.6-4.8-10.5-7.2-17.6-7.2
				C76.4,61,66,71.6,66,85.5C66,99.4,76.4,110,90.3,110z M127.6,109.6c1.2,0,2.3-1,2.3-2.3V90.3h20.7v17.1c0,1.2,1,2.3,2.2,2.3h5
				c1.2,0,2.2-1,2.2-2.3V63.9c0-1.2-1-2.3-2.2-2.3h-5c-1.2,0-2.2,1-2.2,2.3v17h-20.7v-17c0-1.2-1-2.3-2.3-2.3h-4.9
				c-1.2,0-2.3,1-2.3,2.3v43.4c0,1.2,1,2.3,2.3,2.3H127.6z"/>
			<path id="Shape" className="st1" d="M200.2,39.3c0.9,0.5,1.4,0.4,1.3-0.2c-0.1-1.5,0.5-3.8,2-7.1s3.2-6.6,5.3-10c2-3.4,3.7-6,5.1-7.6
				c0.2-0.3,0.3-0.6,0.3-0.9c0-0.9-0.5-1.8-1.6-2.9c-1.1-1.1-2.3-2-3.6-2.7s-2.3-1-2.9-0.8c-0.7,0.2-1.8,1.8-3.5,4.8
				c-1.6,3-3.1,6.2-4.4,9.8c-1.3,3.5-2,6.3-2,8.2c0,2.7,0.4,4.8,1.3,6.4C198.4,37.9,199.3,38.9,200.2,39.3z M215.9,36.1
				c1.1,0.8,0.9,0.3,1-0.2c0.3-1.4,0.6-5,3.4-10.8c1.5-3.3,3.2-6.6,5.3-10c2-3.4,5.2-7.3,5.4-8.6c0.3-1.3-0.5-1.8-1.6-2.9
				c-1.1-1.1-2.3-2-3.6-2.7s-2.3-1-2.9-0.8c-0.7,0.2-7,10.8-8.3,14.4C208.1,27.8,214,34.5,215.9,36.1z M230.3,46.5
				c0.6-1.1,0.9-2.5,0.9-4c0-1.2-0.2-2-0.5-2.5l0,0c-0.1-0.2-0.2-0.3-0.4-0.4l0,0c-0.2-0.1-0.5-0.3-0.8-0.4c0.2-0.5,0.4-1,0.7-1.5
				c1.5-3.3,3.2-6.6,5.3-10c2-3.4,3.7-6,5.1-7.6c0.2-0.3,0.3-0.6,0.3-0.9c0-0.9-0.5-1.8-1.6-2.9c-1.1-1.1-2.3-2-3.6-2.7
				c-1-0.5-1.8-0.8-2.4-0.8c-0.2,0-0.4,0-0.5,0.1c-0.7,0.2-1.8,1.8-3.5,4.8c-1.6,3-3.1,6.2-4.4,9.8c-0.1,0.4-0.3,0.7-0.4,1.1
				c0,0.1-0.1,0.2-0.1,0.3c-0.2,0.7-0.4,1.3-0.6,2c0,0.1-0.1,0.2-0.1,0.3c-0.1,0.3-0.2,0.6-0.2,0.9c0,0.2-0.1,0.4-0.1,0.6
				c-0.1,0.4-0.2,0.8-0.2,1.2c0,0.2-0.1,0.4-0.1,0.6c0,0.2-0.1,0.3-0.1,0.5v0.1c0,0.2,0,0.5,0,0.7c0,1,0.1,2,0.2,2.9
				c-0.5,0-1,0-1.4,0c-2.8,0.2-6,0.6-9.5,1.4c-4.4,1-8.6,2.2-12.5,3.7c-3.9,1.5-6.8,3-8.7,4.5c-2.4,1.8-3.6,3.9-3.6,6.1
				c0,0.7,0.1,1.2,0.3,1.7s0.4,0.7,0.7,0.8c0.3,0,0.4-0.2,0.5-0.6c0.2-0.9,1.4-2,3.5-3.2c-2.8,4.2-5.7,9.1-8.8,14.7
				c-0.8,1.4-1.5,2.7-2,3.8c0.3-2.8,0.7-5.8,1.3-8.8c0.8-4.7,1.7-8.2,2.5-10.7c0.1-0.5,0.1-0.8,0-1.1c-0.4-1-1.3-1.9-3-2.6
				c-1.6-0.8-3.3-1.3-5-1.6s-2.9-0.2-3.5,0.3c-0.7,0.5-1.3,2.8-1.9,6.8c-0.6,4-0.9,8.3-0.9,12.8s0.4,7.8,1.2,10c1.1,3,2.4,5.3,4,6.7
				c2.9,2.5,4.9,2.6,6.8,1.3c0,0,7.1-5,11.5-7.1c4.5-2.2,8.4-3.3,11.8-3.3c1.5,0,2.9,0.3,4.1,0.9c-2.5,3.8-6.2,7.7-11.2,11.6
				s-10,7.1-15.1,9.7c-5.1,2.5-9,3.8-11.8,3.8c-0.5,0-1-0.1-1.5-0.2c-0.7-0.2-1,0.1-1,0.8c0,0.9,0.5,2.3,1.4,4
				c0.9,1.7,2.1,3.2,3.5,4.5c1.4,1.3,2.8,2,4.1,2c2.6,0,6.5-1.5,11.6-4.5c5.1-3,10-6.7,14.6-11.1c4.6-4.4,7.7-8.7,9.3-12.7
				c0.8-1.9,1.2-4,1.2-6.3c0-1.9-0.3-3.8-0.8-5.5c-0.5-1.7-1-2.7-1.4-2.9c-0.5-0.8-1-1.3-1.7-1.6c-1.5-0.6-3.2-0.9-5-0.9
				c-3,0-6.2,0.7-9.7,2s-6.8,2.9-10,4.9c2.1-4.2,4.3-8.1,6.5-11.7c2.3-3.7,4.2-6.3,5.9-8c0.2-0.2,0.3-0.5,0.3-0.8
				c0-0.7-0.4-1.3-1.1-1.8c3.5-1.2,7.3-2.2,11.3-3c4.1-0.8,7.7-1.2,10.8-1.2c3.5,0,5.9,0.5,7.4,1.4C229.1,48,229.8,47.7,230.3,46.5z
				 M244.6,35.1c-1-1-2.1-1.8-3.4-2.4c-1.3-0.6-2.1-0.9-2.7-0.7c-0.6,0.2-1.7,1.6-3.3,4.3c-1.5,2.7-2.9,5.6-4.2,8.8
				s-1.8,5.6-1.8,7.4c0,2.4,0.4,4.3,1.2,5.8c0.8,1.4,1.6,2.3,2.5,2.8c0.9,0.4,1.3,0.4,1.2-0.2c-0.1-1.3,0.5-3.5,1.9-6.4
				c1.4-2.9,3-5.9,5-9c1.9-3.1,3.5-5.4,4.8-6.9c0.2-0.3,0.3-0.6,0.3-0.8C246.1,36.9,245.6,36,244.6,35.1z"/>
		</g>
	</g>
</g>
</svg>
