<?xml version="1.0" encoding="utf-8"?>
<!-- Generator: Adobe Illustrator 25.1.0, SVG Export Plug-In . SVG Version: 6.00 Build 0)  -->
<svg version="1.1" id="Capa_1" xmlns="http://www.w3.org/2000/svg" xmlns:xlink="http://www.w3.org/1999/xlink" x="0px" y="0px"
	 viewBox="0 0 512 512" style="enable-background:new 0 0 512 512;" xml:space="preserve">
<g>
	<g>
		<path d="M63.8,142h152l31.7,31.7c2.2,2.2,5.1,3.3,8,3.3c1.5,0,3-0.3,4.4-0.9c4.3-1.8,7-5.9,7-10.5v-25.2
			c11.7-4,19.9-15.3,19.9-27.9v-83c0-16.3-13.2-29.5-29.5-29.5H63.8C47.6,0,34.3,13.2,34.3,29.5v6.1c0,4.1,3.4,7.5,7.5,7.5
			s7.5-3.4,7.5-7.5v-6.1c0-8,6.5-14.5,14.5-14.5h193.5c8,0,14.5,6.5,14.5,14.5v83c0,6.8-4.8,12.8-11.5,14.2c-4.9,1-8.4,5.4-8.4,10.5
			v19.8l-26.8-26.8c-2-2-4.7-3.1-7.6-3.1H63.8c-8,0-14.5-6.5-14.5-14.5V70.7c0-4.1-3.4-7.5-7.5-7.5s-7.5,3.4-7.5,7.5v41.8
			C34.3,128.8,47.6,142,63.8,142L63.8,142z"/>
		<path d="M504.5,345.9c4.1,0,7.5-3.4,7.5-7.5v-5.8c0-23-15.4-43.7-37.5-50.1l-40.7-11.9c-1.2-1.1-2.5-2-4-2.6l-8.5-3.8
			c-2.3-1-4.7-1.5-7-1.5v-17.8c13.3-9.8,22.6-24.8,24.7-42.1c6.7-1.9,11.7-8.1,11.7-15.4v-53.7c0-12.6-9.9-22.9-22.2-23.6
			c-1-12.1-11.2-21.7-23.6-21.7h-55.7c-24.6,0-44.7,20-44.7,44.7v54.3c0,7.3,4.9,13.5,11.7,15.4c2.2,17.3,11.4,32.3,24.7,42.1v17.8
			c-2.4,0-4.7,0.6-7,1.6l-8.3,3.7c-1.5,0.7-2.8,1.6-4,2.6l-40.9,12c-22.1,6.5-37.5,27.1-37.5,50.1v40.7c-5.2-4.3-11.3-7.5-17.9-9.4
			c-0.7-0.2,3.2,0.6-58.4-11.2v-0.2c9.7-1.8,19.3-4.3,28.7-7.6c20.8-7.2,34.4-28.6,23.8-64c-3.5-11.7-5.3-23.8-5.3-36.1
			c0-45.8-37.3-83.1-83.1-83.1h0c-45.8,0-83.1,37.3-83.1,83.1c0,12.2-1.8,24.3-5.3,36c-10.5,35,2.6,56.7,23.8,64
			c9.4,3.3,19,5.8,28.7,7.6c-61.3,11.9-57.7,11.1-58.4,11.3C15.1,370.3,0,390.4,0,412.9v70.8C0,499.4,12.7,512,28.3,512h0.1
			c0.1,0,455.3-0.5,455.4-0.5c15.6,0,28.3-12.7,28.3-28.3V373.5c0-4.1-3.4-7.5-7.5-7.5s-7.5,3.4-7.5,7.5v17.3h-87.7l-13.3-59.2
			l7.2-12.9c2.8-0.6,5.6-1.9,7.8-4.1l23-22.4c1.5-1.4,2.6-3.1,3.4-5l32.7,9.6c15.8,4.6,26.8,19.3,26.8,35.8v5.8
			C497,342.6,500.4,345.9,504.5,345.9L504.5,345.9z M319.5,133c0-16.4,13.3-29.7,29.7-29.7h55.7c4.8,0,8.7,3.9,8.7,8.7
			c0,7.1,5.8,13,13,13h0.5c4.8,0,8.7,3.9,8.7,8.7v27.8H432c-2.1,0-3.7-1.7-3.7-3.7v-6.2c0-13.3-13-22.5-25.4-18.4
			c-16.3,5.4-34.2,5.4-50.5,0c-12.5-4.1-25.4,5.2-25.4,18.4v6.2c0,2.1-1.7,3.7-3.7,3.7h-3.7L319.5,133L319.5,133z M330.7,197.9
			c-0.3-5.4-4.9-9.7-10.3-9.7c-0.6,0-1-0.5-1-1v-10.9h3.7c10.3,0,18.7-8.4,18.7-18.7v-6.2c0-3,2.9-5.1,5.8-4.1
			c19.3,6.4,40.6,6.4,59.9,0c2.8-0.9,5.7,1.2,5.7,4.1v6.2c0,10.3,8.4,18.7,18.7,18.7h3.7v10.9c0,0.6-0.5,1-1,1
			c-5.4,0-9.9,4.2-10.3,9.7c-1.6,24.6-22.1,43.9-46.8,43.9C352.9,241.9,332.3,222.6,330.7,197.9L330.7,197.9z M383.7,323h-12.4
			l-4.8-8.3l11.7-9.8l10.6,9.1L383.7,323z M394,390.8h-32.8L373,338h9.1L394,390.8z M378.1,285.7l-22.2-16.6v-16.2
			c6.8,2.5,14.1,3.9,21.7,3.9c7.6,0,14.9-1.4,21.7-3.9v16.4L378.1,285.7z M340,277.8c0.9-0.4,2-0.3,2.9,0.3
			c7.4,5.6,12.4,9.3,23.2,17.3l-10.8,9c-0.1,0-0.1,0.1-0.2,0.1c0,0-0.1,0-0.1,0c-0.1,0-0.2,0-0.3-0.1l-22.9-22.9L340,277.8z
			 M71.2,330.9c-19-6.6-20.1-26.4-14.3-45.6c3.9-13.1,5.9-26.7,5.9-40.4c0-37.5,30.6-68.1,68.1-68.1S199,207.4,199,245
			c0,13.7,2,27.3,5.9,40.4c5.7,19.2,4.6,39-14.3,45.6C152.1,344.3,109.7,344.3,71.2,330.9z M151.8,354.8v2.7
			c-8.2,17.7-33.7,17.6-41.8-0.2v-2.5C123.8,356.3,137.8,356.3,151.8,354.8z M246.9,494.6c0,1-0.8,1.9-1.9,1.9c0,0-0.1,0-0.1,0
			c0,0,0,0,0,0c-0.1,0-0.1,0-0.2,0L28.3,497h0C21,497,15,491.1,15,483.7v-70.8c0-15.8,10.5-29.9,25.6-34.5l57.8-11.2
			c14.5,24.6,50.6,24.5,65.2,0.2l57.8,11c15.5,4.7,25.5,19,25.5,34.5L246.9,494.6z M258.1,332.7c0-16.4,11-31.1,26.8-35.8l33-9.7
			c0.7,1.8,1.8,3.4,3.2,4.8l23,23.1c0,0,0.1,0,0.1,0.1c2.1,2.1,4.7,3.4,7.5,4l7.3,12.5l-13.3,59.1h-87.6V332.7z M497,405.8v77.4
			c0,7.3-5.9,13.3-13.3,13.3h-222c0.1-0.6,0.1-1.3,0.1-1.9v-81.7c0-2.4-0.2-4.7-0.5-7.1C294.3,405.8,445.2,405.8,497,405.8
			L497,405.8z M400.6,304c-0.1,0.1-0.2,0.1-0.3,0.1c-0.1,0-0.1,0-0.2,0c0,0-0.1,0-0.1-0.1l-10-8.5l22.2-17.2
			c0.8-0.6,1.9-0.8,2.9-0.3l8.4,3.7L400.6,304z"/>
	</g>
</g>
<g id="Splash_4_">
	<g id="whitelable-splash_4_" transform="translate(-677.000000, -4346.000000)">
		<g id="logo_x2F_filled_4_" transform="translate(663.000000, 4346.000000)">
			<g id="high5-logo-gray_4_" transform="translate(14.210526, 0.424242)">
				<path id="high_4_" d="M82.4,98.9c0.8,0,1.5-0.7,1.4-1.5l0-11.3l13.2,0l0,11.3c0,0.8,0.6,1.5,1.4,1.5l3.2,0
					c0.8,0,1.4-0.7,1.4-1.5l-0.1-28.7c0-0.8-0.6-1.5-1.4-1.5l-3.2,0c-0.8,0-1.4,0.7-1.4,1.5l0.1,11.2l-13.2,0l-0.1-11.2
					c0-0.8-0.7-1.5-1.4-1.5l-3.1,0c-0.8,0-1.5,0.7-1.4,1.5l0.1,28.7c0,0.8,0.7,1.5,1.4,1.5L82.4,98.9z M114.1,98.8
					c0.8,0,1.5-0.7,1.4-1.5l-0.1-28.7c0-0.8-0.7-1.5-1.4-1.5l-3.1,0c-0.8,0-1.5,0.7-1.4,1.5l0.1,28.7c0,0.8,0.7,1.5,1.4,1.5
					L114.1,98.8z M135.1,99c8.6,0,15.4-6.8,15.4-16.3c0-0.3,0-0.6-0.1-0.9l0-0.2c0-0.8-0.6-1.4-1.5-1.4l-13.7,0
					c-0.8,0-1.5,0.7-1.4,1.5l0,3c0,0.8,0.7,1.5,1.4,1.5l8.7,0c-1.2,4.1-4.6,6.5-8.9,6.5c-5.7,0-9.4-4.1-9.4-9.9c0-5.8,3.7-10,9.4-10
					c3.6,0,6.1,1.4,8,4.2c0.3,0.4,0.7,0.7,1.2,0.7l3.5,0c0.8,0,1.4-0.6,1.4-1.5c0-1.4-1.8-3.7-3-4.9c-2.9-3.1-6.7-4.7-11.2-4.7
					c-8.8,0-15.4,7.1-15.4,16.3C119.7,92.1,126.3,99,135.1,99z M158.9,98.7c0.8,0,1.5-0.7,1.4-1.5l0-11.3l13.2,0l0,11.3
					c0,0.8,0.6,1.5,1.4,1.5l3.2,0c0.8,0,1.4-0.7,1.4-1.5l-0.1-28.7c0-0.8-0.6-1.5-1.4-1.5l-3.2,0c-0.8,0-1.4,0.7-1.4,1.5l0.1,11.2
					l-13.2,0l-0.1-11.2c0-0.8-0.7-1.5-1.4-1.5l-3.1,0c-0.8,0-1.5,0.7-1.4,1.5l0.1,28.7c0,0.8,0.7,1.5,1.4,1.5L158.9,98.7z"/>
				<path id="Shape_4_" d="M206.7,52.5c0.5,0.3,0.8,0.3,0.8-0.1c-0.1-1,0.3-2.4,1.3-4.5c0.9-2.1,2-4.3,3.3-6.4
					c1.2-2.2,2.3-3.9,3.2-4.9c0.1-0.2,0.2-0.4,0.2-0.6c0-0.6-0.3-1.1-1-1.8c-0.7-0.7-1.4-1.3-2.2-1.8c-0.8-0.4-1.4-0.7-1.8-0.5
					c-0.4,0.1-1.1,1.2-2.2,3.1c-1,1.9-2,4-2.7,6.3c-0.8,2.2-1.2,4.1-1.2,5.3c0,1.7,0.2,3.1,0.8,4.1
					C205.5,51.6,206.1,52.3,206.7,52.5z M216.5,50.4c0.7,0.5,0.6,0.2,0.6-0.1c0.2-0.9,0.3-3.2,2.1-7c0.9-2.1,2-4.3,3.3-6.4
					c1.2-2.2,3.3-4.7,3.3-5.5c0.2-0.9-0.3-1.1-1-1.8c-0.7-0.7-1.4-1.3-2.2-1.8c-0.8-0.4-1.4-0.7-1.8-0.5c-0.4,0.1-4.3,6.9-5.1,9.2
					C211.6,45.1,215.3,49.4,216.5,50.4z M225.4,57.1c0.4-0.7,0.5-1.6,0.6-2.6c0-0.8-0.1-1.3-0.3-1.6l0,0c-0.1-0.1-0.1-0.2-0.2-0.3
					l0,0c-0.1,0-0.3-0.2-0.5-0.3c0.2-0.3,0.2-0.6,0.5-0.9c0.9-2.1,2-4.3,3.3-6.4c1.2-2.2,2.3-3.9,3.2-4.9c0.1-0.2,0.2-0.4,0.2-0.6
					c0-0.6-0.3-1.1-1-1.8c-0.7-0.7-1.4-1.3-2.2-1.8c-0.6-0.3-1.2-0.5-1.5-0.5c-0.1,0-0.2,0-0.3,0.1c-0.4,0.1-1.1,1.2-2.2,3.1
					c-1,1.9-2,4-2.7,6.3c-0.1,0.3-0.2,0.5-0.2,0.7c0,0.1,0,0.1-0.1,0.2c-0.1,0.4-0.3,0.8-0.4,1.3c0,0.1,0,0.1-0.1,0.2
					c-0.1,0.2-0.1,0.4-0.1,0.6c0,0.1-0.1,0.3-0.1,0.4c-0.1,0.3-0.1,0.5-0.1,0.8c0,0.1-0.1,0.3-0.1,0.4c0,0.1-0.1,0.2-0.1,0.3l0,0.1
					c0,0.1,0,0.3,0,0.4c0,0.6,0.1,1.3,0.2,1.9c-0.3,0-0.6,0-0.9,0c-1.8,0.1-3.7,0.4-5.9,0.9c-2.7,0.6-5.3,1.4-7.8,2.4
					c-2.4,1-4.2,1.9-5.4,2.9c-1.5,1.1-2.2,2.5-2.2,3.9c0,0.4,0,0.8,0.2,1.1s0.3,0.4,0.4,0.5c0.2,0,0.3-0.2,0.3-0.4
					c0.1-0.6,0.8-1.3,2.2-2c-1.7,2.7-3.5,5.9-5.5,9.5c-0.5,0.9-1,1.7-1.3,2.4c0.2-1.8,0.5-3.7,0.8-5.6c0.5-3,1.1-5.3,1.5-6.9
					c0.1-0.3,0.1-0.5,0-0.7c-0.2-0.7-0.8-1.2-1.9-1.7c-1-0.5-2.1-0.8-3.2-1c-1.1-0.2-1.8-0.1-2.2,0.2c-0.5,0.3-0.8,1.8-1.2,4.4
					c-0.3,2.6-0.5,5.3-0.5,8.3c0,2.9,0.3,5,0.8,6.4c0.7,1.9,1.5,3.4,2.5,4.3c1.8,1.6,3.1,1.7,4.3,0.8c0,0,4.4-3.2,7.2-4.6
					c2.8-1.4,5.2-2.1,7.3-2.1c0.9,0,1.8,0.2,2.6,0.6c-1.6,2.4-3.9,4.9-7,7.4c-3.1,2.5-6.3,4.6-9.4,6.2c-3.2,1.6-5.6,2.5-7.3,2.4
					c-0.3,0-0.6-0.1-0.9-0.2c-0.4-0.1-0.6,0.1-0.7,0.5c0,0.6,0.3,1.5,0.9,2.6c0.6,1,1.3,2.1,2.2,2.9c0.9,0.8,1.7,1.3,2.6,1.3
					c1.6,0,4-1,7.2-2.9c3.2-1.9,6.2-4.3,9.1-7.1c2.9-2.8,4.8-5.6,5.8-8.2c0.5-1.2,0.7-2.5,0.8-4c0-1.2-0.2-2.5-0.5-3.5
					c-0.3-1.1-0.6-1.7-0.9-1.9c-0.3-0.5-0.6-0.8-1-1c-1-0.4-2-0.6-3.1-0.5c-1.9,0-3.9,0.5-6.1,1.3c-2.2,0.8-4.2,1.9-6.2,3.2
					c1.3-2.7,2.6-5.2,4-7.5c1.4-2.4,2.6-4.1,3.7-5.1c0.1-0.1,0.2-0.3,0.2-0.5c0-0.4-0.3-0.8-0.7-1.2c2.1-0.8,4.6-1.4,7.1-2
					c2.5-0.5,4.8-0.8,6.8-0.8c2.2,0,3.7,0.3,4.6,0.9C224.6,58.1,225.1,57.9,225.4,57.1z M234.3,49.7c-0.6-0.6-1.3-1.2-2.1-1.5
					c-0.8-0.4-1.3-0.5-1.7-0.4c-0.4,0.1-1.1,1-2,2.8c-1,1.7-1.8,3.6-2.6,5.6s-1.1,3.6-1.1,4.8c0,1.5,0.2,2.8,0.7,3.7
					c0.5,0.9,1,1.5,1.6,1.8c0.5,0.3,0.8,0.3,0.7-0.1c-0.1-0.9,0.3-2.3,1.2-4.1c0.8-1.8,1.8-3.8,3.1-5.8c1.2-2,2.2-3.5,3-4.4
					c0.1-0.2,0.2-0.4,0.2-0.5C235.2,50.9,234.9,50.3,234.3,49.7z"/>
			</g>
		</g>
	</g>
</g>
</svg>
