<?xml version="1.0" encoding="utf-8"?>
<!-- Generator: Adobe Illustrator 24.0.1, SVG Export Plug-In . SVG Version: 6.00 Build 0)  -->
<svg version="1.1" id="Capa_1" xmlns="http://www.w3.org/2000/svg" xmlns:xlink="http://www.w3.org/1999/xlink" x="0px" y="0px"
	 viewBox="0 0 512 512" style="enable-background:new 0 0 512 512;" xml:space="preserve">
<style type="text/css">
	.st0{fill:#FF7972;}
</style>
<g>
	<g>
		<path className="st0" d="M414,148.8c5.5,0,10-4.5,10-10V30c0-16.5-13.5-30-30-30H30C13.5,0,0,13.5,0,30v452c0,16.5,13.5,30,30,30h364
			c16.5,0,30-13.5,30-30v-73.7c0-5.5-4.5-10-10-10s-10,4.5-10,10V482c0,5.5-4.5,10-10,10H30c-5.5,0-10-4.5-10-10V30
			c0-5.5,4.5-10,10-10h364c5.5,0,10,4.5,10,10v108.8C404,144.3,408.5,148.8,414,148.8z"/>
	</g>
</g>
<g>
	<g>
		<path className="st0" d="M212,54c-50.7,0-92,41.3-92,92c0,26.3,11.1,50.1,28.9,66.9c0.3,0.4,0.7,0.7,1.1,1c16.4,15,38.2,24.1,62,24.1
			s45.7-9.2,62-24.1c0.4-0.3,0.7-0.6,1.1-1c17.8-16.8,28.9-40.6,28.9-66.9C304,95.3,262.7,54,212,54z M212,218
			c-16.3,0-31.4-5.5-43.5-14.7c8.8-15.6,25.2-25.3,43.5-25.3s34.7,9.7,43.5,25.3C243.4,212.5,228.3,218,212,218z M196,142v-6.5
			c0-8.8,7.2-16,16-16s16,7.2,16,16v6.5c0,8.8-7.2,16-16,16S196,150.8,196,142z M269.9,188.7c-7.4-10.9-17.6-19.4-29.5-24.7
			c4.7-6.1,7.5-13.7,7.5-22v-6.5c0-19.9-16.1-36-36-36s-36,16.1-36,36v6.5c0,8.3,2.8,15.9,7.5,22c-11.9,5.3-22.1,13.8-29.5,24.7
			c-8.8-12-14.1-26.7-14.1-42.7c0-39.7,32.3-72,72-72s72,32.3,72,72C284,162,278.8,176.7,269.9,188.7z"/>
	</g>
</g>
<g>
	<g>
		<path className="st0" d="M266,438h-54c-5.5,0-10,4.5-10,10s4.5,10,10,10h54c5.5,0,10-4.5,10-10S271.5,438,266,438z"/>
	</g>
</g>
<g>
	<g>
		<path className="st0" d="M266,382H124c-5.5,0-10,4.5-10,10s4.5,10,10,10h142c5.5,0,10-4.5,10-10S271.5,382,266,382z"/>
	</g>
</g>
<g>
	<g>
		<path className="st0" d="M266,326H124c-5.5,0-10,4.5-10,10s4.5,10,10,10h142c5.5,0,10-4.5,10-10S271.5,326,266,326z"/>
	</g>
</g>
<g>
	<g>
		<path className="st0" d="M88.4,272.9c-1.9-1.9-4.4-2.9-7.1-2.9c-2.6,0-5.2,1.1-7.1,2.9c-1.9,1.9-2.9,4.4-2.9,7.1s1.1,5.2,2.9,7.1
			c1.9,1.9,4.4,2.9,7.1,2.9c2.6,0,5.2-1.1,7.1-2.9c1.9-1.9,2.9-4.4,2.9-7.1S90.2,274.8,88.4,272.9z"/>
	</g>
</g>
<g>
	<g>
		<path className="st0" d="M88.4,328.9c-1.9-1.9-4.4-2.9-7.1-2.9c-2.6,0-5.2,1.1-7.1,2.9c-1.9,1.9-2.9,4.4-2.9,7.1s1.1,5.2,2.9,7.1
			c1.9,1.9,4.4,2.9,7.1,2.9c2.6,0,5.2-1.1,7.1-2.9c1.9-1.9,2.9-4.4,2.9-7.1S90.2,330.8,88.4,328.9z"/>
	</g>
</g>
<g>
	<g>
		<path className="st0" d="M88.4,384.9c-1.9-1.9-4.4-2.9-7.1-2.9c-2.6,0-5.2,1.1-7.1,2.9c-1.9,1.9-2.9,4.4-2.9,7.1s1.1,5.2,2.9,7.1
			c1.9,1.9,4.4,2.9,7.1,2.9c2.6,0,5.2-1.1,7.1-2.9c1.9-1.9,2.9-4.4,2.9-7.1S90.2,386.8,88.4,384.9z"/>
	</g>
</g>
<g>
	<g>
		<path className="st0" d="M266,270H124c-5.5,0-10,4.5-10,10s4.5,10,10,10h142c5.5,0,10-4.5,10-10S271.5,270,266,270z"/>
	</g>
</g>
<g>
	<path className="st0" d="M319,314.8v-24.7c25.9,0,38.8-12.8,51.3-25.2c3-3,6.1-6.1,9.4-8.9c-3.2-2.8-6.3-5.9-9.4-8.9
		c-12.5-12.4-25.4-25.2-51.3-25.2v-24.7c36,0,54.9,18.7,68.7,32.4c8.2,8.1,13.4,13,19,14c0.7,0,1.3-0.1,2-0.1v0.3l0,0H468
		l-10.1-25.6c-0.3-0.9-0.1-1.8,0.7-2.4c0.7-0.6,1.8-0.6,2.5,0l50.4,38.7c0.5,0.4,0.8,1,0.8,1.6s-0.3,1.2-0.8,1.6L461,296.5
		c-0.4,0.3-0.8,0.4-1.2,0.4c-0.4,0-0.9-0.1-1.2-0.4c-0.7-0.6-1-1.5-0.7-2.4l10.1-25.6h-59.4c0,0,0,0-0.1,0c-0.6,0-1.3,0-1.9-0.1
		c-5.6,1-10.8,5.9-19,14C373.9,296,355,314.8,319,314.8z"/>
</g>
</svg>
