<?xml version="1.0" encoding="utf-8"?>
<!-- Generator: Adobe Illustrator 24.0.1, SVG Export Plug-In . SVG Version: 6.00 Build 0)  -->
<svg version="1.1" id="Capa_1" xmlns="http://www.w3.org/2000/svg" xmlns:xlink="http://www.w3.org/1999/xlink" x="0px" y="0px"
	 viewBox="0 0 512 512" style="enable-background:new 0 0 512 512;" xml:space="preserve">
<style type="text/css">
	.st0{fill:#FF7972;}
</style>
<g>
	<g>
		<g>
			<path className="st0" d="M273.1,106.7h-8.5c-4.7,0-8.5,3.8-8.5,8.5s3.8,8.5,8.5,8.5h8.5c4.7,0,8.5-3.8,8.5-8.5
				S277.8,106.7,273.1,106.7z"/>
			<path className="st0" d="M45.9,107.3c-3.2-1.3-6.8-0.6-9.3,1.8c-1.6,1.6-2.4,3.8-2.5,6.1c0,1.1,0.2,2.2,0.7,3.2c0.4,1,1,2,1.8,2.8
				c0.4,0.4,0.8,0.7,1.3,1c0.5,0.3,1,0.6,1.5,0.8c0.5,0.2,1,0.4,1.5,0.5c0.6,0.1,1.1,0.2,1.7,0.2c3.5,0,6.6-2.1,7.9-5.3
				s0.6-6.9-1.8-9.3C47.9,108.4,46.9,107.8,45.9,107.3z"/>
			<path className="st0" d="M71.5,107.3c-3.2-1.3-6.8-0.6-9.3,1.8c-1.6,1.6-2.5,3.8-2.5,6.1c0,2.3,0.9,4.4,2.5,6.1
				c0.4,0.4,0.8,0.7,1.3,1c0.5,0.3,1,0.6,1.5,0.8c0.5,0.2,1,0.4,1.5,0.5c0.6,0.1,1.1,0.2,1.7,0.2c3.4,0,6.6-2.1,7.9-5.3
				s0.6-6.9-1.8-9.3C73.5,108.4,72.5,107.8,71.5,107.3z"/>
			<path className="st0" d="M87.8,109.1c-1.6,1.6-2.5,3.8-2.5,6.1c0,2.3,0.9,4.5,2.5,6.1s3.8,2.5,6.1,2.5c2.3,0,4.5-0.9,6.1-2.5
				s2.5-3.8,2.5-6.1c0-2.3-0.9-4.4-2.5-6.1C96.5,106,91.2,106,87.8,109.1z"/>
			<path className="st0" d="M162.1,243.2c-23.6,0-42.7,19.1-42.7,42.7c0,23.6,19.1,42.7,42.7,42.7s42.7-19.1,42.7-42.7
				C204.8,262.3,185.7,243.2,162.1,243.2z M162.1,311.5c-14.1,0-25.6-11.5-25.6-25.6s11.5-25.6,25.6-25.6s25.6,11.5,25.6,25.6
				C187.7,300,176.3,311.5,162.1,311.5z"/>
			<path className="st0" d="M469.3,4.3H230.4c-23.6,0-42.6,19.1-42.7,42.7v25.6H42.7C19.1,72.6,0,91.6,0,115.2v366.9
				c0,9.4,7.6,17.1,17.1,17.1h290.1c1.5,0,3-0.2,4.5-0.6c45.8,16.8,96.8,10.2,136.8-17.7c39.9-28,63.7-73.7,63.5-122.4V46.9
				C512,23.4,492.9,4.3,469.3,4.3z M17.1,115.2c0-14.1,11.5-25.6,25.6-25.6h238.9c14.1,0,25.6,11.5,25.6,25.6v25.6H17.1V115.2z
				 M17.1,482.1V157.9h290.1v62c-15.3,6.1-29.4,14.8-41.9,25.5c-2.5-6.5-5.7-12.8-9.4-18.7c-0.1-0.3-0.3-0.5-0.5-0.8
				c-32.6-50.8-99.7-66.2-151.2-34.8C52.7,222.5,35.8,289.3,66,341.5s96.7,70.7,149.5,41.6c1.7,10.5,4.6,20.9,8.6,30.8H85.3
				c-14.1,0.1-25.5,11.5-25.6,25.6c0,14.1,11.5,25.6,25.6,25.6h153.6c5.3,0,10.5-1.7,14.8-4.8c7.6,8.2,16.1,15.6,25.4,21.9
				L17.1,482.1L17.1,482.1z M213.6,364.3c-31.7,20.8-72.9,20.4-104.3-0.9s-46.8-59.5-39-96.7c7.7-37.2,37.1-66,74.4-73.1
				s75.2,9,96,40.8c0.1,0.3,0.3,0.5,0.4,0.8c4.7,7.3,8.3,15.1,10.7,23.4c-24.8,27.3-38.5,62.9-38.6,99.8
				C213.3,360.4,213.6,362.3,213.6,364.3z M232.2,430.9c3.1,5.6,6.6,10.9,10.5,16.1c-1.2,0.6-2.5,1-3.8,1H85.3
				c-4.7,0-8.5-3.8-8.5-8.5c0-2.3,0.9-4.5,2.6-6.1c1.6-1.6,3.7-2.5,5.9-2.5h119.5L232.2,430.9L232.2,430.9z M362.7,490.7
				c-73,0-132.3-59.2-132.3-132.3s59.2-132.3,132.3-132.3s132.3,59.2,132.3,132.3C494.9,431.4,435.7,490.6,362.7,490.7z
				 M366.3,178.2c-14-5.8-30-3.8-42.1,5.5v-56.3c8.3-2.4,16.9-3.6,25.6-3.6c27.5-0.1,53.7,11.9,71.6,32.8
				c17.9,20.9,25.6,48.7,21.1,75.8c-15.4-9.9-32.6-16.8-50.5-20.4C390.1,196.9,380.3,184.1,366.3,178.2z M374,209.6
				c-3.7-0.3-7.5-0.6-11.3-0.6c-12.9,0-25.6,1.8-38.1,5.1c1.5-11.8,11-21,22.9-22.1C359.3,191,370.4,198.3,374,209.6z M494.9,289.3
				c-9.2-17.6-21.9-33.3-37.2-46c2-8.4,3.1-17.1,3.1-25.7c-0.1-61.2-49.7-110.9-110.9-110.9c-8.8,0-17.6,1.1-26.1,3.2
				c-0.9-7.4-3.7-14.3-8.2-20.3h179.4V289.3z M494.9,72.5H204.8V46.9c0-14.1,11.5-25.6,25.6-25.6h238.9c14.1,0,25.6,11.5,25.6,25.6
				V72.5z"/>
			<path className="st0" d="M460.8,38.4h-8.5c-4.7,0-8.5,3.8-8.5,8.5s3.8,8.5,8.5,8.5h8.5c4.7,0,8.5-3.8,8.5-8.5S465.5,38.4,460.8,38.4z
				"/>
			<path className="st0" d="M236.5,40.9c-2-2-5-2.9-7.8-2.3c-0.5,0.1-1.1,0.3-1.5,0.5c-0.5,0.2-1.1,0.4-1.5,0.8c-0.4,0.3-0.9,0.7-1.3,1
				c-0.8,0.8-1.4,1.8-1.8,2.8c-0.9,2.1-0.9,4.4,0,6.5c0.4,1,1,2,1.8,2.8c0.4,0.4,0.8,0.7,1.3,1c0.5,0.3,1,0.6,1.5,0.8
				c0.5,0.2,1,0.4,1.5,0.5c0.6,0.1,1.1,0.2,1.7,0.2c2.3,0,4.4-0.9,6.1-2.5c0.8-0.8,1.4-1.8,1.8-2.8c0.9-2.1,0.9-4.4,0-6.5
				C237.8,42.7,237.2,41.7,236.5,40.9z"/>
			<path className="st0" d="M260.7,39.8c-0.4-0.3-0.9-0.6-1.5-0.8c-0.5-0.3-1.1-0.4-1.6-0.5c-2.8-0.6-5.7,0.3-7.7,2.3
				c-0.4,0.4-0.7,0.9-1,1.4c-0.3,0.4-0.6,0.9-0.8,1.5c-0.3,0.5-0.4,1.1-0.5,1.6c-0.1,0.5-0.2,1.1-0.2,1.6c0,2.3,0.9,4.4,2.5,6.1
				c1.6,1.6,3.8,2.5,6.1,2.5c0.5,0,1.1-0.1,1.6-0.2c0.6-0.1,1.1-0.3,1.6-0.5c0.5-0.2,1-0.4,1.5-0.8c0.5-0.3,0.9-0.7,1.4-1
				c0.8-0.8,1.4-1.8,1.8-2.8c0.4-1,0.7-2.1,0.7-3.2c0-2.3-0.9-4.4-2.5-6.1C261.6,40.5,261.2,40.2,260.7,39.8z"/>
			<path className="st0" d="M287.7,40.9c-0.4-0.4-0.8-0.7-1.3-1c-0.5-0.3-1-0.6-1.5-0.8c-0.5-0.3-1.1-0.4-1.6-0.5
				c-1.6-0.3-3.3-0.2-4.9,0.5c-1,0.4-2,1-2.8,1.8c-0.8,0.8-1.4,1.8-1.8,2.8c-0.4,1-0.7,2.1-0.7,3.2c0,2.3,0.9,4.4,2.5,6.1
				c0.8,0.8,1.8,1.4,2.8,1.8c1,0.5,2.1,0.7,3.2,0.7c0.5,0,1.1-0.1,1.6-0.2c0.6-0.1,1.1-0.3,1.6-0.5c0.5-0.2,1.1-0.4,1.5-0.8
				c0.4-0.3,0.9-0.7,1.3-1c1.6-1.6,2.4-3.8,2.5-6.1c0-1.1-0.2-2.2-0.7-3.2C289,42.7,288.4,41.7,287.7,40.9z"/>
			<path className="st0" d="M348.9,324.6c-1.5-2.8-4.4-4.6-7.6-4.6h-17.1v-8.5h42.7c14.1,0,25.6-11.5,25.6-25.6s-11.5-25.6-25.6-25.6
				h-42.7c-28.3,0-51.2,22.9-51.2,51.2v8.5H256c-3.2,0-6.1,1.8-7.6,4.6s-1.2,6.3,0.6,8.9l42.7,59.7c1.6,2.2,4.2,3.6,6.9,3.6
				c2.8,0,5.3-1.3,6.9-3.6l42.7-59.7C350.1,330.9,350.4,327.5,348.9,324.6z M298.7,373.6l-26.1-36.5h9c2.3,0,4.4-0.9,6-2.5
				c1.6-1.6,2.5-3.8,2.5-6v-17.1c0-18.8,15.3-34.1,34.1-34.1h42.7c4.7,0,8.5,3.8,8.5,8.5s-3.8,8.5-8.5,8.5h-42.7
				c-9.4,0-17.1,7.6-17.1,17.1v17.1c0,2.3,0.9,4.4,2.5,6c1.6,1.6,3.8,2.5,6,2.5h9L298.7,373.6z"/>
			<path className="st0" d="M426.7,320.2c-2.7,0-5.3,1.2-6.9,3.4l-42.7,59.7c-1.9,2.6-2.1,6-0.6,8.9s4.4,4.6,7.6,4.6h17.1v8.5h-42.7
				c-14.1,0-25.6,11.5-25.6,25.6s11.5,25.6,25.6,25.6h42.7c28.3,0,51.2-22.9,51.2-51.2v-8.5h17.1c3.2,0,6.1-1.8,7.6-4.6
				s1.2-6.3-0.6-8.9l-42.7-59.7C431.9,321.4,429.4,320.2,426.7,320.2z M443.7,379.7c-2.3,0-4.4,0.9-6,2.5c-1.6,1.6-2.5,3.8-2.5,6
				v17.1c0,18.8-15.3,34.1-34.1,34.1h-42.7c-4.7,0-8.5-3.8-8.5-8.5s3.8-8.5,8.5-8.5h42.7c9.4,0,17.1-7.6,17.1-17.1v-17.1
				c0-2.3-0.9-4.4-2.5-6c-1.6-1.6-3.8-2.5-6-2.5h-9l26.1-36.5l26.1,36.5L443.7,379.7L443.7,379.7z"/>
		</g>
	</g>
</g>
</svg>
