<?xml version="1.0" encoding="utf-8"?>
<!-- Generator: Adobe Illustrator 24.1.0, SVG Export Plug-In . SVG Version: 6.00 Build 0)  -->
<svg version="1.1" id="Layer_1" xmlns="http://www.w3.org/2000/svg" xmlns:xlink="http://www.w3.org/1999/xlink" x="0px" y="0px"
	 viewBox="0 0 512 512" style="enable-background:new 0 0 512 512;" xml:space="preserve">
<style type="text/css">
	.st0{fill:#F3F1FF;}
	.st1{fill:#8668FE;}
</style>
<circle className="st0" cx="256" cy="255.5" r="256"/>
<g>
	<path className="st1" d="M233.5,263.5h45v15h-45V263.5z"/>
	<path className="st1" d="M335.7,278.5h-42.2v7.5c0,4.1-3.4,7.5-7.5,7.5h-60c-4.1,0-7.5-3.4-7.5-7.5v-7.5h-42.2
		c-9.7,0-18.2-6.2-21.4-15.4L128,182.2V346c0,12.4,10.1,22.5,22.5,22.5h211c12.4,0,22.5-10.1,22.5-22.5V182.2l-27,80.9
		C354,272.3,345.4,278.5,335.7,278.5z"/>
	<path className="st1" d="M286,143.5h-60c-12.4,0-22.5,10.1-22.5,22.5v7.5h-62.6l28.3,84.9c1.1,3.1,3.9,5.1,7.1,5.1h42.2V256
		c0-4.1,3.4-7.5,7.5-7.5h60c4.1,0,7.5,3.4,7.5,7.5v7.5h42.2c3.2,0,6.1-2,7.1-5.1l28.3-84.9h-62.6V166
		C308.5,153.6,298.4,143.5,286,143.5z M218.5,173.5V166c0-4.1,3.4-7.5,7.5-7.5h60c4.1,0,7.5,3.4,7.5,7.5v7.5H218.5z"/>
</g>
</svg>
