<?xml version="1.0" encoding="utf-8"?>
<!-- Generator: Adobe Illustrator 24.0.1, SVG Export Plug-In . SVG Version: 6.00 Build 0)  -->
<svg version="1.1" id="Capa_1" xmlns="http://www.w3.org/2000/svg" xmlns:xlink="http://www.w3.org/1999/xlink" x="0px" y="0px"
	 viewBox="0 0 369 369" style="enable-background:new 0 0 369 369;" xml:space="preserve">
<style type="text/css">
	.st0{fill:#9B97AF;}
</style>
<g>
	<path className="st0" d="M362.5,121.1c-2.2,0-3.9,1.2-4.5,1.7L249.6,218c-2.1,1.9-4.7,2.9-7.6,2.9c-2.9,0-5.6-1-7.7-2.9l-105.1-92.1
		c-0.9-0.8-3-2.5-5.6-2.5c-0.7,0-6.5,0.2-6.5,8.1v141.3c0,9.2,7.4,16.7,16.6,16.7h219.2c9.1,0,16.2-7.3,16.2-16.7V129.3
		C369,121.3,363.2,121.1,362.5,121.1z"/>
	<path className="st0" d="M127,92.5l105.8,91.3c1,0.9,4.2,3.7,9.2,3.7c4.7,0,8.1-2.7,8.7-3.2l107-93.4l0.1-0.1c1.5-1.4,4.5-4.2,3-7.9
		c-0.8-2-2.7-3.3-4.9-3.3H130.4c-2.7,0-5.1,1.5-6.1,3.9c-0.7,1.6-1.3,4.9,2.5,8.9L127,92.5z"/>
	<path className="st0" d="M80,134.5H50c-5.5,0-10,4.5-10,10v7c0,5.5,4.5,10,10,10h30c5.5,0,10-4.5,10-10v-7C90,139,85.5,134.5,80,134.5z
		"/>
	<path className="st0" d="M80,178.5H30c-5.5,0-10,4.5-10,10v7c0,5.5,4.5,10,10,10h50c5.5,0,10-4.5,10-10v-7C90,183,85.5,178.5,80,178.5z
		"/>
	<path className="st0" d="M80,222.5H10c-5.5,0-10,4.5-10,10v7c0,5.5,4.5,10,10,10h70c5.5,0,10-4.5,10-10v-7C90,227,85.5,222.5,80,222.5z
		"/>
</g>
</svg>
