<?xml version="1.0" encoding="utf-8"?>
<!-- Generator: Adobe Illustrator 24.0.1, SVG Export Plug-In . SVG Version: 6.00 Build 0)  -->
<svg version="1.1" id="Capa_1" xmlns="http://www.w3.org/2000/svg" xmlns:xlink="http://www.w3.org/1999/xlink" x="0px" y="0px"
	 viewBox="0 0 490 490" style="enable-background:new 0 0 490 490;" xml:space="preserve">
<style type="text/css">
	.st0{fill:#D2A9ED;}
</style>
<g>
	<g>
		<path className="st0" d="M393.9,454.5c-2.3,0-4.6-0.8-6.4-2.4L288.1,368h-220C30.6,368,0,337.2,0,299.5V104
			c0-37.8,30.6-68.5,68.1-68.5h353.8c37.6,0,68.1,30.7,68.1,68.5v195.5c0,37.8-30.6,68.5-68.1,68.5h-18.1v76.5
			c0,3.9-2.2,7.4-5.8,9.1C396.7,454.2,395.3,454.5,393.9,454.5z M68.1,55.5c-26.6,0-48.2,21.8-48.2,48.5v195.5
			c0,26.7,21.6,48.5,48.2,48.5h223.7c2.3,0,4.6,0.8,6.4,2.4l85.7,72.7v-65c0-5.5,4.5-10,9.9-10h28c26.6,0,48.2-21.8,48.2-48.5V104
			c0-26.7-21.6-48.5-48.2-48.5C421.9,55.5,68.1,55.5,68.1,55.5z"/>
	</g>
	<g>
		<g>
			<path className="st0" d="M405.2,147.5H84.8c-5.5,0-9.9-4.5-9.9-10c0-5.5,4.5-10,9.9-10h320.3c5.5,0,9.9,4.5,9.9,10
				C415.1,143,410.7,147.5,405.2,147.5z"/>
		</g>
		<g>
			<path className="st0" d="M405.2,211.5H84.8c-5.5,0-9.9-4.5-9.9-10c0-5.5,4.5-10,9.9-10h320.3c5.5,0,9.9,4.5,9.9,10
				C415.1,207,410.7,211.5,405.2,211.5z"/>
		</g>
		<g>
			<path className="st0" d="M405.2,275.5H84.8c-5.5,0-9.9-4.5-9.9-10c0-5.5,4.5-10,9.9-10h320.3c5.5,0,9.9,4.5,9.9,10
				C415.1,271.1,410.7,275.5,405.2,275.5z"/>
		</g>
	</g>
</g>
</svg>
