<?xml version="1.0" encoding="utf-8"?>
<!-- Generator: Adobe Illustrator 24.0.1, SVG Export Plug-In . SVG Version: 6.00 Build 0)  -->
<svg version="1.1" id="Layer_1" xmlns="http://www.w3.org/2000/svg" xmlns:xlink="http://www.w3.org/1999/xlink" x="0px" y="0px"
	 viewBox="0 0 471 471" style="enable-background:new 0 0 471 471;" xml:space="preserve">
<style type="text/css">
	.st0{fill:#886FC5;}
</style>
<path className="st0" d="M141.2,221.2c0,55.7,45.2,100.9,100.9,100.9s100.9-45.2,100.9-100.9S297.7,120.3,242,120.3
	C186.3,120.4,141.2,165.5,141.2,221.2z M242,227.5c-16.7,0.1-30.9-12.3-33.1-28.9c-2.1-16.6,8.4-32.2,24.6-36.3v-8.5
	c0-3.9,3.1-7,7-7c3.9,0,7,3.1,7,7v8.1c15.9,2.7,27.4,16.5,27.3,32.6c0,3.8-3.1,6.9-6.9,6.9c-3.8,0-6.9-3.1-6.9-6.9
	c0-10.6-8.6-19.1-19.1-19.1c-10.6,0-19.1,8.6-19.1,19.1c0,10.6,8.6,19.1,19.1,19.1c17.1,0.1,31.3,13.2,32.8,30.3
	c1.4,17.1-10.4,32.4-27.2,35.4v8.3c0,3.9-3.1,7-7,7c-3.9,0-7-3.1-7-7v-8.8c-14.6-3.9-24.8-17-24.9-32.1c0-3.9,3.2-7.1,7.1-7.1
	c3.9,0,7.1,3.2,7.1,7.1c0,9.8,7.4,17.9,17.1,19c0.4-0.1,0.7-0.1,1.1-0.1c0.5,0,1,0.1,1.6,0.2c10.5-0.3,18.8-8.9,18.7-19.4
	C261.1,235.9,252.5,227.5,242,227.5z"/>
<path className="st0" d="M403.9,370.1c-0.1,0-0.1,0.1-0.2,0.1l-64.9,30.7c0.7,3.6,1,7.2,0.9,10.9c-0.1,3.8-3.2,6.8-7,6.8
	c-0.1,0-0.1,0-0.2,0l-95-2.6c-3.9-0.1-6.9-3.3-6.8-7.2c0.1-3.9,3.3-6.9,7.2-6.8l87.3,2.4c-2.9-16.9-17.3-29.4-34.5-29.9l-57.8-1.6
	c-11.4-0.3-22.6-3.2-32.7-8.5l-5.9-3c-28.9-15-63.6-13.1-90.6,5.1l-2.3,84l9.9-5.3c9.9-5.3,21.4-6.6,32.2-3.5l98,27.5
	c18.9,3.9,38.5,1.7,56.1-6.3L433.5,375C425.8,367.1,413.8,365.1,403.9,370.1z"/>
<path className="st0" d="M37.7,465.1l3.4-125l49.4,1.4l-3.4,125L37.7,465.1z"/>
<path className="st0" d="M248.6,82.9V7c0-3.9-3.1-7-7-7c-3.9,0-7,3.1-7,7v75.9c0,3.9,3.1,7,7,7C245.4,89.9,248.6,86.7,248.6,82.9z"/>
<path className="st0" d="M308.5,82.9V46.9c0-3.9-3.1-7-7-7c-3.9,0-7,3.1-7,7v35.9c0,3.9,3.1,7,7,7C305.3,89.9,308.5,86.7,308.5,82.9z"/>
<path className="st0" d="M188.7,82.9V46.9c0-3.9-3.1-7-7-7c-3.9,0-7,3.1-7,7v35.9c0,3.9,3.1,7,7,7C185.5,89.9,188.7,86.7,188.7,82.9z"/>
</svg>
