<?xml version="1.0" encoding="utf-8"?>
<!-- Generator: Adobe Illustrator 24.0.1, SVG Export Plug-In . SVG Version: 6.00 Build 0)  -->
<svg version="1.1" id="Capa_1" xmlns="http://www.w3.org/2000/svg" xmlns:xlink="http://www.w3.org/1999/xlink" x="0px" y="0px"
	 viewBox="0 0 60 60" style="enable-background:new 0 0 60 60;" xml:space="preserve">
<style type="text/css">
	.st0{fill:#FF6158;}
</style>
<g>
	<path className="st0" d="M30,20.5c-6.6,0-12,5.4-12,12s5.4,12,12,12s12-5.4,12-12S36.6,20.5,30,20.5z"/>
	<path className="st0" d="M55.2,15.5h-8.5l-4-10H17.3l-4,10H12v-5H6v5H4.8c-2.6,0-4.8,2.2-4.8,4.8v29.4c0,2.7,2.2,4.8,4.8,4.8h50.3
		c2.7,0,4.8-2.2,4.8-4.8V20.3C60,17.7,57.8,15.5,55.2,15.5z M10,15.5H8v-3h2V15.5z M30,50.5c-9.9,0-18-8.1-18-18s8.1-18,18-18
		s18,8.1,18,18S39.9,50.5,30,50.5z M52,27.5c-2.2,0-4-1.8-4-4s1.8-4,4-4s4,1.8,4,4S54.2,27.5,52,27.5z"/>
</g>
</svg>
