<?xml version="1.0" encoding="utf-8"?>
<!-- Generator: Adobe Illustrator 24.1.0, SVG Export Plug-In . SVG Version: 6.00 Build 0)  -->
<svg version="1.1" id="Capa_1" xmlns="http://www.w3.org/2000/svg" xmlns:xlink="http://www.w3.org/1999/xlink" x="0px" y="0px"
	 viewBox="0 0 512 512" style="enable-background:new 0 0 512 512;" xml:space="preserve">
<style type="text/css">
	.st0{fill:#FEF3ED;}
	.st1{fill:#FA8967;}
</style>
<circle className="st0" cx="256" cy="255.5" r="256"/>
<g>
	<g>
		<path className="st1" d="M346.5,165.5C322.4,141.3,290.2,128,256,128s-66.4,13.3-90.5,37.5C141.3,189.6,128,221.8,128,256
			s13.3,66.4,37.5,90.5c24.2,24.2,56.3,37.5,90.5,37.5s66.4-13.3,90.5-37.5c24.2-24.2,37.5-56.3,37.5-90.5S370.7,189.6,346.5,165.5z
			 M264,311.7h-0.5v16.6c0,4.2-3.4,7.5-7.5,7.5s-7.5-3.3-7.5-7.5v-16.6h-16.6c-4.1,0-7.5-3.4-7.5-7.5c0-4.2,3.4-7.5,7.5-7.5H264
			c9.2,0,16.6-7.5,16.6-16.6c0-9.1-7.5-16.6-16.6-16.6h-16c-17.4,0-31.6-14.2-31.6-31.6s14.2-31.6,31.6-31.6h0.6v-16.6
			c0-4.2,3.3-7.5,7.5-7.5c4.2,0,7.5,3.3,7.5,7.5v16.6h16.6c4.1,0,7.5,3.3,7.5,7.5s-3.4,7.5-7.5,7.5H248c-9.1,0-16.6,7.4-16.6,16.6
			c0,9.2,7.4,16.6,16.6,16.6h16c17.4,0,31.6,14.2,31.6,31.6S281.5,311.7,264,311.7z"/>
	</g>
</g>
</svg>
