<?xml version="1.0" encoding="utf-8"?>
<!-- Generator: Adobe Illustrator 24.1.0, SVG Export Plug-In . SVG Version: 6.00 Build 0)  -->
<svg version="1.1" id="Layer_1" xmlns="http://www.w3.org/2000/svg" xmlns:xlink="http://www.w3.org/1999/xlink" x="0px" y="0px"
	 viewBox="0 0 490.7 490.7" style="enable-background:new 0 0 490.7 490.7;" xml:space="preserve">
<style type="text/css">
	.st0{fill:#A3ABBA;}
</style>
<g>
	<g>
		<path className="st0" d="M184.6,287l12.7,8.5c29.2,19.5,66.9,19.5,96.1,0l12.7-8.5H184.6z"/>
	</g>
</g>
<g>
	<g>
		<path className="st0" d="M468.8,148.3L448,133.2v79.1c0,0.3-0.2,0.6-0.2,1c-0.1,0.7-0.2,1.4-0.4,2.2c-0.2,0.6-0.4,1.2-0.7,1.8
			s-0.7,1.1-1.1,1.6c-0.5,0.6-1,1.1-1.5,1.6c-0.3,0.2-0.4,0.5-0.7,0.7l-138,92c-18.2,12.1-39,18.2-59.9,18.2s-41.7-6.1-59.9-18.2
			l-138-92c-0.3-0.2-0.4-0.5-0.7-0.7c-0.6-0.5-1.1-1-1.5-1.6c-0.4-0.5-0.8-1.1-1.1-1.6c-0.3-0.6-0.6-1.2-0.7-1.8
			c-0.2-0.7-0.4-1.4-0.4-2.2c0-0.3-0.2-0.6-0.2-1v-79.1l-20.8,15.1C8.2,158.3,0,174.6,0,191.9v233.7C0,455,23.1,479,51.5,479h387.7
			c28.4,0,51.5-23.9,51.5-53.3V191.9C490.7,174.6,482.5,158.3,468.8,148.3z"/>
	</g>
</g>
<g>
	<g>
		<path className="st0" d="M309.9,32.7c-38.6-28.1-90.5-28.1-129.1,0l-26.9,19.6H332L309.9,32.7z"/>
	</g>
</g>
<g>
	<g>
		<path className="st0" d="M256,182v18.6c14.2-2.2,21.3-7.9,21.3-9.6C277.3,190.9,277,185.8,256,182z"/>
	</g>
</g>
<g>
	<g>
		<path className="st0" d="M213.3,148.3c0,0.1,0.3,5.2,21.3,9v-18.7C221,140.8,213.3,146.2,213.3,148.3z"/>
	</g>
</g>
<g>
	<g>
		<path className="st0" d="M416,73.6H74.7c-5.9,0-10.7,4.8-10.7,10.7v122.3c0,0,101.9,59.1,96,59.1h170.7c1.9,0,96-59.1,96-59.1V84.3
			C426.7,78.4,421.9,73.6,416,73.6z M298.7,191c0,16-17.7,28.6-42.7,31.4v11.3c0,5.9-4.8,10.7-10.7,10.7s-10.7-4.8-10.7-10.7v-11.3
			c-23.4-2.6-40.7-13.9-42.6-28.7c-0.7-5.8,3.4-11.2,9.3-11.9c5.8-0.6,11.2,3.4,11.9,9.3c0.3,2.5,8.1,7.6,21.4,9.7v-21.8
			c-17.4-2.7-42.7-9.3-42.7-30.6c0-16,17.7-28.6,42.7-31.4v-11.3c0-5.9,4.8-10.7,10.7-10.7s10.7,4.8,10.7,10.7v11.3
			c23.4,2.6,40.7,13.9,42.6,28.7c0.7,5.8-3.4,11.2-9.3,11.9c-5.9,0.6-11.2-3.4-11.9-9.3c-0.3-2.5-8.1-7.6-21.4-9.7v21.7
			C273.4,163.1,298.7,169.6,298.7,191z M373.3,137.6h-42.7c-5.9,0-10.7-4.8-10.7-10.7s4.8-10.7,10.7-10.7h42.7
			c5.9,0,10.7,4.8,10.7,10.7C384,132.9,379.2,137.6,373.3,137.6z"/>
	</g>
</g>
</svg>
