<?xml version="1.0" encoding="utf-8"?>
<!-- Generator: Adobe Illustrator 24.2.0, SVG Export Plug-In . SVG Version: 6.00 Build 0)  -->
<svg version="1.1" id="Layer_1" xmlns="http://www.w3.org/2000/svg" xmlns:xlink="http://www.w3.org/1999/xlink" x="0px" y="0px"
	 viewBox="0 0 512 512" style="enable-background:new 0 0 512 512;" xml:space="preserve">
<style type="text/css">
	.st0{fill:#009EFF;}
</style>
<path className="st0" d="M403.8,147.9C403.8,66.4,337.4,0,255.9,0C174.3,0,108,66.4,108,147.9c0,50.5,25.5,95.2,64.2,121.9
	c-36.2,12.5-69.4,33.1-97.2,61C26.6,379.1,0,443.4,0,511.7h40c0-119,96.8-215.9,215.9-215.9C337.4,295.8,403.8,229.5,403.8,147.9z
	 M255.9,255.9C196.4,255.9,148,207.5,148,148S196.3,40,255.9,40c59.5,0,107.9,48.4,107.9,107.9S315.4,255.9,255.9,255.9z M512,367.8
	l-94.1,94.1l-28.3-28.3l46.8-46.8h-34.7c-47.9,0-86.9,39-86.9,86.9v38.1h-40v-38.1c0.1-69.9,57-126.8,126.9-126.8h32.7L389.6,302
	l28.3-28.3L512,367.8z"/>
</svg>
