<?xml version="1.0" encoding="utf-8"?>
<!-- Generator: Adobe Illustrator 24.1.0, SVG Export Plug-In . SVG Version: 6.00 Build 0)  -->
<svg version="1.1" id="Layer_1" xmlns="http://www.w3.org/2000/svg" xmlns:xlink="http://www.w3.org/1999/xlink" x="0px" y="0px"
	 viewBox="0 0 512 512" style="enable-background:new 0 0 512 512;" xml:space="preserve">
<style type="text/css">
	.st0{fill:#7B7C7E;}
</style>
<g>
	<g>
		<path className="st0" d="M504,224c-4.1-2.6-36.4-21.9-49.2-27.8l-15.9-38.4c4.7-12.7,13.8-48.3,15.2-54.5c1.3-5.7-0.4-11.7-4.6-15.9
			l-24.9-24.9c-4.2-4.2-10.1-5.9-15.9-4.6c-4.7,1.1-41.2,10.2-54.5,15.2l-38.4-15.9C310.2,45,291.5,13.4,288,8c-3.1-5-8.6-8-14.5-8
			h-35.2c-5.9,0-11.3,3-14.5,8c-2.6,4.1-21.9,36.4-27.8,49.2l-38.4,15.9c-12.7-4.7-48.3-13.8-54.5-15.2c-5.7-1.3-11.7,0.4-15.9,4.6
			L62.5,87.4c-4.2,4.2-5.9,10.1-4.6,15.9c1.1,4.7,10.2,41.2,15.2,54.5l-15.9,38.4C45,201.8,13.4,220.5,8,224c-5,3.1-8,8.6-8,14.5
			v35.2c0,5.9,3,11.3,8,14.5c4.1,2.6,36.4,21.9,49.2,27.8l15.9,38.4c-4.7,12.7-13.8,48.3-15.2,54.5c-1.3,5.7,0.4,11.7,4.6,15.9
			l24.9,24.9c4.2,4.2,10.1,5.9,15.9,4.6c4.7-1.1,41.2-10.2,54.5-15.2l38.4,15.9c5.6,12.3,24.4,43.8,27.8,49.2c3.1,5,8.6,8,14.5,8
			h35.2c5.9,0,11.3-3,14.5-8c2.6-4.1,21.9-36.4,27.8-49.2l38.4-15.9c12.7,4.7,48.3,13.8,54.5,15.2c5.7,1.3,11.7-0.4,15.9-4.6
			l24.9-24.9c4.2-4.2,5.9-10.1,4.6-15.9c-1.1-4.7-10.2-41.2-15.2-54.5l15.9-38.4c12.3-5.6,43.8-24.4,49.2-27.8c5-3.1,8-8.6,8-14.5
			v-35.2C512,232.5,509,227.1,504,224z M477.9,264L477.9,264c-12.2,7.2-32.4,18.9-38.7,21.5c-5.7,0.9-10.7,4.7-13,10.3l-21.7,52.4
			c-2.3,5.6-1.5,11.8,1.9,16.5c2.6,6.4,8.7,28.9,12.2,42.6l-11.3,11.3c-13.7-3.5-36.2-9.6-42.6-12.2c-4.7-3.4-10.9-4.2-16.5-1.9
			l-52.4,21.7c-5.6,2.3-9.4,7.3-10.3,13c-2.6,6.3-14.3,26.6-21.5,38.7H248c-7.2-12.2-18.9-32.4-21.5-38.7c-0.9-5.7-4.7-10.7-10.3-13
			l-52.4-21.7c-5.6-2.3-11.8-1.5-16.5,1.9c-6.4,2.6-28.9,8.7-42.6,12.2l-11.3-11.3c3.5-13.7,9.6-36.2,12.2-42.6
			c3.4-4.7,4.2-10.9,1.9-16.5l-21.7-52.4c-2.3-5.6-7.3-9.4-13-10.3c-6.3-2.6-26.6-14.3-38.7-21.5V248c12.2-7.2,32.4-18.9,38.7-21.5
			c5.7-0.9,10.7-4.7,13-10.3l21.7-52.4c2.3-5.6,1.5-11.8-1.9-16.5c-2.6-6.4-8.7-28.9-12.2-42.6l11.3-11.3
			c13.7,3.5,36.2,9.6,42.6,12.2c4.7,3.4,10.9,4.2,16.5,1.9l52.4-21.7c5.6-2.3,9.4-7.3,10.3-13c2.6-6.3,14.3-26.6,21.5-38.7H264
			c7.2,12.2,18.9,32.4,21.5,38.7c0.9,5.7,4.7,10.7,10.3,13l52.4,21.7c5.6,2.3,11.8,1.5,16.5-1.9c6.4-2.6,28.9-8.7,42.6-12.2
			l11.3,11.3c-3.5,13.7-9.6,36.2-12.2,42.6c-3.4,4.7-4.2,10.9-1.9,16.5l21.7,52.4c2.3,5.6,7.3,9.4,13,10.3
			c6.3,2.6,26.6,14.3,38.7,21.5L477.9,264L477.9,264z"/>
	</g>
</g>
<g>
	<g>
		<path className="st0" d="M256,144.4c-61.5,0-111.6,50.1-111.6,111.6S194.5,367.6,256,367.6S367.6,317.5,367.6,256
			S317.5,144.4,256,144.4z M256,333.5c-42.7,0-77.5-34.8-77.5-77.5s34.8-77.5,77.5-77.5s77.5,34.8,77.5,77.5S298.7,333.5,256,333.5z
			"/>
	</g>
</g>
</svg>
