<svg id="Capa_1" enable-background="new 0 0 511.555 511.555" height="512" viewBox="0 0 511.555 511.555" width="512" xmlns="http://www.w3.org/2000/svg"><path d="m489.055 0h-466.555c-12.406 0-22.5 10.094-22.5 22.5v71.959 394.596c0 12.406 10.094 22.5 22.5 22.5h466.555c12.406 0 22.5-10.094 22.5-22.5v-394.596-71.959c0-12.406-10.094-22.5-22.5-22.5zm7.5 489.055c0 4.136-3.364 7.5-7.5 7.5h-466.555c-4.136 0-7.5-3.364-7.5-7.5v-387.096h481.555zm0-402.096h-481.555v-64.459c0-4.136 3.364-7.5 7.5-7.5h466.555c4.136 0 7.5 3.364 7.5 7.5z"/><path d="m66.678 28.31c-13.206 0-23.949 10.743-23.949 23.949s10.743 23.949 23.949 23.949 23.95-10.743 23.95-23.949-10.744-23.949-23.95-23.949zm0 32.898c-4.935 0-8.949-4.015-8.949-8.949s4.015-8.949 8.949-8.949c4.936 0 8.95 4.015 8.95 8.949s-4.015 8.949-8.95 8.949z"/><path d="m130.207 28.31c-13.206 0-23.95 10.743-23.95 23.949s10.744 23.949 23.95 23.949 23.949-10.743 23.949-23.949-10.743-23.949-23.949-23.949zm0 32.898c-4.936 0-8.95-4.015-8.95-8.949s4.015-8.949 8.95-8.949 8.949 4.015 8.949 8.949-4.014 8.949-8.949 8.949z"/><path d="m193.735 28.31c-13.206 0-23.949 10.743-23.949 23.949s10.743 23.949 23.949 23.949 23.949-10.743 23.949-23.949-10.743-23.949-23.949-23.949zm0 32.898c-4.935 0-8.949-4.015-8.949-8.949s4.015-8.949 8.949-8.949 8.949 4.015 8.949 8.949-4.014 8.949-8.949 8.949z"/><path d="m65.63 189.755h380.295c7.458 0 13.525-6.067 13.525-13.525v-36.07c0-7.458-6.067-13.525-13.525-13.525h-380.295c-7.458 0-13.525 6.067-13.525 13.525v36.07c-.001 7.458 6.067 13.525 13.525 13.525zm1.474-48.121h377.346v33.121h-377.346z"/><path d="m65.63 269.862h380.295c7.458 0 13.525-6.067 13.525-13.525v-36.07c0-7.458-6.067-13.526-13.525-13.526h-285.648c-4.143 0-7.5 3.357-7.5 7.5s3.357 7.5 7.5 7.5h284.173v33.122h-377.346v-33.123h58.673c4.143 0 7.5-3.357 7.5-7.5s-3.357-7.5-7.5-7.5h-60.147c-7.458 0-13.525 6.068-13.525 13.526v36.07c-.001 7.459 6.067 13.526 13.525 13.526z"/><path d="m65.63 405.785h380.295c7.458 0 13.525-6.067 13.525-13.525v-43.815c0-4.143-3.357-7.5-7.5-7.5s-7.5 3.357-7.5 7.5v42.341h-377.346v-88.938h377.346v12.263c0 4.143 3.357 7.5 7.5 7.5s7.5-3.357 7.5-7.5v-13.736c0-7.458-6.067-13.526-13.525-13.526h-380.295c-7.458 0-13.525 6.068-13.525 13.526v91.886c-.001 7.457 6.067 13.524 13.525 13.524z"/><path d="m445.925 422.771h-84.822c-7.458 0-13.525 6.067-13.525 13.525v24.889c0 7.458 6.067 13.525 13.525 13.525h84.822c7.458 0 13.525-6.067 13.525-13.525v-24.889c0-7.458-6.067-13.525-13.525-13.525zm-1.475 36.939h-81.873v-21.939h81.873z"/><path d="m92.158 334.436h24.712c4.143 0 7.5-3.357 7.5-7.5s-3.357-7.5-7.5-7.5h-24.712c-4.143 0-7.5 3.357-7.5 7.5s3.358 7.5 7.5 7.5z"/><path d="m302.813 326.936c0-4.143-3.357-7.5-7.5-7.5h-150.77c-4.143 0-7.5 3.357-7.5 7.5s3.357 7.5 7.5 7.5h150.77c4.142 0 7.5-3.358 7.5-7.5z"/><path d="m217.274 344.958c-4.143 0-7.5 3.357-7.5 7.5s3.357 7.5 7.5 7.5h55.137c4.143 0 7.5-3.357 7.5-7.5s-3.357-7.5-7.5-7.5z"/><path d="m171.251 344.958c-4.143 0-7.5 3.357-7.5 7.5s3.357 7.5 7.5 7.5h17.188c4.143 0 7.5-3.357 7.5-7.5s-3.357-7.5-7.5-7.5z"/><path d="m92.158 359.958h51.431c4.143 0 7.5-3.357 7.5-7.5s-3.357-7.5-7.5-7.5h-51.431c-4.143 0-7.5 3.357-7.5 7.5s3.358 7.5 7.5 7.5z"/></svg>