<?xml version="1.0" encoding="iso-8859-1"?>
<!-- Generator: Adobe Illustrator 19.0.0, SVG Export Plug-In . SVG Version: 6.00 Build 0)  -->
<svg version="1.1" id="Layer_1" xmlns="http://www.w3.org/2000/svg" xmlns:xlink="http://www.w3.org/1999/xlink" x="0px" y="0px"
	 viewBox="0 0 470 470" style="enable-background:new 0 0 470 470;" xml:space="preserve">
<g>
	<g>
		<g>
			<path d="M370,405h-97.5v-64.117c77.145-17.169,135-86.141,135-168.383C407.5,77.383,330.117,0,235,0S62.5,77.383,62.5,172.5
				c0,82.241,57.855,151.213,135,168.383V405H100c-20.678,0-37.5,16.822-37.5,37.5v20c0,4.142,3.357,7.5,7.5,7.5h330
				c4.143,0,7.5-3.358,7.5-7.5v-20C407.5,421.822,390.678,405,370,405z M322.5,175c0,48.248-39.252,87.5-87.5,87.5
				s-87.5-39.252-87.5-87.5s39.252-87.5,87.5-87.5S322.5,126.752,322.5,175z M77.5,172.5c0-84.331,66.624-153.389,150-157.317
				v57.593c-53.03,3.854-95,48.228-95,102.224c0,56.519,45.981,102.5,102.5,102.5S337.5,231.519,337.5,175
				c0-53.996-41.97-98.371-95-102.224V15.183c83.376,3.929,150,72.986,150,157.317c0,86.846-70.654,157.5-157.5,157.5
				S77.5,259.346,77.5,172.5z M257.5,343.533V405h-45v-61.467c7.366,0.964,14.875,1.467,22.5,1.467S250.134,344.497,257.5,343.533z
				 M157.5,455h-80v-12.5c0-12.407,10.094-22.5,22.5-22.5h57.5V455z M297.5,455h-125v-35h125V455z M392.5,455h-80v-35H370
				c12.406,0,22.5,10.093,22.5,22.5V455z"/>
			<path d="M235,232.5c33.084,0,60-26.916,60-60s-26.916-60-60-60s-60,26.916-60,60S201.916,232.5,235,232.5z M235,127.5
				c24.813,0,45,20.187,45,45s-20.187,45-45,45s-45-20.187-45-45S210.187,127.5,235,127.5z"/>
			<path d="M235,202.5c16.542,0,30-13.458,30-30c0-4.142-3.357-7.5-7.5-7.5s-7.5,3.358-7.5,7.5c0,8.271-6.729,15-15,15
				s-15-6.729-15-15s6.729-15,15-15c4.143,0,7.5-3.358,7.5-7.5c0-4.142-3.357-7.5-7.5-7.5c-16.542,0-30,13.458-30,30
				S218.458,202.5,235,202.5z"/>
		</g>
	</g>
</g>
<g>
</g>
<g>
</g>
<g>
</g>
<g>
</g>
<g>
</g>
<g>
</g>
<g>
</g>
<g>
</g>
<g>
</g>
<g>
</g>
<g>
</g>
<g>
</g>
<g>
</g>
<g>
</g>
<g>
</g>
</svg>
