<?xml version="1.0" encoding="utf-8"?>
<!-- Generator: Adobe Illustrator 24.1.0, SVG Export Plug-In . SVG Version: 6.00 Build 0)  -->
<svg version="1.1" id="Layer_1" xmlns="http://www.w3.org/2000/svg" xmlns:xlink="http://www.w3.org/1999/xlink" x="0px" y="0px"
	 viewBox="0 0 512 512" style="enable-background:new 0 0 512 512;" xml:space="preserve">
<style type="text/css">
	.st0{fill:#7B7C7E;}
</style>
<path className="st0" d="M413.5,152.9C396.2,66.1,311.8,9.8,225.1,27.1C161.6,39.8,112,89.4,99.3,152.8C37.8,159.9-6.3,215.5,0.7,277
	c6.5,56.6,54.5,99.3,111.5,99.3h80.1c8.8,0,16-7.2,16-16s-7.2-16-16-16h-80.1C68,344,32.3,308,32.6,263.7
	c0.3-44.2,36.3-79.9,80.6-79.6c8.2,0,15-6.1,15.9-14.3c8.1-70.3,71.7-120.7,142-112.6c59.1,6.8,105.7,53.5,112.6,112.6
	c1.3,8.3,8.5,14.3,16.9,14.3c44.2,0,80.1,35.9,80.1,80.1c0,44.2-35.9,80.1-80.1,80.1h-80.1c-8.8,0-16,7.2-16,16s7.2,16,16,16h80.1
	c61.9-0.4,111.8-50.9,111.4-112.8C511.6,207.1,469.5,159.8,413.5,152.9z"/>
<path className="st0" d="M313,311.5c6.1,6.4,16.3,6.5,22.7,0.4c6.4-6.1,6.5-16.3,0.4-22.6c-0.1-0.1-0.3-0.3-0.4-0.4l-67.9-68
	c-6.2-6.3-16.4-6.3-22.7,0c0,0,0,0,0,0l-67.9,68c-6.4,6.1-6.5,16.3-0.4,22.6c6.1,6.4,16.3,6.5,22.7,0.4c0.1-0.1,0.3-0.3,0.4-0.4
	l40.6-40.6v201.6c0,8.8,7.2,16,16,16c8.8,0,16-7.2,16-16V270.8L313,311.5z"/>
</svg>
